<svg width="20" height="20" viewBox="0 0 20 20" fill="none" xmlns="http://www.w3.org/2000/svg">
<path d="M14.0833 5.33333H13.4417C13.3063 4.67499 12.9481 4.08345 12.4274 3.65842C11.9067 3.23339 11.2555 3.00085 10.5833 3L9.41667 3C8.74455 3.00085 8.09327 3.23339 7.5726 3.65842C7.05194 4.08345 6.69372 4.67499 6.55833 5.33333H5.91667C5.1434 5.33426 4.40208 5.64185 3.85529 6.18863C3.30851 6.73541 3.00093 7.47674 3 8.25L3 14.0833C3.00093 14.8566 3.30851 15.5979 3.85529 16.1447C4.40208 16.6915 5.1434 16.9991 5.91667 17H14.0833C14.8566 16.9991 15.5979 16.6915 16.1447 16.1447C16.6915 15.5979 16.9991 14.8566 17 14.0833V8.25C16.9991 7.47674 16.6915 6.73541 16.1447 6.18863C15.5979 5.64185 14.8566 5.33426 14.0833 5.33333ZM9.41667 4.16667H10.5833C10.944 4.16816 11.2954 4.28105 11.5894 4.48988C11.8834 4.69872 12.1058 4.9933 12.226 5.33333H7.774C7.89422 4.9933 8.11655 4.69872 8.41059 4.48988C8.70463 4.28105 9.05601 4.16816 9.41667 4.16667ZM5.91667 6.5H14.0833C14.5475 6.5 14.9926 6.68437 15.3208 7.01256C15.649 7.34075 15.8333 7.78587 15.8333 8.25V10H4.16667V8.25C4.16667 7.78587 4.35104 7.34075 4.67923 7.01256C5.00742 6.68437 5.45254 6.5 5.91667 6.5ZM14.0833 15.8333H5.91667C5.45254 15.8333 5.00742 15.649 4.67923 15.3208C4.35104 14.9926 4.16667 14.5475 4.16667 14.0833V11.1667H9.41667V11.75C9.41667 11.9047 9.47812 12.0531 9.58752 12.1625C9.69692 12.2719 9.84529 12.3333 10 12.3333C10.1547 12.3333 10.3031 12.2719 10.4125 12.1625C10.5219 12.0531 10.5833 11.9047 10.5833 11.75V11.1667H15.8333V14.0833C15.8333 14.5475 15.649 14.9926 15.3208 15.3208C14.9926 15.649 14.5475 15.8333 14.0833 15.8333Z" fill="#666666"/>
</svg>
