<svg width="24" height="24" viewBox="0 0 24 24" fill="none" xmlns="http://www.w3.org/2000/svg">
<path fill-rule="evenodd" clip-rule="evenodd" d="M13.7095 1.55566C14.1371 1.58866 14.4704 1.70156 14.6997 1.96729C14.9585 2.26721 15.1346 2.73094 15.2109 3.30469V5.89453C15.2109 5.85553 15.21 5.86783 15.2094 5.91358C15.2094 5.97132 15.2109 5.96855 15.2109 5.93555V6.15234C14.9984 6.03306 14.7709 5.94848 14.54 5.90625C14.0168 5.81047 13.4729 5.85081 12.9492 5.87256C12.4255 5.89431 11.9249 5.89732 11.5137 5.78467C11.1024 5.67164 10.7776 5.46928 10.5059 5.00098C10.4349 4.87879 10.3012 4.80687 10.1602 4.81494C9.99857 4.82392 9.86097 4.93554 9.81885 5.0918C9.8283 5.05655 9.75525 5.21065 9.62989 5.3584C9.5045 5.50615 9.33287 5.68006 9.15235 5.84033C9.01014 5.96659 8.86909 6.06892 8.73487 6.1626V5.93555C8.73487 5.9768 8.73637 5.96304 8.73637 5.91504C8.73637 5.85729 8.73487 5.8586 8.73487 5.8916V4.0957C8.73487 3.17575 9.4578 2.44922 10.3667 2.44922H12.3809H12.3926C12.7334 2.42672 13.0836 2.32073 13.3799 2.1123C13.5509 1.99209 13.6047 1.75292 13.7095 1.55566L13.7095 1.55566ZM10.229 5.79932C10.5516 6.14102 10.9168 6.39865 11.3159 6.5083C11.8727 6.6613 12.4458 6.64476 12.9814 6.62256C13.5171 6.60006 14.018 6.57257 14.4053 6.64307C14.7684 6.70918 15.0134 6.83676 15.2109 7.14111V8.35986C15.2109 10.1757 13.7717 11.625 11.9736 11.625C10.1755 11.625 8.73487 10.1757 8.73487 8.35986V7.04736C8.83306 7.00303 8.92498 6.94556 9.02344 6.8833C9.23126 6.75198 9.4461 6.58279 9.6504 6.40137C9.8547 6.22002 10.0459 6.02765 10.2012 5.84473C10.2138 5.82973 10.2168 5.81357 10.229 5.79932ZM14.3584 11.5635V13.0488L11.9399 15.0923L9.67823 13.1821V11.6367C10.3282 12.0997 11.1166 12.3779 11.9736 12.3779C12.8718 12.3779 13.6921 12.0677 14.3584 11.5635ZM14.7993 13.6582L15.6167 14.1431L14.2983 16.3506L14.2968 16.3491L14.1665 16.5717L13.2158 15.8247L12.7104 15.4233L14.7993 13.6582ZM9.14209 13.7095L11.1694 15.4233L10.7593 15.7529L9.71485 16.5732L8.29688 14.2002L9.14209 13.7095ZM16.2642 14.5254L18.8906 16.0811H18.8936C19.7007 16.5399 20.1958 17.3916 20.1958 18.3149V22.4985H18.0352V20.5547H17.2852V22.4985H6.78516V20.5547H6.03516V22.4985H3.75V18.3984C3.75 17.424 4.27369 16.5242 5.12549 16.04H5.12695L7.64795 14.5767L9.50683 17.6895L9.50976 17.688L11.9473 21.8232L14.6235 17.2719L16.2642 14.5254ZM11.9399 15.7676L12.7236 16.3916V16.5C12.7236 16.7685 12.5812 17.0147 12.3486 17.1489C12.1161 17.2832 11.8312 17.2832 11.5986 17.1489C11.3661 17.0147 11.2236 16.7685 11.2236 16.5V16.3418L11.2251 16.3403L11.9399 15.7676ZM10.5264 16.8896V16.8911C10.58 17.0893 10.6835 17.2674 10.8106 17.4273L10.7036 18.2359L10.1045 17.2207L10.5264 16.8896ZM13.4063 16.9292L13.7813 17.2251L13.2319 18.1597L13.1353 17.4302C13.255 17.2803 13.3508 17.1135 13.4063 16.9292ZM11.502 17.915C11.809 18.0172 12.1368 18.0169 12.4439 17.915L12.6167 19.207L11.9473 20.3452L11.3203 19.2817L11.502 17.915Z" fill="white"/>
</svg>
