<svg width="20" height="20" viewBox="0 0 20 20" fill="none" xmlns="http://www.w3.org/2000/svg">
<path d="M14.3333 16.6667C15.622 16.6667 16.6667 15.622 16.6667 14.3333C16.6667 13.0447 15.622 12 14.3333 12C13.0447 12 12 13.0447 12 14.3333C12 15.622 13.0447 16.6667 14.3333 16.6667Z" stroke="#666666" stroke-width="1.2" stroke-linecap="round" stroke-linejoin="round"/>
<path d="M5.33333 7.66667C6.622 7.66667 7.66667 6.622 7.66667 5.33333C7.66667 4.04467 6.622 3 5.33333 3C4.04467 3 3 4.04467 3 5.33333C3 6.622 4.04467 7.66667 5.33333 7.66667Z" stroke="#666666" stroke-width="1.2" stroke-linecap="round" stroke-linejoin="round"/>
<path d="M5.33398 17.0003V7.66699C5.33398 9.52351 6.07148 11.304 7.38424 12.6167C8.69699 13.9295 9.64544 15 11.502 15" stroke="#666666" stroke-width="1.2" stroke-linecap="round" stroke-linejoin="round"/>
</svg>
