<svg width="24" height="24" viewBox="0 0 24 24" fill="none" xmlns="http://www.w3.org/2000/svg">
<path d="M9.60278 3.00694C9.50337 3.03345 9.42742 3.13564 9.4281 3.24103V4.91451C9.4281 5.24503 9.59856 5.53818 9.85767 5.71018V6.02529V6.98527C9.9097 7.74604 10.1951 8.27785 10.5938 8.60473C10.547 8.98198 10.3885 9.19988 10.1246 9.4004C9.81267 9.63745 9.3591 9.82213 8.87988 10.0318C8.40066 10.2414 7.8914 10.4928 7.5 10.9366C7.1086 11.3804 6.85708 12.0026 6.8573 12.8993V13.0636L6.99133 13.1188H10.7025L11.1233 10.7554C10.9668 10.5507 10.8105 10.329 10.8102 10.0543C10.8101 9.38765 11.3493 8.83432 12 8.83432V8.83544C12.6507 8.83544 13.1899 9.38877 13.1898 10.0554C13.1892 10.3198 13.0551 10.5457 12.9031 10.7576L13.3151 13.1188H17.0087L17.1427 13.0636V12.8993C17.1427 12.0239 16.8887 11.4075 16.5 10.9782C16.1113 10.549 15.6076 10.3188 15.1344 10.1139C14.6612 9.90907 14.2094 9.726 13.9017 9.48255C13.5997 9.24354 13.4257 8.96875 13.4194 8.44042C13.8356 8.08796 14.1242 7.59115 14.1423 6.98527V6.02529V5.64153V4.84586C14.1424 4.07968 13.5759 3.44585 12.8569 3.44585H12.2406H10.2861C10.1391 3.44585 10.0176 3.4218 9.96423 3.39183C9.91091 3.3613 9.89722 3.35673 9.89722 3.24103C9.89851 3.09392 9.74141 2.96874 9.60278 3.00694ZM12 9.41053C11.6533 9.41053 11.3727 9.6979 11.3727 10.0531C11.3729 10.2402 11.4514 10.4044 11.5847 10.5247C11.5949 10.5368 11.7442 10.6466 11.677 10.8589L11.1595 13.7647L12 14.2093L12.8569 13.7692L12.3494 10.8589C12.2823 10.6025 12.4373 10.5247 12.4373 10.5247C12.5569 10.4056 12.6269 10.2287 12.6273 10.0531C12.6273 9.6979 12.3467 9.41053 12 9.41053ZM11.1628 10.842C11.1658 10.8607 11.1614 10.88 11.1683 10.8927C11.1823 10.9186 11.1949 10.9341 11.2046 10.9445C11.2052 10.9502 11.2068 10.9501 11.2068 10.9501L11.2134 10.9568C11.1829 10.9294 11.1898 10.8734 11.1628 10.842ZM12.8503 10.8882C12.8491 10.8921 12.8491 10.8964 12.8459 10.9006C12.847 10.8948 12.8492 10.8949 12.8492 10.8949C12.8508 10.8921 12.8503 10.8899 12.8503 10.8882ZM11.7188 14.709V15.2244H6.18713C5.81146 15.2244 5.50488 15.5466 5.50488 15.93V17.5034H6.06738V15.93C6.06738 15.8506 6.11858 15.8006 6.18713 15.8006H11.7188V17.4887H12.2812V15.8006H17.8129C17.8814 15.8006 17.9326 15.8507 17.9326 15.93V17.5022H18.4951V15.93C18.4951 15.5466 18.1885 15.2244 17.8129 15.2244H12.2812V14.709L11.9956 14.8553L11.7188 14.709ZM3.46472 17.9265C3.2075 17.9265 3 18.1222 3 18.3654V20.5611C3 20.8043 3.2075 21 3.46472 21H8.10754C8.36476 21 8.57117 20.8043 8.57117 20.5611V18.3654C8.57117 18.1222 8.36476 17.9265 8.10754 17.9265H3.46472ZM9.85767 17.9265C9.62023 17.9265 9.4281 18.1222 9.4281 18.3654V20.5611C9.4281 20.8043 9.62023 21 9.85767 21H14.1423C14.3798 21 14.5719 20.8043 14.5719 20.5611V18.3654C14.5719 18.1222 14.3798 17.9265 14.1423 17.9265H9.85767ZM15.8925 17.9265C15.6352 17.9265 15.4288 18.1222 15.4288 18.3654V20.5611C15.4288 20.8043 15.6352 21 15.8925 21H20.5353C20.7925 21 21 20.8043 21 20.5611V18.3654C21 18.1222 20.7925 17.9265 20.5353 17.9265H15.8925Z" fill="white"/>
</svg>
