<svg width="20" height="20" viewBox="0 0 20 20" fill="none" xmlns="http://www.w3.org/2000/svg">
<path d="M3.5 8C3.87405 7.62595 6.60919 5.4738 8.18908 4.24212C8.37149 4.09992 8.62738 4.1019 8.80799 4.24639L13.5 8" stroke="#666666" stroke-width="1.2" stroke-linecap="round"/>
<path d="M4.5 8V12.5C4.5 12.7761 4.72386 13 5 13H12C12.2761 13 12.5 12.7761 12.5 12.5V8" stroke="#666666" stroke-width="1.2" stroke-linecap="round"/>
<path d="M16.5 5H16C15.7239 5 15.5 5.22386 15.5 5.5V13.5C15.5 13.7761 15.7239 14 16 14H16.5M3.5 16V15.5C3.5 15.2239 3.72386 15 4 15H13C13.2761 15 13.5 15.2239 13.5 15.5V16" stroke="#666666" stroke-width="1.2" stroke-linecap="round"/>
</svg>
