<svg width="20" height="20" viewBox="0 0 20 20" fill="none" xmlns="http://www.w3.org/2000/svg">
<path d="M7.5013 18.3334C7.96154 18.3334 8.33463 17.9603 8.33463 17.5001C8.33463 17.0398 7.96154 16.6667 7.5013 16.6667C7.04106 16.6667 6.66797 17.0398 6.66797 17.5001C6.66797 17.9603 7.04106 18.3334 7.5013 18.3334Z" stroke="#474747" stroke-width="1.5" stroke-linecap="round" stroke-linejoin="round"/>
<path d="M16.6654 18.3334C17.1256 18.3334 17.4987 17.9603 17.4987 17.5001C17.4987 17.0398 17.1256 16.6667 16.6654 16.6667C16.2051 16.6667 15.832 17.0398 15.832 17.5001C15.832 17.9603 16.2051 18.3334 16.6654 18.3334Z" stroke="#474747" stroke-width="1.5" stroke-linecap="round" stroke-linejoin="round"/>
<path d="M0.832031 0.833252H4.16536L6.3987 11.9916C6.4749 12.3752 6.68362 12.7199 6.98832 12.9652C7.29302 13.2105 7.67428 13.3407 8.06536 13.3333H16.1654C16.5564 13.3407 16.9377 13.2105 17.2424 12.9652C17.5471 12.7199 17.7558 12.3752 17.832 11.9916L19.1654 4.99992H4.9987" stroke="#474747" stroke-width="1.5" stroke-linecap="round" stroke-linejoin="round"/>
</svg>
