<svg width="20" height="20" viewBox="0 0 20 20" fill="none" xmlns="http://www.w3.org/2000/svg">
<path d="M9.98886 5.00007C9.68207 5.00486 9.43726 5.25744 9.44206 5.56422V6.16526C8.37101 6.39899 7.50007 7.17538 7.50007 8.26782C7.50007 9.55951 8.65644 10.5505 9.99754 10.5505C10.8086 10.5505 11.384 11.1011 11.384 11.7222C11.384 12.343 10.8086 12.8917 9.99754 12.8917C9.18649 12.8917 8.61102 12.343 8.61102 11.7222C8.62165 10.971 7.48944 10.971 7.50007 11.7222C7.50007 12.815 8.37016 13.5938 9.44206 13.8269V14.4366C9.43143 15.1878 10.5636 15.1878 10.553 14.4366V13.9419C11.642 13.7129 12.518 12.8325 12.495 11.7243C12.495 10.245 11.5412 9.44169 9.99754 9.44169C9.18649 9.44169 8.61102 8.89078 8.61102 8.26999C8.61102 7.65724 9.17336 7.11932 9.96716 7.10479C9.98808 7.1067 10.0091 7.10743 10.0301 7.10696C10.8225 7.12264 11.384 7.65792 11.384 8.26998C11.3734 9.02116 12.5056 9.02116 12.495 8.26998C12.495 7.16141 11.642 6.27918 10.553 6.05026V5.56422C10.5579 5.25064 10.3024 4.99516 9.98886 5.00007Z" fill="#666666"/>
<circle cx="10" cy="10" r="7.4" stroke="#666666" stroke-width="1.2"/>
</svg>
