<svg width="24" height="24" viewBox="0 0 24 24" fill="none" xmlns="http://www.w3.org/2000/svg">
<path fill-rule="evenodd" clip-rule="evenodd" d="M12 12.5C13.7186 12.5 15 11.209 15 9.75C15 8.29105 13.7186 7 12 7C10.2814 7 9 8.29105 9 9.75C9 11.209 10.2814 12.5 12 12.5ZM12 13.5C14.2092 13.5 16 11.821 16 9.75C16 7.67895 14.2092 6 12 6C9.79085 6 8 7.67895 8 9.75C8 11.821 9.79085 13.5 12 13.5Z" fill="white"/>
<path fill-rule="evenodd" clip-rule="evenodd" d="M12 2.97144L14.3108 3.76371C15.3213 4.11016 16 5.06035 16 6.1286L16 9.5H15L15 6.1286C15 5.48765 14.5927 4.91753 13.9865 4.70966L12 4.02858L10.0135 4.70967C9.4072 4.91753 9 5.48765 9 6.1286L8.99995 9.5H7.99995L8 6.12855C8 5.06035 8.6787 4.11017 9.6892 3.76372L12 2.97144ZM10 18.5C11.1046 18.5 12 17.6046 12 16.5C12 17.6046 12.8954 18.5 14 18.5C15.1046 18.5 16 17.6046 16 16.5C16 15.7928 15.6329 15.1714 15.0789 14.8157C17.9271 15.3484 21 16.5612 21 18.5V21H3V18.5C3 16.5612 6.0729 15.3484 8.92105 14.8157C8.36705 15.1714 8 15.7928 8 16.5C8 17.6046 8.89545 18.5 10 18.5ZM7 21V18H6V21H7ZM18 18V21H17V18H18Z" fill="white"/>
<path fill-rule="evenodd" clip-rule="evenodd" d="M8.5293 14.893C8.75385 16.3641 10.2219 17.5 11.9995 17.5C13.7771 17.5 15.2452 16.3641 15.4698 14.893C15.1436 14.8252 14.8184 14.7662 14.4991 14.7161C14.4994 14.7274 14.4995 14.7387 14.4995 14.75C14.4995 15.7151 13.3836 16.4977 12.0057 16.5H11.9995H11.9933C10.6155 16.4977 9.49955 15.7151 9.49955 14.75C9.49955 14.7387 9.4997 14.7274 9.5 14.7161C9.18065 14.7662 8.85545 14.8252 8.5293 14.893Z" fill="white"/>
</svg>
