<svg width="24" height="24" viewBox="0 0 24 24" fill="none" xmlns="http://www.w3.org/2000/svg">
<path fill-rule="evenodd" clip-rule="evenodd" d="M13.6615 7C13.9475 7.02206 14.1705 7.09753 14.3239 7.27516C14.497 7.47566 14.6147 7.78565 14.6658 8.1692V9.90047C14.6658 9.8744 14.6652 9.88262 14.6648 9.9132C14.6648 9.9518 14.6658 9.94995 14.6658 9.92789V10.0728C14.5236 9.99307 14.3715 9.93653 14.2171 9.9083C13.8671 9.84428 13.5033 9.87124 13.153 9.88578C12.8027 9.90032 12.4679 9.90233 12.1928 9.82703C11.9178 9.75147 11.7005 9.61619 11.5188 9.30314C11.4713 9.22146 11.3819 9.17338 11.2875 9.17878C11.1794 9.18478 11.0874 9.25939 11.0592 9.36385C11.0656 9.34029 11.0167 9.4433 10.9328 9.54207C10.849 9.64084 10.7342 9.7571 10.6134 9.86424C10.5183 9.94864 10.424 10.017 10.3342 10.0797V9.92789C10.3342 9.95546 10.3352 9.94626 10.3352 9.91418C10.3352 9.87557 10.3342 9.87645 10.3342 9.89851V8.69798C10.3342 8.08301 10.8177 7.59733 11.4257 7.59733H12.7729H12.7807C13.0086 7.58229 13.2429 7.51143 13.4411 7.37211C13.5554 7.29175 13.5915 7.13186 13.6615 7L13.6615 7ZM11.3336 9.83682C11.5493 10.0652 11.7936 10.2375 12.0606 10.3108C12.433 10.413 12.8163 10.402 13.1746 10.3871C13.5329 10.3721 13.8679 10.3537 14.1269 10.4009C14.3698 10.445 14.5337 10.5303 14.6658 10.7338V11.5485C14.6658 12.7624 13.7032 13.7312 12.5005 13.7312C11.2978 13.7312 10.3342 12.7624 10.3342 11.5485V10.6711C10.3999 10.6415 10.4614 10.6031 10.5272 10.5614C10.6662 10.4737 10.8099 10.3606 10.9466 10.2393C11.0832 10.1181 11.2111 9.98946 11.315 9.86718C11.3234 9.85715 11.3254 9.84634 11.3336 9.83682ZM14.0956 13.6901V14.683L12.478 16.049L10.9652 14.7721V13.739C11.3999 14.0485 11.9273 14.2345 12.5005 14.2345C13.1013 14.2345 13.6499 14.0271 14.0956 13.6901ZM14.3905 15.0904L14.9372 15.4145L14.0554 16.8902L14.0544 16.8892L13.9672 17.038L13.3313 16.5386L12.9933 16.2703L14.3905 15.0904ZM10.6066 15.1246L11.9626 16.2703L11.6883 16.4907L10.9897 17.039L10.0412 15.4527L10.6066 15.1246ZM15.3703 15.6701L17.127 16.71H17.129C17.6688 17.0167 18 17.5861 18 18.2033V21H16.5548V19.7006H16.0532V21H9.03011V19.7006H8.52846V21H7V18.2591C7 17.6078 7.35028 17.0063 7.92001 16.6826H7.92099L9.6072 15.7043L10.8505 17.7852L10.8525 17.7842L12.4828 20.5486L14.2729 17.5061L15.3703 15.6701ZM12.478 16.5005L13.0021 16.9176V16.9901C13.0021 17.1696 12.9069 17.3341 12.7513 17.4239C12.5958 17.5136 12.4052 17.5136 12.2497 17.4239C12.0941 17.3341 11.9988 17.1696 11.9988 16.9901V16.8843L11.9998 16.8833L12.478 16.5005ZM11.5325 17.2505V17.2515C11.5683 17.384 11.6375 17.503 11.7225 17.6099L11.651 18.1505L11.2503 17.4719L11.5325 17.2505ZM13.4587 17.277L13.7095 17.4748L13.3421 18.0995L13.2775 17.6119C13.3576 17.5117 13.4217 17.4002 13.4587 17.277ZM12.185 17.936C12.3904 18.0043 12.6096 18.0041 12.815 17.936L12.9306 18.7997L12.4829 19.5605L12.0635 18.8496L12.185 17.936Z" fill="white"/>
<path d="M2 11L2.0057 7C1.77388 7 8.67048 4.33333 12.1478 3L18.5227 5.66667V3.26667H20.5511V6.2L22 7V11" stroke="white"/>
</svg>
