<svg width="21" height="20" viewBox="0 0 21 20" fill="none" xmlns="http://www.w3.org/2000/svg">
<path d="M19.1184 5.6824L17.3001 3.86324L18.0893 3.07407C18.1688 2.9972 18.2323 2.90525 18.276 2.80358C18.3197 2.70191 18.3427 2.59256 18.3436 2.48191C18.3446 2.37126 18.3235 2.26152 18.2816 2.15911C18.2397 2.0567 18.1778 1.96365 18.0996 1.88541C18.0213 1.80717 17.9283 1.74529 17.8259 1.70339C17.7235 1.66149 17.6137 1.6404 17.5031 1.64136C17.3924 1.64232 17.2831 1.66531 17.1814 1.70899C17.0797 1.75266 16.9878 1.81615 16.9109 1.89574L16.1218 2.6849L14.3026 0.866571C13.7292 0.320173 12.9675 0.0153809 12.1755 0.0153809C11.3835 0.0153809 10.6218 0.320173 10.0484 0.866571C9.76888 1.14588 9.54713 1.47753 9.39584 1.84258C9.24454 2.20763 9.16667 2.59891 9.16667 2.99407C9.16667 3.38923 9.24454 3.78052 9.39584 4.14556C9.54713 4.51061 9.76888 4.84227 10.0484 5.12157L11.8668 6.9399L6.95509 11.8516L5.13592 10.0332C4.56253 9.48684 3.80087 9.18205 3.00884 9.18205C2.2168 9.18205 1.45514 9.48684 0.881753 10.0332C0.602218 10.3125 0.380466 10.6442 0.22917 11.0092C0.0778735 11.3743 0 11.7656 0 12.1607C0 12.5559 0.0778735 12.9472 0.22917 13.3122C0.380466 13.6773 0.602218 14.0089 0.881753 14.2882L2.70009 16.1066L1.91092 16.8957C1.83133 16.9726 1.76784 17.0646 1.72417 17.1662C1.68049 17.2679 1.65751 17.3773 1.65654 17.4879C1.65558 17.5986 1.67667 17.7083 1.71857 17.8107C1.76047 17.9131 1.82235 18.0062 1.90059 18.0844C1.97883 18.1626 2.07188 18.2245 2.17429 18.2664C2.27671 18.3083 2.38644 18.3294 2.49709 18.3284C2.60774 18.3275 2.71709 18.3045 2.81876 18.2608C2.92043 18.2171 3.01238 18.1537 3.08925 18.0741L3.87842 17.2849L5.69759 19.1032C5.97688 19.3826 6.30848 19.6043 6.67345 19.7555C7.03842 19.9067 7.42961 19.9846 7.82467 19.9846C8.21973 19.9846 8.61092 19.9067 8.97589 19.7555C9.34086 19.6043 9.67246 19.3826 9.95175 19.1032C10.2313 18.824 10.453 18.4924 10.6043 18.1274C10.7556 17.7625 10.8334 17.3712 10.8334 16.9762C10.8334 16.5811 10.7556 16.1898 10.6043 15.8249C10.453 15.4599 10.2313 15.1283 9.95175 14.8491L8.13342 13.0307L13.0501 8.11824L14.8684 9.93657C15.1477 10.216 15.4793 10.4376 15.8443 10.5889C16.2093 10.7401 16.6004 10.8179 16.9955 10.8179C17.3906 10.8179 17.7818 10.7401 18.1467 10.5889C18.5117 10.4376 18.8433 10.216 19.1226 9.93657C19.4021 9.65734 19.6238 9.32575 19.7751 8.96078C19.9264 8.5958 20.0043 8.20458 20.0043 7.80949C20.0043 7.4144 19.9264 7.02318 19.7751 6.6582C19.6238 6.29322 19.4021 5.96164 19.1226 5.6824H19.1184ZM9.16675 16.9766C9.16711 17.1528 9.13254 17.3273 9.06502 17.4901C8.99751 17.6529 8.8984 17.8007 8.77342 17.9249C8.51799 18.1692 8.17815 18.3056 7.82467 18.3056C7.47119 18.3056 7.13135 18.1692 6.87592 17.9249L2.06009 13.1091C1.80846 12.8574 1.6671 12.5162 1.6671 12.1603C1.6671 11.8045 1.80846 11.4632 2.06009 11.2116C2.31171 10.9599 2.65299 10.8186 3.00884 10.8186C3.36469 10.8186 3.70596 10.9599 3.95759 11.2116L8.77342 16.0274C8.8985 16.1517 8.99767 16.2997 9.06518 16.4626C9.1327 16.6255 9.16722 16.8002 9.16675 16.9766ZM17.9401 8.75824C17.6847 9.00258 17.3448 9.13896 16.9913 9.13896C16.6379 9.13896 16.298 9.00258 16.0426 8.75824L11.2268 3.9424C11.1022 3.81781 11.0033 3.6699 10.9359 3.50711C10.8685 3.34433 10.8338 3.16985 10.8338 2.99365C10.8338 2.81746 10.8685 2.64298 10.9359 2.4802C11.0033 2.31741 11.1022 2.1695 11.2268 2.0449C11.3513 1.92031 11.4993 1.82148 11.662 1.75405C11.8248 1.68662 11.9993 1.65192 12.1755 1.65192C12.3517 1.65192 12.5262 1.68662 12.689 1.75405C12.8518 1.82148 12.9997 1.92031 13.1243 2.0449L17.9401 6.86074C18.0648 6.98527 18.1637 7.13316 18.2312 7.29596C18.2987 7.45875 18.3334 7.63326 18.3334 7.80949C18.3334 7.98572 18.2987 8.16022 18.2312 8.32302C18.1637 8.48581 18.0648 8.63371 17.9401 8.75824Z" fill="#474747"/>
</svg>
