<svg width="20" height="20" viewBox="0 0 20 20" fill="none" xmlns="http://www.w3.org/2000/svg">
<path d="M5.83333 0H3.33333C2.44928 0 1.60143 0.35119 0.976311 0.976311C0.35119 1.60143 0 2.44928 0 3.33333L0 5.83333C0 6.71739 0.35119 7.56524 0.976311 8.19036C1.60143 8.81548 2.44928 9.16667 3.33333 9.16667H5.83333C6.71739 9.16667 7.56524 8.81548 8.19036 8.19036C8.81548 7.56524 9.16667 6.71739 9.16667 5.83333V3.33333C9.16667 2.44928 8.81548 1.60143 8.19036 0.976311C7.56524 0.35119 6.71739 0 5.83333 0ZM7.5 5.83333C7.5 6.27536 7.32441 6.69928 7.01184 7.01184C6.69928 7.32441 6.27536 7.5 5.83333 7.5H3.33333C2.89131 7.5 2.46738 7.32441 2.15482 7.01184C1.84226 6.69928 1.66667 6.27536 1.66667 5.83333V3.33333C1.66667 2.89131 1.84226 2.46738 2.15482 2.15482C2.46738 1.84226 2.89131 1.66667 3.33333 1.66667H5.83333C6.27536 1.66667 6.69928 1.84226 7.01184 2.15482C7.32441 2.46738 7.5 2.89131 7.5 3.33333V5.83333Z" fill="#3691D9"/>
<path d="M16.6654 0H14.1654C13.2813 0 12.4335 0.35119 11.8083 0.976311C11.1832 1.60143 10.832 2.44928 10.832 3.33333V5.83333C10.832 6.71739 11.1832 7.56524 11.8083 8.19036C12.4335 8.81548 13.2813 9.16667 14.1654 9.16667H16.6654C17.5494 9.16667 18.3973 8.81548 19.0224 8.19036C19.6475 7.56524 19.9987 6.71739 19.9987 5.83333V3.33333C19.9987 2.44928 19.6475 1.60143 19.0224 0.976311C18.3973 0.35119 17.5494 0 16.6654 0V0ZM18.332 5.83333C18.332 6.27536 18.1564 6.69928 17.8439 7.01184C17.5313 7.32441 17.1074 7.5 16.6654 7.5H14.1654C13.7233 7.5 13.2994 7.32441 12.9869 7.01184C12.6743 6.69928 12.4987 6.27536 12.4987 5.83333V3.33333C12.4987 2.89131 12.6743 2.46738 12.9869 2.15482C13.2994 1.84226 13.7233 1.66667 14.1654 1.66667H16.6654C17.1074 1.66667 17.5313 1.84226 17.8439 2.15482C18.1564 2.46738 18.332 2.89131 18.332 3.33333V5.83333Z" fill="#3691D9"/>
<path d="M5.83333 10.832H3.33333C2.44928 10.832 1.60143 11.1832 0.976311 11.8083C0.35119 12.4335 0 13.2813 0 14.1654L0 16.6654C0 17.5494 0.35119 18.3973 0.976311 19.0224C1.60143 19.6475 2.44928 19.9987 3.33333 19.9987H5.83333C6.71739 19.9987 7.56524 19.6475 8.19036 19.0224C8.81548 18.3973 9.16667 17.5494 9.16667 16.6654V14.1654C9.16667 13.2813 8.81548 12.4335 8.19036 11.8083C7.56524 11.1832 6.71739 10.832 5.83333 10.832ZM7.5 16.6654C7.5 17.1074 7.32441 17.5313 7.01184 17.8439C6.69928 18.1564 6.27536 18.332 5.83333 18.332H3.33333C2.89131 18.332 2.46738 18.1564 2.15482 17.8439C1.84226 17.5313 1.66667 17.1074 1.66667 16.6654V14.1654C1.66667 13.7233 1.84226 13.2994 2.15482 12.9869C2.46738 12.6743 2.89131 12.4987 3.33333 12.4987H5.83333C6.27536 12.4987 6.69928 12.6743 7.01184 12.9869C7.32441 13.2994 7.5 13.7233 7.5 14.1654V16.6654Z" fill="#3691D9"/>
<path d="M16.6654 10.832H14.1654C13.2813 10.832 12.4335 11.1832 11.8083 11.8083C11.1832 12.4335 10.832 13.2813 10.832 14.1654V16.6654C10.832 17.5494 11.1832 18.3973 11.8083 19.0224C12.4335 19.6475 13.2813 19.9987 14.1654 19.9987H16.6654C17.5494 19.9987 18.3973 19.6475 19.0224 19.0224C19.6475 18.3973 19.9987 17.5494 19.9987 16.6654V14.1654C19.9987 13.2813 19.6475 12.4335 19.0224 11.8083C18.3973 11.1832 17.5494 10.832 16.6654 10.832ZM18.332 16.6654C18.332 17.1074 18.1564 17.5313 17.8439 17.8439C17.5313 18.1564 17.1074 18.332 16.6654 18.332H14.1654C13.7233 18.332 13.2994 18.1564 12.9869 17.8439C12.6743 17.5313 12.4987 17.1074 12.4987 16.6654V14.1654C12.4987 13.7233 12.6743 13.2994 12.9869 12.9869C13.2994 12.6743 13.7233 12.4987 14.1654 12.4987H16.6654C17.1074 12.4987 17.5313 12.6743 17.8439 12.9869C18.1564 13.2994 18.332 13.7233 18.332 14.1654V16.6654Z" fill="#3691D9"/>
</svg>
