<svg width="20" height="20" viewBox="0 0 20 20" fill="none" xmlns="http://www.w3.org/2000/svg">
<path d="M17.4792 10.1256C17.2897 10.1256 17.108 10.0504 16.9741 9.91643C16.8401 9.78248 16.7649 9.6008 16.7649 9.41136V7.35422C16.7917 6.94944 16.658 6.5504 16.3928 6.24346C16.1275 5.93652 15.7521 5.74638 15.3477 5.71422H2.98772C2.79828 5.71422 2.6166 5.63896 2.48265 5.50501C2.34869 5.37105 2.27344 5.18937 2.27344 4.99993C2.27344 4.81049 2.34869 4.62881 2.48265 4.49485C2.6166 4.3609 2.79828 4.28564 2.98772 4.28564H15.3477C16.1324 4.31395 16.8738 4.65228 17.4094 5.22645C17.945 5.80061 18.2311 6.56374 18.2049 7.3485V9.40564C18.2056 9.50089 18.1874 9.59534 18.1511 9.68342C18.1148 9.7715 18.0613 9.85143 17.9937 9.91852C17.9261 9.98561 17.8457 10.0385 17.7573 10.0741C17.669 10.1096 17.5744 10.1272 17.4792 10.1256Z" fill="#474747"/>
<path d="M15.3477 19.2457H2.98771C2.20302 19.2174 1.46158 18.8791 0.925983 18.3049C0.390382 17.7308 0.104334 16.9676 0.130563 16.1829V3.29143C0.130563 3.10199 0.205818 2.92031 0.339773 2.78636C0.473727 2.6524 0.655409 2.57715 0.844849 2.57715C1.03429 2.57715 1.21597 2.6524 1.34993 2.78636C1.48388 2.92031 1.55913 3.10199 1.55913 3.29143V16.1829C1.53237 16.587 1.66622 16.9854 1.93158 17.2915C2.19695 17.5975 2.57239 17.7864 2.97628 17.8171H15.3477C15.7516 17.7864 16.127 17.5975 16.3924 17.2915C16.6578 16.9854 16.7916 16.587 16.7648 16.1829V14.7314C16.7648 14.542 16.8401 14.3603 16.9741 14.2264C17.108 14.0924 17.2897 14.0171 17.4791 14.0171C17.6686 14.0171 17.8503 14.0924 17.9842 14.2264C18.1182 14.3603 18.1934 14.542 18.1934 14.7314V16.1829C18.2197 16.9657 17.9352 17.7272 17.4021 18.301C16.8689 18.8749 16.1304 19.2145 15.3477 19.2457Z" fill="#474747"/>
<path d="M15.0588 5.71427C14.8713 5.71429 14.6914 5.64061 14.5577 5.50912C14.4241 5.37762 14.3475 5.19887 14.3445 5.01141V3.42856C14.3311 3.08952 14.1843 2.76953 13.9359 2.53832C13.6876 2.30712 13.3579 2.18345 13.0188 2.19427H2.7331C2.44151 2.18344 2.15751 2.28862 1.9433 2.48676C1.72909 2.6849 1.60214 2.95986 1.59025 3.25141C1.60214 3.54297 1.72909 3.81792 1.9433 4.01606C2.15751 4.21421 2.44151 4.31938 2.7331 4.30856H9.01882C9.20826 4.30856 9.38994 4.38381 9.52389 4.51777C9.65785 4.65172 9.7331 4.8334 9.7331 5.02284C9.7331 5.21228 9.65785 5.39396 9.52389 5.52792C9.38994 5.66187 9.20826 5.73713 9.01882 5.73713H2.71596C2.38304 5.74242 2.05235 5.68198 1.74283 5.55928C1.4333 5.43657 1.15103 5.25401 0.912165 5.02205C0.673303 4.79009 0.482548 4.51328 0.350825 4.20749C0.219102 3.90169 0.148999 3.57291 0.144531 3.23998C0.156554 2.56958 0.434063 1.93133 0.916154 1.46531C1.39825 0.999287 2.04553 0.743567 2.71596 0.75427H13.0017C13.3596 0.746696 13.7154 0.809987 14.0487 0.9405C14.382 1.07101 14.6863 1.26617 14.9439 1.51473C15.2014 1.76329 15.4073 2.06036 15.5496 2.38881C15.692 2.71727 15.7679 3.07063 15.7731 3.42856V5.01141C15.7701 5.19887 15.6935 5.37762 15.5599 5.50912C15.4263 5.64061 15.2463 5.71429 15.0588 5.71427ZM17.9445 15.4286H13.9845C13.211 15.4439 12.4631 15.1516 11.9049 14.6159C11.3467 14.0802 11.0239 13.3449 11.0074 12.5714V11.5371C11.0239 10.7636 11.3467 10.0283 11.9049 9.49264C12.4631 8.95695 13.211 8.66467 13.9845 8.67998H17.9845C18.2344 8.68073 18.4817 8.73069 18.7123 8.82701C18.9429 8.92334 19.1522 9.06413 19.3284 9.24136C19.5045 9.41858 19.6441 9.62877 19.739 9.85993C19.834 10.0911 19.8824 10.3387 19.8817 10.5886V13.5543C19.8727 14.0595 19.6637 14.5405 19.3005 14.8918C18.9374 15.2432 18.4498 15.4362 17.9445 15.4286ZM13.9845 10.1143C13.5908 10.0988 13.2069 10.2397 12.9168 10.5063C12.6266 10.7729 12.4538 11.1435 12.436 11.5371V12.6C12.4538 12.9936 12.6266 13.3642 12.9168 13.6308C13.2069 13.8974 13.5908 14.0383 13.9845 14.0228H17.9445C18.0693 14.0229 18.1891 13.9737 18.2779 13.886C18.3667 13.7982 18.4173 13.6791 18.4188 13.5543V10.5886C18.4154 10.4745 18.3684 10.3661 18.2874 10.2857C18.2445 10.2409 18.1931 10.2052 18.1362 10.1806C18.0792 10.1561 18.018 10.1432 17.956 10.1428L13.9845 10.1143Z" fill="#474747"/>
<path d="M14.3783 12.7828C14.7728 12.7828 15.0926 12.463 15.0926 12.0685C15.0926 11.674 14.7728 11.3542 14.3783 11.3542C13.9839 11.3542 13.6641 11.674 13.6641 12.0685C13.6641 12.463 13.9839 12.7828 14.3783 12.7828Z" fill="#474747"/>
</svg>
