<svg width="20" height="21" viewBox="0 0 20 21" fill="none" xmlns="http://www.w3.org/2000/svg">
<path d="M15.4167 2.16797H5.41675C4.75371 2.16797 4.11782 2.43136 3.64898 2.9002C3.18014 3.36904 2.91675 4.00493 2.91675 4.66797V14.668C2.9182 15.1838 3.07915 15.6865 3.37753 16.1072C3.67591 16.5279 4.09712 16.846 4.58341 17.018V18.0013C4.58341 18.2223 4.67121 18.4343 4.82749 18.5906C4.98377 18.7468 5.19573 18.8346 5.41675 18.8346C5.63776 18.8346 5.84972 18.7468 6.006 18.5906C6.16228 18.4343 6.25008 18.2223 6.25008 18.0013V17.168H14.5834V18.0013C14.5834 18.2223 14.6712 18.4343 14.8275 18.5906C14.9838 18.7468 15.1957 18.8346 15.4167 18.8346C15.6378 18.8346 15.8497 18.7468 16.006 18.5906C16.1623 18.4343 16.2501 18.2223 16.2501 18.0013V17.018C16.7364 16.846 17.1576 16.5279 17.456 16.1072C17.7543 15.6865 17.9153 15.1838 17.9167 14.668V4.66797C17.9167 4.00493 17.6534 3.36904 17.1845 2.9002C16.7157 2.43136 16.0798 2.16797 15.4167 2.16797ZM4.58341 7.16797H9.58341V10.5013H4.58341V7.16797ZM16.2501 14.668C16.2501 14.889 16.1623 15.1009 16.006 15.2572C15.8497 15.4135 15.6378 15.5013 15.4167 15.5013H5.41675C5.19573 15.5013 4.98377 15.4135 4.82749 15.2572C4.67121 15.1009 4.58341 14.889 4.58341 14.668V12.168H16.2501V14.668ZM16.2501 10.5013H11.2501V7.16797H16.2501V10.5013ZM16.2501 5.5013H4.58341V4.66797C4.58341 4.44696 4.67121 4.23499 4.82749 4.07871C4.98377 3.92243 5.19573 3.83464 5.41675 3.83464H15.4167C15.6378 3.83464 15.8497 3.92243 16.006 4.07871C16.1623 4.23499 16.2501 4.44696 16.2501 4.66797V5.5013ZM13.4334 14.6013C13.5336 14.644 13.6412 14.6667 13.7501 14.668C13.9711 14.668 14.1831 14.5802 14.3393 14.4239C14.4956 14.2676 14.5834 14.0556 14.5834 13.8346C14.5875 13.7792 14.5875 13.7234 14.5834 13.668C14.5743 13.6158 14.5574 13.5652 14.5334 13.518C14.5152 13.4649 14.49 13.4144 14.4584 13.368C14.4276 13.3243 14.3943 13.2826 14.3584 13.243L14.2334 13.143C14.187 13.1114 14.1365 13.0862 14.0834 13.068C14.032 13.0365 13.9757 13.0139 13.9167 13.0013C13.7816 12.973 13.6415 12.9788 13.5092 13.0181C13.3768 13.0574 13.2563 13.1289 13.1584 13.2263C13.1226 13.2659 13.0892 13.3076 13.0584 13.3513C13.0269 13.3978 13.0017 13.4482 12.9834 13.5013C12.9594 13.5485 12.9425 13.5991 12.9334 13.6513C12.9293 13.7068 12.9293 13.7625 12.9334 13.818C12.9343 14.0366 13.0211 14.2461 13.1751 14.4013C13.2472 14.4844 13.335 14.5523 13.4334 14.6013ZM6.76675 14.6013C6.86693 14.644 6.97452 14.6667 7.08341 14.668C7.30443 14.668 7.51639 14.5802 7.67267 14.4239C7.82895 14.2676 7.91675 14.0556 7.91675 13.8346C7.92084 13.7792 7.92084 13.7234 7.91675 13.668C7.90763 13.6158 7.89077 13.5652 7.86675 13.518C7.84851 13.4649 7.82329 13.4144 7.79175 13.368C7.76098 13.3243 7.72759 13.2826 7.69175 13.243L7.56675 13.143L7.41675 13.068L7.25008 13.0013C7.11493 12.973 6.97488 12.9788 6.84252 13.0181C6.71015 13.0574 6.58962 13.1289 6.49175 13.2263C6.45591 13.2659 6.42252 13.3076 6.39175 13.3513C6.36021 13.3978 6.33499 13.4482 6.31675 13.5013C6.29272 13.5485 6.27587 13.5991 6.26675 13.6513C6.26266 13.7068 6.26266 13.7625 6.26675 13.818C6.26767 14.0366 6.35446 14.2461 6.50841 14.4013C6.58049 14.4844 6.66828 14.5523 6.76675 14.6013Z" fill="#474747"/>
</svg>
