<svg width="24" height="24" viewBox="0 0 24 24" fill="none" xmlns="http://www.w3.org/2000/svg">
<path d="M21.1673 11.1667H19.5007V9.50008C19.5007 9.27907 19.4129 9.06711 19.2566 8.91083C19.1003 8.75455 18.8883 8.66675 18.6673 8.66675C18.4463 8.66675 18.2343 8.75455 18.0781 8.91083C17.9218 9.06711 17.834 9.27907 17.834 9.50008V11.1667H16.1673C15.9463 11.1667 15.7343 11.2545 15.5781 11.4108C15.4218 11.5671 15.334 11.7791 15.334 12.0001C15.334 12.2211 15.4218 12.4331 15.5781 12.5893C15.7343 12.7456 15.9463 12.8334 16.1673 12.8334H17.834V14.5001C17.834 14.7211 17.9218 14.9331 18.0781 15.0893C18.2343 15.2456 18.4463 15.3334 18.6673 15.3334C18.8883 15.3334 19.1003 15.2456 19.2566 15.0893C19.4129 14.9331 19.5007 14.7211 19.5007 14.5001V12.8334H21.1673C21.3883 12.8334 21.6003 12.7456 21.7566 12.5893C21.9129 12.4331 22.0007 12.2211 22.0007 12.0001C22.0007 11.7791 21.9129 11.5671 21.7566 11.4108C21.6003 11.2545 21.3883 11.1667 21.1673 11.1667Z" fill="white"/>
<path d="M9.5 12C10.4889 12 11.4556 11.7068 12.2779 11.1573C13.1001 10.6079 13.741 9.82705 14.1194 8.91342C14.4978 7.99979 14.5969 6.99446 14.4039 6.02455C14.211 5.05465 13.7348 4.16373 13.0355 3.46447C12.3363 2.76521 11.4454 2.289 10.4755 2.09608C9.50555 1.90315 8.50021 2.00217 7.58658 2.3806C6.67295 2.75904 5.89206 3.39991 5.34265 4.22215C4.79324 5.0444 4.5 6.0111 4.5 7C4.50132 8.32568 5.02853 9.59668 5.96593 10.5341C6.90332 11.4715 8.17432 11.9987 9.5 12ZM9.5 3.66667C10.1593 3.66667 10.8037 3.86217 11.3519 4.22844C11.9001 4.59471 12.3273 5.1153 12.5796 5.72439C12.8319 6.33348 12.8979 7.0037 12.7693 7.6503C12.6407 8.29691 12.3232 8.89085 11.857 9.35702C11.3908 9.8232 10.7969 10.1407 10.1503 10.2693C9.5037 10.3979 8.83348 10.3319 8.22439 10.0796C7.6153 9.82731 7.09471 9.40007 6.72843 8.8519C6.36216 8.30374 6.16667 7.65927 6.16667 7C6.16667 6.11595 6.51786 5.2681 7.14298 4.64298C7.7681 4.01786 8.61595 3.66667 9.5 3.66667V3.66667Z" fill="white"/>
<path d="M9.5 13.6667C7.51155 13.669 5.60518 14.4598 4.19914 15.8659C2.79309 17.2719 2.00221 19.1783 2 21.1667C2 21.3878 2.0878 21.5997 2.24408 21.756C2.40036 21.9123 2.61232 22.0001 2.83333 22.0001C3.05435 22.0001 3.26631 21.9123 3.42259 21.756C3.57887 21.5997 3.66667 21.3878 3.66667 21.1667C3.66667 19.6197 4.28125 18.1359 5.37521 17.042C6.46917 15.948 7.9529 15.3334 9.5 15.3334C11.0471 15.3334 12.5308 15.948 13.6248 17.042C14.7188 18.1359 15.3333 19.6197 15.3333 21.1667C15.3333 21.3878 15.4211 21.5997 15.5774 21.756C15.7337 21.9123 15.9457 22.0001 16.1667 22.0001C16.3877 22.0001 16.5996 21.9123 16.7559 21.756C16.9122 21.5997 17 21.3878 17 21.1667C16.9978 19.1783 16.2069 17.2719 14.8009 15.8659C13.3948 14.4598 11.4884 13.669 9.5 13.6667V13.6667Z" fill="white"/>
</svg>
