<svg width="30" height="30" viewBox="0 0 30 30" fill="none" xmlns="http://www.w3.org/2000/svg">
<g filter="url(#filter0_b_4531_40349)">
<path d="M0 8C0 3.58172 3.58172 0 8 0H22C26.4183 0 30 3.58172 30 8V22C30 26.4183 26.4183 30 22 30H8C3.58172 30 0 26.4183 0 22V8Z" fill="white" fill-opacity="0.8"/>
<path d="M20.9177 23.9974C20.6487 23.9966 20.3825 23.9409 20.1344 23.8334C19.8864 23.726 19.6615 23.5689 19.4727 23.3712L15 18.7864L10.5273 23.3742C10.2401 23.6747 9.87168 23.879 9.47018 23.9605C9.06868 24.042 8.65269 23.9968 8.27644 23.8309C7.89645 23.6733 7.57139 23.4012 7.34369 23.0502C7.11599 22.6992 6.99625 22.2855 7.00009 21.8632V9.74946C7.00009 8.75504 7.3832 7.80135 8.06514 7.09819C8.74709 6.39503 9.672 6 10.6364 6L19.3636 6C19.8411 6 20.314 6.09698 20.7551 6.28541C21.1963 6.47384 21.5972 6.75002 21.9348 7.09819C22.2725 7.44636 22.5404 7.8597 22.7231 8.3146C22.9058 8.76951 22.9999 9.25707 22.9999 9.74946V21.8632C23.004 22.2851 22.8847 22.6986 22.6575 23.0496C22.4303 23.4006 22.1059 23.6728 21.7265 23.8309C21.4703 23.9414 21.1954 23.998 20.9177 23.9974ZM10.6364 7.49978C10.0578 7.49978 9.50282 7.7368 9.09365 8.1587C8.68448 8.58059 8.45462 9.15281 8.45462 9.74946V21.8632C8.45436 21.9882 8.49001 22.1104 8.55709 22.2145C8.62417 22.3185 8.71965 22.3998 8.83148 22.4479C8.94331 22.4961 9.06647 22.509 9.1854 22.485C9.30434 22.461 9.4137 22.4012 9.4997 22.3131L14.4909 17.1981C14.6272 17.0585 14.8115 16.9801 15.0036 16.9801C15.1958 16.9801 15.3801 17.0585 15.5164 17.1981L20.5017 22.3116C20.5877 22.3997 20.6971 22.4595 20.816 22.4835C20.935 22.5075 21.0581 22.4946 21.17 22.4464C21.2818 22.3983 21.3773 22.317 21.4444 22.213C21.5114 22.1089 21.5471 21.9867 21.5468 21.8617V9.74946C21.5468 9.15281 21.317 8.58059 20.9078 8.1587C20.4986 7.7368 19.9437 7.49978 19.365 7.49978H10.6364Z" fill="#666666"/>
</g>
<defs>
<filter id="filter0_b_4531_40349" x="-10" y="-10" width="50" height="50" filterUnits="userSpaceOnUse" color-interpolation-filters="sRGB">
<feFlood flood-opacity="0" result="BackgroundImageFix"/>
<feGaussianBlur in="BackgroundImage" stdDeviation="5"/>
<feComposite in2="SourceAlpha" operator="in" result="effect1_backgroundBlur_4531_40349"/>
<feBlend mode="normal" in="SourceGraphic" in2="effect1_backgroundBlur_4531_40349" result="shape"/>
</filter>
</defs>
</svg>
