<svg width="20" height="21" viewBox="0 0 20 21" fill="none" xmlns="http://www.w3.org/2000/svg">
<g clip-path="url(#clip0_978_42995)">
<path d="M10 20.5C9.11594 20.5 8.2681 20.1488 7.64298 19.5237C7.01786 18.8986 6.66667 18.0507 6.66667 17.1667V13.8333H3.33333C2.44928 13.8333 1.60143 13.4821 0.976311 12.857C0.35119 12.2319 0 11.3841 0 10.5C0 9.61594 0.35119 8.7681 0.976311 8.14298C1.60143 7.51786 2.44928 7.16667 3.33333 7.16667H6.66667V3.83333C6.66667 2.94928 7.01786 2.10143 7.64298 1.47631C8.2681 0.85119 9.11594 0.5 10 0.5C10.8841 0.5 11.7319 0.85119 12.357 1.47631C12.9821 2.10143 13.3333 2.94928 13.3333 3.83333V7.16667H16.6667C17.5507 7.16667 18.3986 7.51786 19.0237 8.14298C19.6488 8.7681 20 9.61594 20 10.5C20 11.3841 19.6488 12.2319 19.0237 12.857C18.3986 13.4821 17.5507 13.8333 16.6667 13.8333H13.3333V17.1667C13.3333 18.0507 12.9821 18.8986 12.357 19.5237C11.7319 20.1488 10.8841 20.5 10 20.5ZM3.33333 8.83333C2.89131 8.83333 2.46738 9.00893 2.15482 9.32149C1.84226 9.63405 1.66667 10.058 1.66667 10.5C1.66667 10.942 1.84226 11.3659 2.15482 11.6785C2.46738 11.9911 2.89131 12.1667 3.33333 12.1667H7.5C7.72101 12.1667 7.93297 12.2545 8.08926 12.4107C8.24554 12.567 8.33333 12.779 8.33333 13V17.1667C8.33333 17.6087 8.50893 18.0326 8.82149 18.3452C9.13405 18.6577 9.55797 18.8333 10 18.8333C10.442 18.8333 10.8659 18.6577 11.1785 18.3452C11.4911 18.0326 11.6667 17.6087 11.6667 17.1667V13C11.6667 12.779 11.7545 12.567 11.9107 12.4107C12.067 12.2545 12.279 12.1667 12.5 12.1667H16.6667C17.1087 12.1667 17.5326 11.9911 17.8452 11.6785C18.1577 11.3659 18.3333 10.942 18.3333 10.5C18.3333 10.058 18.1577 9.63405 17.8452 9.32149C17.5326 9.00893 17.1087 8.83333 16.6667 8.83333H12.5C12.279 8.83333 12.067 8.74554 11.9107 8.58926C11.7545 8.43297 11.6667 8.22101 11.6667 8V3.83333C11.6667 3.39131 11.4911 2.96738 11.1785 2.65482C10.8659 2.34226 10.442 2.16667 10 2.16667C9.55797 2.16667 9.13405 2.34226 8.82149 2.65482C8.50893 2.96738 8.33333 3.39131 8.33333 3.83333V8C8.33333 8.22101 8.24554 8.43297 8.08926 8.58926C7.93297 8.74554 7.72101 8.83333 7.5 8.83333H3.33333Z" fill="#474747"/>
</g>
<defs>
<clipPath id="clip0_978_42995">
<rect width="20" height="20" fill="white" transform="translate(0 0.5)"/>
</clipPath>
</defs>
</svg>
