<svg width="20" height="21" viewBox="0 0 20 21" fill="none" xmlns="http://www.w3.org/2000/svg">
<g clip-path="url(#clip0_978_42983)">
<path d="M19.9999 19.6679C19.9999 19.8889 19.9121 20.1009 19.7558 20.2572C19.5995 20.4135 19.3876 20.5013 19.1665 20.5013H0.833211C0.612198 20.5013 0.400236 20.4135 0.243956 20.2572C0.0876755 20.1009 -0.000121896 19.8889 -0.000121896 19.6679C-0.000121896 19.4469 0.0876755 19.235 0.243956 19.0787C0.400236 18.9224 0.612198 18.8346 0.833211 18.8346H19.1665C19.3876 18.8346 19.5995 18.9224 19.7558 19.0787C19.9121 19.235 19.9999 19.4469 19.9999 19.6679ZM0.242378 7.62793C0.0628133 7.29487 -0.0203764 6.91835 0.00214513 6.54064C0.0246666 6.16293 0.152008 5.79897 0.369878 5.4896C0.725927 4.9672 1.20275 4.5384 1.75988 4.2396L8.01071 0.986267C8.6251 0.666793 9.30739 0.5 9.99988 0.5C10.6924 0.5 11.3747 0.666793 11.989 0.986267L18.239 4.2421C18.7962 4.5409 19.273 4.9697 19.629 5.4921C19.8469 5.80147 19.9743 6.16543 19.9968 6.54314C20.0193 6.92085 19.9361 7.29737 19.7565 7.63043C19.5632 7.99612 19.2733 8.30177 18.9183 8.51409C18.5633 8.72641 18.1568 8.83727 17.7432 8.8346H17.4999V15.5013H18.3332C18.5542 15.5013 18.7662 15.5891 18.9225 15.7453C19.0787 15.9016 19.1665 16.1136 19.1665 16.3346C19.1665 16.5556 19.0787 16.7676 18.9225 16.9239C18.7662 17.0801 18.5542 17.1679 18.3332 17.1679H1.66654C1.44553 17.1679 1.23357 17.0801 1.07729 16.9239C0.921009 16.7676 0.833211 16.5556 0.833211 16.3346C0.833211 16.1136 0.921009 15.9016 1.07729 15.7453C1.23357 15.5891 1.44553 15.5013 1.66654 15.5013H2.49988V8.8346H2.25654C1.84251 8.83719 1.43572 8.72602 1.08054 8.51324C0.725354 8.30045 0.435427 7.99422 0.242378 7.62793ZM4.16654 15.5013H6.66654V8.8346H4.16654V15.5013ZM8.33321 8.8346V15.5013H11.6665V8.8346H8.33321ZM15.8332 8.8346H13.3332V15.5013H15.8332V8.8346ZM1.71904 6.85543C1.77133 6.95183 1.84914 7.03198 1.94395 7.0871C2.03875 7.14222 2.1469 7.17019 2.25654 7.16793H17.7432C17.8529 7.17019 17.961 7.14222 18.0558 7.0871C18.1506 7.03198 18.2284 6.95183 18.2807 6.85543C18.3188 6.79174 18.3372 6.71821 18.3337 6.64408C18.3301 6.56995 18.3047 6.49852 18.2607 6.43877C18.0588 6.13869 17.7875 5.89172 17.4699 5.71877L11.2199 2.46293C10.8432 2.26745 10.4251 2.16541 10.0007 2.16541C9.57635 2.16541 9.1582 2.26745 8.78154 2.46293L2.53154 5.71877C2.21403 5.89227 1.94282 6.13948 1.74071 6.4396C1.69662 6.49911 1.67105 6.57029 1.66719 6.64425C1.66334 6.71821 1.68137 6.79167 1.71904 6.85543Z" fill="#474747"/>
</g>
<defs>
<clipPath id="clip0_978_42983">
<rect width="20" height="20" fill="white" transform="translate(0 0.5)"/>
</clipPath>
</defs>
</svg>
