<svg width="20" height="21" viewBox="0 0 20 21" fill="none" xmlns="http://www.w3.org/2000/svg">
<path d="M19.8958 6.78761C19.6633 5.97119 19.1191 5.27889 18.3808 4.86011L12.2358 1.93261C11.5714 1.5358 10.8134 1.32316 10.0396 1.31656C9.26581 1.30997 8.50425 1.50967 7.83326 1.89511L1.61909 4.86011C1.59576 4.87178 1.57159 4.88428 1.54909 4.89761C1.07259 5.17006 0.677674 5.56507 0.405326 6.04163C0.132977 6.51819 -0.0068818 7.05896 0.000260471 7.60781C0.00740274 8.15665 0.161286 8.69359 0.445944 9.16291C0.730601 9.63222 1.13566 10.0168 1.61909 10.2768L3.33326 11.0934V15.1768C3.33375 16.0664 3.61856 16.9325 4.14612 17.6488C4.67367 18.3651 5.41635 18.8941 6.26576 19.1584C7.47899 19.5094 8.73701 19.6812 9.99993 19.6684C11.2626 19.6826 12.5206 19.5122 13.7341 19.1626C14.5835 18.8982 15.3262 18.3693 15.8537 17.653C16.3813 16.9367 16.6661 16.0705 16.6666 15.1809V11.0918L18.3333 10.2951V17.1684C18.3333 17.3895 18.4211 17.6014 18.5773 17.7577C18.7336 17.914 18.9456 18.0018 19.1666 18.0018C19.3876 18.0018 19.5996 17.914 19.7558 17.7577C19.9121 17.6014 19.9999 17.3895 19.9999 17.1684V7.16844C19.9972 7.03484 19.9614 6.90399 19.8958 6.78761ZM14.9999 15.1809C15.0001 15.7131 14.8305 16.2314 14.5158 16.6606C14.201 17.0897 13.7576 17.4071 13.2499 17.5668C12.1934 17.8686 11.0986 18.0152 9.99993 18.0018C8.90123 18.0152 7.80643 17.8686 6.74993 17.5668C6.24228 17.4071 5.79882 17.0897 5.48407 16.6606C5.16932 16.2314 4.99972 15.7131 4.99993 15.1809V11.8876L7.76409 13.2043C8.44611 13.6093 9.22505 13.8221 10.0183 13.8201C10.7733 13.8255 11.5155 13.6256 12.1658 13.2418L14.9999 11.8876V15.1809ZM17.6666 8.77261L11.3816 11.7726C10.9515 12.023 10.4615 12.1518 9.9639 12.1452C9.4663 12.1386 8.97985 11.9968 8.55659 11.7351L2.40743 8.81011C2.18609 8.69076 2.0007 8.51439 1.87047 8.29927C1.74024 8.08416 1.66991 7.83813 1.66676 7.58668C1.66362 7.33524 1.72777 7.08753 1.85258 6.86922C1.97739 6.65092 2.15831 6.46996 2.37659 6.34511L8.62243 3.36178C9.05266 3.11189 9.54262 2.98341 10.0401 2.99001C10.5376 2.99661 11.024 3.13806 11.4474 3.39928L17.5924 6.32678C17.8144 6.45005 17.9999 6.62983 18.13 6.84789C18.2601 7.06595 18.3302 7.31454 18.3333 7.56844C18.3337 7.80928 18.2726 8.04623 18.156 8.25693C18.0393 8.46763 17.8709 8.64511 17.6666 8.77261Z" fill="#3691D9"/>
</svg>
