<svg width="20" height="20" viewBox="0 0 20 20" fill="none" xmlns="http://www.w3.org/2000/svg">
<path d="M15.588 6.8392C15.4318 6.68298 15.2198 6.59521 14.9989 6.59521C14.7779 6.59521 14.566 6.68298 14.4097 6.8392L10.588 10.6609C10.4296 10.8129 10.2185 10.8979 9.99887 10.8979C9.77926 10.8979 9.56815 10.8129 9.40971 10.6609L5.58804 6.8392C5.43087 6.6874 5.22037 6.60341 5.00187 6.60531C4.78338 6.60721 4.57437 6.69485 4.41986 6.84935C4.26535 7.00386 4.17771 7.21287 4.17581 7.43137C4.17391 7.64987 4.25791 7.86037 4.40971 8.01754L8.23054 11.8392C8.46269 12.0714 8.73831 12.2556 9.04165 12.3812C9.34499 12.5069 9.67012 12.5716 9.99846 12.5716C10.3268 12.5716 10.6519 12.5069 10.9553 12.3812C11.2586 12.2556 11.5342 12.0714 11.7664 11.8392L15.588 8.01754C15.7443 7.86126 15.832 7.64934 15.832 7.42837C15.832 7.2074 15.7443 6.99548 15.588 6.8392Z" fill="#474747"/>
</svg>