<svg width="71" height="70" viewBox="0 0 71 70" fill="none" xmlns="http://www.w3.org/2000/svg">
<rect x="0.5" width="70" height="70" rx="35" fill="#EB5155"/>
<g clip-path="url(#clip0_2238_87122)">
<path d="M35.5 20C32.5333 20 29.6332 20.8797 27.1665 22.528C24.6997 24.1762 22.7771 26.5189 21.6418 29.2597C20.5065 32.0006 20.2094 35.0166 20.7882 37.9264C21.367 40.8361 22.7956 43.5088 24.8934 45.6066C26.9912 47.7044 29.6639 49.133 32.5737 49.7118C35.4834 50.2906 38.4994 49.9935 41.2403 48.8582C43.9811 47.7229 46.3238 45.8003 47.972 43.3336C49.6203 40.8668 50.5 37.9667 50.5 35C50.4957 31.0231 48.914 27.2103 46.1019 24.3981C43.2897 21.586 39.4769 20.0043 35.5 20V20ZM35.5 47.5C33.0277 47.5 30.611 46.7669 28.5554 45.3934C26.4998 44.0199 24.8976 42.0676 23.9515 39.7835C23.0054 37.4995 22.7579 34.9861 23.2402 32.5614C23.7225 30.1366 24.913 27.9093 26.6612 26.1612C28.4093 24.413 30.6366 23.2225 33.0614 22.7402C35.4861 22.2579 37.9995 22.5054 40.2836 23.4515C42.5676 24.3976 44.5199 25.9998 45.8934 28.0554C47.2669 30.111 48 32.5277 48 35C47.9964 38.3141 46.6782 41.4914 44.3348 43.8348C41.9914 46.1782 38.8141 47.4964 35.5 47.5Z" fill="white"/>
<path d="M35.5 26.25C35.1685 26.25 34.8505 26.3817 34.6161 26.6161C34.3817 26.8505 34.25 27.1685 34.25 27.5V37.5C34.25 37.8315 34.3817 38.1495 34.6161 38.3839C34.8505 38.6183 35.1685 38.75 35.5 38.75C35.8315 38.75 36.1495 38.6183 36.3839 38.3839C36.6183 38.1495 36.75 37.8315 36.75 37.5V27.5C36.75 27.1685 36.6183 26.8505 36.3839 26.6161C36.1495 26.3817 35.8315 26.25 35.5 26.25Z" fill="white"/>
<path d="M36.75 42.5C36.75 41.8096 36.1904 41.25 35.5 41.25C34.8096 41.25 34.25 41.8096 34.25 42.5C34.25 43.1904 34.8096 43.75 35.5 43.75C36.1904 43.75 36.75 43.1904 36.75 42.5Z" fill="white"/>
</g>
<defs>
<clipPath id="clip0_2238_87122">
<rect width="30" height="30" fill="white" transform="translate(20.5 20)"/>
</clipPath>
</defs>
</svg>
