<svg width="30" height="30" viewBox="0 0 30 30" fill="none" xmlns="http://www.w3.org/2000/svg">
<path fill-rule="evenodd" clip-rule="evenodd" d="M15 1.25C7.25421 1.25 1.25 6.9238 1.25 14.5875C1.25 18.5961 2.89285 22.06 5.56827 24.4526C5.79286 24.6536 5.92844 24.9352 5.93765 25.2366L6.01253 27.6824C6.03646 28.4626 6.84232 28.9703 7.55622 28.6551L10.2854 27.4503C10.5168 27.3483 10.776 27.3293 11.0198 27.3964C12.2739 27.7413 13.6087 27.925 15 27.925C22.7458 27.925 28.75 22.2512 28.75 14.5875C28.75 6.9238 22.7458 1.25 15 1.25Z" fill="url(#paint0_radial_656_101042)"/>
<path fill-rule="evenodd" clip-rule="evenodd" d="M6.74324 18.4889L10.7823 12.0808C11.4248 11.0614 12.8006 10.8076 13.7646 11.5305L16.9771 13.9399C17.2718 14.161 17.6774 14.1598 17.9709 13.9371L22.3095 10.6444C22.8886 10.2049 23.6445 10.8979 23.2569 11.5129L19.2179 17.921C18.5753 18.9404 17.1995 19.1942 16.2355 18.4712L13.023 16.0618C12.7283 15.8408 12.3227 15.8419 12.0292 16.0647L7.69061 19.3574C7.11154 19.7968 6.35562 19.1038 6.74324 18.4889Z" fill="white"/>
<defs>
<radialGradient id="paint0_radial_656_101042" cx="0" cy="0" r="1" gradientUnits="userSpaceOnUse" gradientTransform="translate(6.54292 28.6028) scale(29.964)">
<stop stop-color="#0099FF"/>
<stop offset="0.60975" stop-color="#A033FF"/>
<stop offset="0.93482" stop-color="#FF5280"/>
<stop offset="1" stop-color="#FF7061"/>
</radialGradient>
</defs>
</svg>
