<svg width="25" height="24" viewBox="0 0 25 24" fill="none" xmlns="http://www.w3.org/2000/svg">
<path d="M14.1492 6.44694C14.9909 6.61115 15.7644 7.0228 16.3708 7.62918C16.9772 8.23556 17.3888 9.0091 17.5531 9.85078L14.1492 6.44694ZM14.1492 3C15.8979 3.19427 17.5286 3.97736 18.7735 5.22069C20.0184 6.46403 20.8035 8.09372 21 9.84217L14.1492 3ZM20.1383 16.7188V19.304C20.1392 19.544 20.0901 19.7816 19.9939 20.0014C19.8978 20.2213 19.7568 20.4187 19.5799 20.581C19.4031 20.7432 19.1943 20.8667 18.967 20.9436C18.7396 21.0205 18.4987 21.0491 18.2597 21.0275C15.608 20.7393 13.0608 19.8332 10.8229 18.382C8.74082 17.0589 6.97557 15.2936 5.65252 13.2115C4.19617 10.9635 3.28985 8.40393 3.00699 5.74031C2.98546 5.50202 3.01378 5.26185 3.09015 5.03509C3.16652 4.80834 3.28927 4.59997 3.45059 4.42326C3.6119 4.24654 3.80824 4.10535 4.02711 4.00868C4.24598 3.912 4.48258 3.86196 4.72185 3.86173H7.30705C7.72525 3.85762 8.13069 4.00571 8.44778 4.27841C8.76487 4.55111 8.97198 4.92981 9.03051 5.34392C9.13963 6.17124 9.34199 6.98356 9.63373 7.76539C9.74967 8.07382 9.77476 8.40903 9.70603 8.73129C9.63731 9.05355 9.47764 9.34935 9.24595 9.58365L8.15155 10.678C9.37827 12.8354 11.1646 14.6217 13.322 15.8485L14.4164 14.7541C14.6506 14.5224 14.9465 14.3627 15.2687 14.294C15.591 14.2252 15.9262 14.2503 16.2346 14.3663C17.0164 14.658 17.8288 14.8604 18.6561 14.9695C19.0747 15.0285 19.457 15.2394 19.7303 15.5619C20.0035 15.8845 20.1488 16.2962 20.1383 16.7188Z" stroke="white" stroke-width="1.5" stroke-linecap="round" stroke-linejoin="round"/>
</svg>
