<svg width="30" height="30" viewBox="0 0 30 30" fill="none" xmlns="http://www.w3.org/2000/svg">
<rect width="30" height="30" rx="15" fill="#3691D9"/>
<path d="M21.4436 8.48592C20.1291 7.17136 17.9694 7.17136 16.6549 8.48592L12.5234 12.5235C11.2088 13.932 11.2088 15.9977 12.5234 17.4061C12.6173 17.5 12.8051 17.5939 12.899 17.6878L14.3074 16.2794C14.2135 16.1855 14.0258 16.0916 13.9319 15.9977C13.3685 15.4343 13.3685 14.4953 13.9319 13.932L18.0633 9.80048C18.6267 9.2371 19.5657 9.2371 20.1291 9.80048C20.6924 10.3639 20.6924 11.3028 20.1291 11.8662L18.9084 13.0869C19.284 13.8381 19.3779 14.6831 19.284 15.4343L21.4436 13.2747C22.8521 11.9601 22.8521 9.80048 21.4436 8.48592Z" fill="white"/>
<path d="M17.0306 12.2402L15.6221 13.6487C15.6221 13.6487 15.9038 13.8365 15.9977 13.9304C16.5611 14.4938 16.5611 15.4327 15.9977 15.9961L11.8662 20.1276C11.3028 20.691 10.3639 20.691 9.80048 20.1276C9.2371 19.5642 9.2371 18.6252 9.80048 18.0619L11.0211 16.8412C10.6456 16.09 10.9272 15.6205 10.6456 14.4938L8.48592 16.6534C7.17136 17.968 7.17136 20.1276 8.48592 21.4422C9.80048 22.7567 11.9601 22.7567 13.2747 21.4422L17.4061 17.3107C18.7207 15.9961 18.7207 13.8365 17.4061 12.5219C17.2184 12.428 17.0306 12.2402 17.0306 12.2402Z" fill="white"/>
</svg>
