<svg width="20" height="21" viewBox="0 0 20 21" fill="none" xmlns="http://www.w3.org/2000/svg">
<g clip-path="url(#clip0_978_43175)">
<path d="M7.50008 18.8346C7.96032 18.8346 8.33341 18.4615 8.33341 18.0013C8.33341 17.5411 7.96032 17.168 7.50008 17.168C7.03984 17.168 6.66675 17.5411 6.66675 18.0013C6.66675 18.4615 7.03984 18.8346 7.50008 18.8346Z" stroke="#474747" stroke-width="2" stroke-linecap="round" stroke-linejoin="round"/>
<path d="M16.6666 18.8346C17.1268 18.8346 17.4999 18.4615 17.4999 18.0013C17.4999 17.5411 17.1268 17.168 16.6666 17.168C16.2063 17.168 15.8333 17.5411 15.8333 18.0013C15.8333 18.4615 16.2063 18.8346 16.6666 18.8346Z" stroke="#474747" stroke-width="2" stroke-linecap="round" stroke-linejoin="round"/>
<path d="M0.833252 1.33203H4.16658L6.39992 12.4904C6.47612 12.874 6.68484 13.2187 6.98954 13.4639C7.29424 13.7092 7.6755 13.8395 8.06658 13.832H16.1666C16.5577 13.8395 16.9389 13.7092 17.2436 13.4639C17.5483 13.2187 17.757 12.874 17.8333 12.4904L19.1666 5.4987H4.99992" stroke="#474747" stroke-width="2" stroke-linecap="round" stroke-linejoin="round"/>
</g>
<defs>
<clipPath id="clip0_978_43175">
<rect width="20" height="20" fill="white" transform="translate(0 0.5)"/>
</clipPath>
</defs>
</svg>
