<svg width="12" height="12" viewBox="0 0 12 12" fill="none" xmlns="http://www.w3.org/2000/svg">
<path d="M9.24295 11.2498C9.14966 11.2502 9.05764 11.2282 8.97462 11.1856L5.99962 9.62813L3.02462 11.1856C2.92801 11.2364 2.8191 11.2591 2.71025 11.2511C2.6014 11.2431 2.49698 11.2047 2.40887 11.1402C2.32076 11.0758 2.25248 10.988 2.21181 10.8867C2.17114 10.7854 2.15969 10.6748 2.17878 10.5673L2.76212 7.28313L0.358784 4.94979C0.283801 4.87497 0.230609 4.78113 0.204917 4.67836C0.179225 4.5756 0.182002 4.46777 0.212951 4.36646C0.246761 4.26279 0.308954 4.17067 0.392472 4.10055C0.47599 4.03044 0.577489 3.98514 0.685451 3.96979L4.01045 3.48563L5.47462 0.493127C5.52238 0.394502 5.59696 0.311326 5.68982 0.253128C5.78267 0.19493 5.89003 0.164062 5.99962 0.164062C6.1092 0.164062 6.21657 0.19493 6.30942 0.253128C6.40227 0.311326 6.47685 0.394502 6.52462 0.493127L8.00628 3.47979L11.3313 3.96396C11.4392 3.97931 11.5407 4.0246 11.6243 4.09472C11.7078 4.16483 11.77 4.25695 11.8038 4.36063C11.8347 4.46194 11.8375 4.56976 11.8118 4.67253C11.7861 4.7753 11.7329 4.86913 11.658 4.94396L9.25462 7.27729L9.83795 10.5615C9.85878 10.6708 9.84787 10.7839 9.80653 10.8872C9.76518 10.9906 9.69512 11.08 9.60462 11.1448C9.49899 11.2188 9.3718 11.2557 9.24295 11.2498Z" fill="#CCCCCC"/>
</svg>
