<svg width="20" height="21" viewBox="0 0 20 21" fill="none" xmlns="http://www.w3.org/2000/svg">
<path d="M15.417 2.16602H5.41699C4.75395 2.16602 4.11807 2.42941 3.64923 2.89825C3.18038 3.36709 2.91699 4.00297 2.91699 4.66602V14.666C2.91844 15.1818 3.07939 15.6845 3.37777 16.1052C3.67616 16.526 4.09737 16.8441 4.58366 17.016V17.9993C4.58366 18.2204 4.67146 18.4323 4.82774 18.5886C4.98402 18.7449 5.19598 18.8327 5.41699 18.8327C5.63801 18.8327 5.84997 18.7449 6.00625 18.5886C6.16253 18.4323 6.25033 18.2204 6.25033 17.9993V17.166H14.5837V17.9993C14.5837 18.2204 14.6715 18.4323 14.8277 18.5886C14.984 18.7449 15.196 18.8327 15.417 18.8327C15.638 18.8327 15.85 18.7449 16.0062 18.5886C16.1625 18.4323 16.2503 18.2204 16.2503 17.9993V17.016C16.7366 16.8441 17.1578 16.526 17.4562 16.1052C17.7546 15.6845 17.9155 15.1818 17.917 14.666V4.66602C17.917 4.00297 17.6536 3.36709 17.1848 2.89825C16.7159 2.42941 16.08 2.16602 15.417 2.16602ZM4.58366 7.16602H9.58366V10.4993H4.58366V7.16602ZM16.2503 14.666C16.2503 14.887 16.1625 15.099 16.0062 15.2553C15.85 15.4116 15.638 15.4993 15.417 15.4993H5.41699C5.19598 15.4993 4.98402 15.4116 4.82774 15.2553C4.67146 15.099 4.58366 14.887 4.58366 14.666V12.166H16.2503V14.666ZM16.2503 10.4993H11.2503V7.16602H16.2503V10.4993ZM16.2503 5.49935H4.58366V4.66602C4.58366 4.445 4.67146 4.23304 4.82774 4.07676C4.98402 3.92048 5.19598 3.83268 5.41699 3.83268H15.417C15.638 3.83268 15.85 3.92048 16.0062 4.07676C16.1625 4.23304 16.2503 4.445 16.2503 4.66602V5.49935ZM13.4337 14.5993C13.5338 14.6421 13.6414 14.6647 13.7503 14.666C13.9713 14.666 14.1833 14.5782 14.3396 14.4219C14.4959 14.2657 14.5837 14.0537 14.5837 13.8327C14.5877 13.7772 14.5877 13.7215 14.5837 13.666C14.5745 13.6138 14.5577 13.5633 14.5337 13.516C14.5154 13.4629 14.4902 13.4125 14.4587 13.366C14.4279 13.3224 14.3945 13.2806 14.3587 13.241L14.2337 13.141C14.1872 13.1095 14.1368 13.0843 14.0837 13.066C14.0323 13.0345 13.9759 13.012 13.917 12.9993C13.7818 12.9711 13.6418 12.9769 13.5094 13.0161C13.3771 13.0554 13.2565 13.127 13.1587 13.2243C13.1228 13.2639 13.0894 13.3057 13.0587 13.3493C13.0271 13.3958 13.0019 13.4462 12.9837 13.4993C12.9596 13.5466 12.9428 13.5971 12.9337 13.6493C12.9296 13.7048 12.9296 13.7605 12.9337 13.816C12.9346 14.0346 13.0214 14.2441 13.1753 14.3993C13.2474 14.4824 13.3352 14.5504 13.4337 14.5993ZM6.76699 14.5993C6.86718 14.6421 6.97476 14.6647 7.08366 14.666C7.30467 14.666 7.51663 14.5782 7.67291 14.4219C7.82919 14.2657 7.91699 14.0537 7.91699 13.8327C7.92108 13.7772 7.92108 13.7215 7.91699 13.666C7.90787 13.6138 7.89102 13.5633 7.86699 13.516C7.84875 13.4629 7.82353 13.4125 7.79199 13.366C7.76123 13.3224 7.72783 13.2806 7.69199 13.241L7.56699 13.141L7.41699 13.066L7.25033 12.9993C7.11518 12.9711 6.97513 12.9769 6.84276 13.0161C6.7104 13.0554 6.58986 13.127 6.49199 13.2243C6.45615 13.2639 6.42276 13.3057 6.39199 13.3493C6.36045 13.3958 6.33523 13.4462 6.31699 13.4993C6.29297 13.5466 6.27611 13.5971 6.26699 13.6493C6.2629 13.7048 6.2629 13.7605 6.26699 13.816C6.26791 14.0346 6.35471 14.2441 6.50866 14.3993C6.58073 14.4824 6.66853 14.5504 6.76699 14.5993V14.5993Z" fill="#474747"/>
</svg>
