<svg width="30" height="30" viewBox="0 0 30 30" fill="none" xmlns="http://www.w3.org/2000/svg">
<g clip-path="url(#clip0_656_101035)">
<path d="M15 30C23.2843 30 30 23.2843 30 15C30 6.71574 23.2843 0 15 0C6.71574 0 0 6.71574 0 15C0 23.2843 6.71574 30 15 30Z" fill="#2DAAE1"/>
<path d="M24.6177 9.03303C23.9102 9.34699 23.1502 9.55922 22.3512 9.65462C23.1667 9.16632 23.7914 8.39255 24.0863 7.47162C23.3117 7.93169 22.464 8.25558 21.5799 8.42922C20.8605 7.66237 19.8346 7.18359 18.6996 7.18359C16.521 7.18359 14.7542 8.94971 14.7542 11.1295C14.7542 11.4384 14.789 11.7397 14.8558 12.029C11.5763 11.8642 8.66874 10.2933 6.72257 7.90624C6.38274 8.48922 6.18823 9.16704 6.18823 9.89024C6.18823 11.2591 6.88495 12.4668 7.9436 13.1743C7.31689 13.1548 6.70394 12.9857 6.15599 12.6809V12.7308C6.15599 14.6428 7.51596 16.2371 9.32125 16.5997C8.98962 16.6906 8.64159 16.7381 8.28155 16.7381C8.02698 16.7381 7.78 16.714 7.53873 16.6686C8.04088 18.2358 9.4982 19.3765 11.2244 19.4088C9.87393 20.4674 8.17224 21.0985 6.32401 21.0985C6.00568 21.0985 5.69106 21.0795 5.3822 21.0422C7.12877 22.1622 9.20253 22.8159 11.431 22.8159C18.6889 22.8159 22.6582 16.8032 22.6582 11.5888C22.6582 11.4176 22.6544 11.2477 22.6462 11.0784C23.4195 10.519 24.0871 9.82644 24.6177 9.03303Z" fill="white"/>
</g>
<defs>
<clipPath id="clip0_656_101035">
<rect width="30" height="30" fill="white"/>
</clipPath>
</defs>
</svg>
