<svg width="34" height="34" viewBox="0 0 34 34" fill="none" xmlns="http://www.w3.org/2000/svg">
<rect width="34" height="34" rx="8" fill="#3691D9"/>
<path d="M25.1384 24.1574L20.9967 20.0156C22.1253 18.6352 22.6803 16.8738 22.5467 15.0958C22.4131 13.3177 21.6012 11.659 20.2789 10.4627C18.9566 9.26649 17.2252 8.62423 15.4426 8.6688C13.6601 8.71337 11.9629 9.44136 10.7021 10.7022C9.44124 11.963 8.71325 13.6602 8.66868 15.4428C8.62411 17.2253 9.26637 18.9568 10.4626 20.279C11.6589 21.6013 13.3176 22.4132 15.0956 22.5468C16.8737 22.6804 18.6351 22.1255 20.0155 20.9968L24.1573 25.1385C24.2881 25.2649 24.4634 25.3348 24.6453 25.3333C24.8273 25.3317 25.0013 25.2587 25.1299 25.1301C25.2586 25.0014 25.3316 24.8274 25.3331 24.6454C25.3347 24.4635 25.2648 24.2882 25.1384 24.1574ZM15.6275 21.1786C14.5296 21.1786 13.4563 20.853 12.5435 20.2431C11.6306 19.6331 10.9191 18.7662 10.499 17.7519C10.0789 16.7375 9.96894 15.6214 10.1831 14.5446C10.3973 13.4678 10.926 12.4788 11.7023 11.7024C12.4786 10.9261 13.4677 10.3974 14.5445 10.1832C15.6213 9.96906 16.7374 10.079 17.7517 10.4991C18.766 10.9193 19.633 11.6308 20.2429 12.5436C20.8529 13.4565 21.1785 14.5297 21.1785 15.6276C21.1768 17.0993 20.5914 18.5102 19.5508 19.5509C18.5101 20.5916 17.0992 21.1769 15.6275 21.1786Z" fill="white"/>
</svg>
