<svg width="30" height="30" viewBox="0 0 30 30" fill="none" xmlns="http://www.w3.org/2000/svg">
<path d="M18.6142 8.4375L17.1458 7.86614L18.0515 7.03125C19.2469 5.6812 19.9219 3.90933 19.9219 2.10938C19.9219 1.71558 19.6125 1.40625 19.2188 1.40625C19.1202 1.40625 18.839 1.09683 18.6844 0.928078C18.3046 0.520312 17.8407 0 17.1094 0C16.3781 0 15.9141 0.520312 15.5344 0.928078C15.3797 1.09683 15.0985 1.40625 15 1.40625C14.9015 1.40625 14.6203 1.09683 14.4656 0.928078C14.0859 0.520312 13.6219 0 12.8906 0C12.1734 0 11.7233 0.492141 11.2875 0.970313C11.1328 1.125 10.8798 1.40625 10.7812 1.40625C10.3875 1.40625 10.0781 1.71558 10.0781 2.10938C10.0781 3.90933 10.7531 5.6812 11.9485 7.03125L14.2605 7.86614L11.3858 8.4375C9.20625 10.1671 5.85938 13.5656 5.85938 17.6719C5.85938 23.339 11.0765 24 15 24C18.9235 24 24.1406 23.339 24.1406 17.6719C24.1406 13.5656 20.7937 10.1671 18.6142 8.4375Z" fill="url(#paint0_linear_391_29881)"/>
<path d="M20.625 5.625C20.2312 5.625 19.9219 5.93433 19.9219 6.32812C19.9219 6.72183 19.6125 7.03125 19.2188 7.03125H18.0515H11.9485C12.095 7.21959 12.1663 7.28494 12.4827 7.62188C12.1875 7.83281 11.8078 8.1 11.3858 8.4375H18.6142H19.2188C20.386 8.4375 21.3281 7.49527 21.3281 6.32812C21.3281 5.93433 21.0188 5.625 20.625 5.625ZM15.4921 11.5547C15.225 11.2735 14.775 11.2735 14.5078 11.5547L10.2891 15.7735C10.0078 16.0407 10.0078 16.4906 10.2891 16.7578C10.5421 17.0392 11.0205 17.0391 11.2734 16.7578L11.4844 16.561V19.0781C11.4844 19.4719 11.7937 19.7812 12.1875 19.7812H14.2969V17.6719C14.2969 17.2781 14.6062 16.9688 15 16.9688C15.3938 16.9688 15.7031 17.2781 15.7031 17.6719V19.7812H17.8125C18.2063 19.7812 18.5156 19.4719 18.5156 19.0781V16.561L18.7266 16.7578C18.9796 17.0391 19.458 17.039 19.7109 16.7578C19.9922 16.4906 19.9922 16.0406 19.7109 15.7734L15.4921 11.5547Z" fill="url(#paint1_linear_391_29881)"/>
<ellipse cx="15" cy="29" rx="15" ry="1" fill="#FFFBCD"/>
<defs>
<linearGradient id="paint0_linear_391_29881" x1="15" y1="24" x2="15" y2="0" gradientUnits="userSpaceOnUse">
<stop stop-color="#FD5900"/>
<stop offset="1" stop-color="#FFDE00"/>
</linearGradient>
<linearGradient id="paint1_linear_391_29881" x1="15.7031" y1="19.7812" x2="15.7031" y2="5.625" gradientUnits="userSpaceOnUse">
<stop stop-color="#FFE59A"/>
<stop offset="1" stop-color="#FFFFD5"/>
</linearGradient>
</defs>
</svg>
