<svg width="30" height="30" viewBox="0 0 30 30" fill="none" xmlns="http://www.w3.org/2000/svg">
<path d="M9.37522 21.1406H20.6252V11.2969H9.37522V21.1406ZM14.4591 3.30914C14.2092 3.0091 13.7656 2.97131 13.469 3.21919L6.1123 9.35025C5.81432 9.59883 5.77447 10.0424 6.02305 10.3411C6.2691 10.6371 6.7116 10.6808 7.01319 10.431L14.3699 4.29994C14.6679 4.05141 14.7077 3.60783 14.4591 3.30914ZM23.8881 9.35025L16.5314 3.21919C16.2348 2.97267 15.7912 3.01046 15.5413 3.30914C15.2927 3.60783 15.3326 4.05141 15.6306 4.29999L22.9873 10.431C23.2887 10.6807 23.7313 10.6372 23.9774 10.3411C24.226 10.0424 24.1862 9.59878 23.8881 9.35025Z" fill="url(#paint0_linear_391_29882)"/>
<path d="M24.8906 9.1875H5.10938C3.94209 9.1875 3 10.1296 3 11.2969V21.1406C3 22.3078 3.94209 23.25 5.10938 23.25H24.8906C26.0579 23.25 27 22.3078 27 21.1406V11.2969C27 10.1296 26.0579 9.1875 24.8906 9.1875ZM19.7109 17.414C19.458 17.6953 18.9796 17.6954 18.7266 17.414L18.5156 17.2171V19.7344C18.5156 20.1281 18.2062 20.4375 17.8125 20.4375H15.7031V18.3281C15.7031 17.9343 15.3937 17.625 15 17.625C14.6062 17.625 14.2968 17.9343 14.2968 18.3281V20.4375H12.1875C11.7937 20.4375 11.4843 20.1281 11.4843 19.7344V17.2171L11.2733 17.414C11.0204 17.6953 10.5421 17.6954 10.289 17.414C10.0077 17.1468 10.0077 16.6968 10.289 16.4296L14.5078 12.2109C14.775 11.9297 15.2248 11.9297 15.4921 12.2109L19.7108 16.4296C19.9922 16.6968 19.9922 17.1468 19.7109 17.414ZM15 4.96875C16.1632 4.96875 17.1094 4.02253 17.1094 2.85938C17.1094 1.69622 16.1632 0.75 15 0.75C13.8368 0.75 12.8906 1.69622 12.8906 2.85938C12.8906 4.02253 13.8368 4.96875 15 4.96875ZM15 2.15625C15.3873 2.15625 15.7031 2.47144 15.7031 2.85938C15.7031 3.24731 15.3873 3.5625 15 3.5625C14.6127 3.5625 14.2969 3.24731 14.2969 2.85938C14.2969 2.47144 14.6127 2.15625 15 2.15625Z" fill="url(#paint1_linear_391_29882)"/>
<ellipse cx="15" cy="29" rx="15" ry="1" fill="#EAF6FF"/>
<defs>
<linearGradient id="paint0_linear_391_29882" x1="15.0002" y1="21.1406" x2="15.0002" y2="3.05588" gradientUnits="userSpaceOnUse">
<stop stop-color="#ADDCFF"/>
<stop offset="0.5028" stop-color="#EAF6FF"/>
<stop offset="1" stop-color="#EAF6FF"/>
</linearGradient>
<linearGradient id="paint1_linear_391_29882" x1="15" y1="23.25" x2="15" y2="0.75" gradientUnits="userSpaceOnUse">
<stop stop-color="#5558FF"/>
<stop offset="1" stop-color="#00C0FF"/>
</linearGradient>
</defs>
</svg>
