<svg width="30" height="30" viewBox="0 0 30 30" fill="none" xmlns="http://www.w3.org/2000/svg">
<path d="M5.10938 21.8906H16.3594V5.01562H5.10938V21.8906ZM26.2969 0H12.1406C11.752 0 11.4375 0.314484 11.4375 0.703125V3.60938C11.4375 3.99802 11.752 4.3125 12.1406 4.3125H17.0625V20.4844C17.0625 20.873 17.377 21.1875 17.7656 21.1875H26.2969C26.6855 21.1875 27 20.873 27 20.4844V0.703125C27 0.314484 26.6855 0 26.2969 0Z" fill="url(#paint0_linear_391_29885)"/>
<path d="M17.7656 2.90625H3.70312C3.30933 2.90625 3 3.21558 3 3.60938V23.2969C3 23.6906 3.30933 24 3.70312 24H17.7656C18.1594 24 18.4688 23.6906 18.4688 23.2969V3.60938C18.4688 3.21558 18.1594 2.90625 17.7656 2.90625ZM12.1406 21.1875H9.32812C8.93433 21.1875 8.625 20.8781 8.625 20.4844C8.625 20.0906 8.93433 19.7812 9.32812 19.7812H12.1406C12.5344 19.7812 12.8438 20.0906 12.8438 20.4844C12.8438 20.8781 12.5344 21.1875 12.1406 21.1875ZM14.9531 18.375H6.51562C6.12183 18.375 5.8125 18.0656 5.8125 17.6719C5.8125 17.2781 6.12183 16.9688 6.51562 16.9688H14.9531C15.3469 16.9688 15.6562 17.2781 15.6562 17.6719C15.6562 18.0656 15.3469 18.375 14.9531 18.375ZM15.4453 11.1328C15.1923 11.414 14.714 11.4141 14.4609 11.1328L14.25 10.9359V13.4531C14.25 13.8468 13.9407 14.1562 13.5469 14.1562H11.4375V12.0469C11.4375 11.6531 11.1282 11.3438 10.7344 11.3438C10.3406 11.3438 10.0312 11.6531 10.0312 12.0469V14.1562H7.92188C7.52808 14.1562 7.21875 13.8468 7.21875 13.4531V10.9359L7.00777 11.1328C6.75483 11.4141 6.27647 11.4142 6.02344 11.1328C5.74209 10.8656 5.74209 10.4156 6.02344 10.1484L10.2422 5.92969C10.5095 5.64848 10.9592 5.64848 11.2265 5.92969L15.4453 10.1484C15.7266 10.4156 15.7266 10.8656 15.4453 11.1328ZM21.9844 4.3125H23.3906C23.7793 4.3125 24.0938 3.99802 24.0938 3.60938C24.0938 3.22073 23.7793 2.90625 23.3906 2.90625H21.9844C21.5957 2.90625 21.2812 3.22073 21.2812 3.60938C21.2812 3.99802 21.5957 4.3125 21.9844 4.3125ZM23.3906 7.125H20.5781C20.1895 7.125 19.875 7.43948 19.875 7.82812C19.875 8.21677 20.1895 8.53125 20.5781 8.53125H23.3906C23.7793 8.53125 24.0938 8.21677 24.0938 7.82812C24.0938 7.43948 23.7793 7.125 23.3906 7.125ZM23.3906 9.9375H20.5781C20.1895 9.9375 19.875 10.252 19.875 10.6406C19.875 11.0293 20.1895 11.3438 20.5781 11.3438H23.3906C23.7793 11.3438 24.0938 11.0293 24.0938 10.6406C24.0938 10.252 23.7793 9.9375 23.3906 9.9375ZM23.3906 12.75H20.5781C20.1895 12.75 19.875 13.0645 19.875 13.4531C19.875 13.8418 20.1895 14.1562 20.5781 14.1562H23.3906C23.7793 14.1562 24.0938 13.8418 24.0938 13.4531C24.0938 13.0645 23.7793 12.75 23.3906 12.75ZM23.3906 15.5625H20.5781C20.1895 15.5625 19.875 15.877 19.875 16.2656C19.875 16.6543 20.1895 16.9688 20.5781 16.9688H23.3906C23.7793 16.9688 24.0938 16.6543 24.0938 16.2656C24.0938 15.877 23.7793 15.5625 23.3906 15.5625Z" fill="url(#paint1_linear_391_29885)"/>
<ellipse cx="15" cy="29" rx="15" ry="1" fill="#FFFED2"/>
<defs>
<linearGradient id="paint0_linear_391_29885" x1="16.0547" y1="21.8906" x2="16.0547" y2="0" gradientUnits="userSpaceOnUse">
<stop stop-color="#FFE59A"/>
<stop offset="1" stop-color="#FFFFD5"/>
</linearGradient>
<linearGradient id="paint1_linear_391_29885" x1="13.5469" y1="24" x2="13.5469" y2="2.90625" gradientUnits="userSpaceOnUse">
<stop stop-color="#FD5900"/>
<stop offset="1" stop-color="#FFDE00"/>
</linearGradient>
</defs>
</svg>
