<svg width="30" height="30" viewBox="0 0 30 30" fill="none" xmlns="http://www.w3.org/2000/svg">
<g clip-path="url(#clip0_391_29883)">
<path d="M26.297 22.5931H24.1877L23.5315 21.1869L22.7816 22.5931H14.2509L13.5009 21.1869L12.8447 22.5931H8.62625V20.4839C8.62625 20.0901 8.31694 19.7808 7.92317 19.7808H7.22009L6.51701 18.3746L5.81393 19.7808H5.11085C4.71708 19.7808 4.40777 20.0901 4.40777 20.4839V22.5931H3.70469C3.31612 22.5931 3.00161 22.9076 3.00161 23.2962C3.00161 23.6847 3.31612 23.9993 3.70469 23.9993H26.297C26.6856 23.9993 27.0001 23.6847 27.0001 23.2962C27.0001 22.9076 26.6856 22.5931 26.297 22.5931ZM3.70469 9.93766H5.81393L6.51701 11.3438L7.22009 9.93766H9.32933C9.5403 9.93766 9.75122 9.83923 9.87773 9.67049C10.0183 9.50175 10.0605 9.27672 10.0183 9.06584L8.61214 3.4412C8.52768 3.1318 8.24654 2.90686 7.92312 2.90686H5.1108C4.78743 2.90686 4.50625 3.1318 4.42179 3.4412L3.01563 9.06584C2.97339 9.27672 3.01563 9.50175 3.1562 9.67049C3.2828 9.83918 3.49372 9.93766 3.70469 9.93766ZM12.1416 16.9685C12.5289 16.9685 12.8447 17.2836 12.8447 17.6715V19.0777C12.8447 19.4663 13.1592 19.7808 13.5478 19.7808H23.4847C23.8733 19.7808 24.1877 19.4663 24.1877 19.0777V17.6715C24.1877 17.2836 24.5036 16.9685 24.8908 16.9685C25.2794 16.9685 25.5939 16.654 25.5939 16.2654V12.0469C25.5939 10.8838 24.6477 9.93766 23.4847 9.93766H13.5478C12.3847 9.93766 11.4386 10.8838 11.4386 12.0469V16.2654C11.4386 16.654 11.753 16.9685 12.1416 16.9685Z" fill="url(#paint0_linear_391_29883)"/>
<path d="M5.81396 19.7808H7.22012V9.93765H5.81396V19.7808ZM13.5478 8.53149H23.4847C23.8733 8.53149 24.1878 8.21703 24.1878 7.82841V0.703873C24.1878 0.315258 23.8733 0.000793457 23.4847 0.000793457H13.5478C13.1592 0.000793457 12.8448 0.315258 12.8448 0.703873V7.82841C12.8448 8.21703 13.1592 8.53149 13.5478 8.53149ZM26.297 15.5623H25.5939C24.8173 15.5623 24.1878 16.1918 24.1878 16.9685V17.6715C24.1878 18.0596 23.8728 18.3746 23.4847 18.3746H13.5478C13.1597 18.3746 12.8448 18.0596 12.8448 17.6715V16.9685C12.8448 16.1918 12.2153 15.5623 11.4386 15.5623H10.7355C10.3474 15.5623 10.0324 15.8773 10.0324 16.2654V18.3746C10.0324 19.9279 11.2914 21.1869 12.8448 21.1869V22.5931H14.2509V21.1869H22.7816V22.5931H24.1878V21.1869C25.7411 21.1869 27.0001 19.9279 27.0001 18.3746V16.2654C27.0001 15.8772 26.6851 15.5623 26.297 15.5623Z" fill="url(#paint1_linear_391_29883)"/>
</g>
<ellipse cx="15" cy="29" rx="15" ry="1" fill="#FFFACA"/>
<defs>
<linearGradient id="paint0_linear_391_29883" x1="15.0001" y1="23.9992" x2="15.0001" y2="2.90686" gradientUnits="userSpaceOnUse">
<stop stop-color="#FD5900"/>
<stop offset="1" stop-color="#FFDE00"/>
</linearGradient>
<linearGradient id="paint1_linear_391_29883" x1="16.407" y1="22.5931" x2="16.407" y2="0.000793457" gradientUnits="userSpaceOnUse">
<stop stop-color="#FFE59A"/>
<stop offset="1" stop-color="#FFFFD5"/>
</linearGradient>
<clipPath id="clip0_391_29883">
<rect width="24" height="24" fill="white" transform="translate(3)"/>
</clipPath>
</defs>
</svg>
