<svg width="31" height="30" viewBox="0 0 31 30" fill="none" xmlns="http://www.w3.org/2000/svg">
<g clip-path="url(#clip0_391_29889)">
<path d="M27.5 9.9375L23.9844 8.53125L21.875 10.6406V12.0469C21.875 11.6531 21.5657 11.3438 21.1719 11.3438H19.0156L15.5 9.9375L11.9844 11.3438H9.82812C9.43433 11.3438 9.125 11.6531 9.125 12.0469V10.6406L7.01562 8.53125L3.5 9.9375V11.3438L5.25781 12.0469L3.5 12.75V14.1562L5.25781 14.8594L3.5 15.5625V16.9688L5.25781 17.6719L3.5 18.375V19.7812L7.01562 21.1875L9.125 19.0781V22.5938C9.125 23.3672 9.75777 24 10.5312 24H11.9844C12.7579 24 13.3906 23.3672 13.3906 22.5938V21.1875H17.6094V22.5938C17.6094 23.3672 18.2421 24 19.0156 24H20.4688C21.2422 24 21.875 23.3672 21.875 22.5938V19.0781L23.9844 21.1875L27.5 19.7812V18.375L25.7422 17.6719L27.5 16.9688V15.5625L25.7422 14.8594L27.5 14.1562V12.75L25.7422 12.0469L27.5 11.3438V9.9375ZM5.60938 7.125H8.42188C8.81567 7.125 9.125 6.81558 9.125 6.42188V3.60938C9.125 3.21558 8.81567 2.90625 8.42188 2.90625H7.71875L7.01562 1.40625L6.3125 2.90625H5.60938C5.21558 2.90625 4.90625 3.21558 4.90625 3.60938V6.42188C4.90625 6.81558 5.21558 7.125 5.60938 7.125ZM22.5781 7.125H25.3906C25.7844 7.125 26.0938 6.81558 26.0938 6.42188V3.60938C26.0938 3.21558 25.7844 2.90625 25.3906 2.90625H24.6875L23.9844 1.40625L23.2812 2.90625H22.5781C22.1843 2.90625 21.875 3.21558 21.875 3.60938V6.42188C21.875 6.81558 22.1843 7.125 22.5781 7.125Z" fill="url(#paint0_linear_391_29889)"/>
<path d="M9.82812 5.71875H4.20312C3.80933 5.71875 3.5 6.02808 3.5 6.42188V9.9375H7.01562C7.40942 9.9375 7.71875 10.2468 7.71875 10.6406C7.71875 11.0343 7.40942 11.3438 7.01562 11.3438H3.5V12.75H7.01562C7.40942 12.75 7.71875 13.0593 7.71875 13.4531C7.71875 13.8468 7.40942 14.1562 7.01562 14.1562H3.5V15.5625H7.01562C7.40942 15.5625 7.71875 15.8718 7.71875 16.2656C7.71875 16.6593 7.40942 16.9688 7.01562 16.9688H3.5V18.375H7.01562C7.40942 18.375 7.71875 18.6843 7.71875 19.0781C7.71875 19.4718 7.40942 19.7812 7.01562 19.7812H3.5V23.2969C3.5 23.6906 3.80933 24 4.20312 24H10.5312V6.42188C10.5312 6.02808 10.2219 5.71875 9.82812 5.71875ZM23.9844 9.9375H27.5V6.42188C27.5 6.02808 27.1907 5.71875 26.7969 5.71875H21.1719C20.7781 5.71875 20.4688 6.02808 20.4688 6.42188V24H26.7969C27.1907 24 27.5 23.6906 27.5 23.2969V19.7812H23.9844C23.5906 19.7812 23.2812 19.4718 23.2812 19.0781C23.2812 18.6843 23.5906 18.375 23.9844 18.375H27.5V16.9688H23.9844C23.5906 16.9688 23.2812 16.6593 23.2812 16.2656C23.2812 15.8718 23.5906 15.5625 23.9844 15.5625H27.5V14.1562H23.9844C23.5906 14.1562 23.2812 13.8468 23.2812 13.4531C23.2812 13.0593 23.5906 12.75 23.9844 12.75H27.5V11.3438H23.9844C23.5906 11.3438 23.2812 11.0343 23.2812 10.6406C23.2812 10.2468 23.5906 9.9375 23.9844 9.9375ZM7.71875 0.703125C7.71875 0.309328 7.40942 0 7.01562 0C6.62183 0 6.3125 0.309328 6.3125 0.703125V2.90625H7.71875V0.703125ZM24.6875 0.703125C24.6875 0.309328 24.3782 0 23.9844 0C23.5906 0 23.2812 0.309328 23.2812 0.703125V2.90625H24.6875V0.703125ZM18.3125 8.53125H12.6875C12.2937 8.53125 11.9844 8.84058 11.9844 9.23438V11.3438H19.0156V9.23438C19.0156 8.84058 18.7063 8.53125 18.3125 8.53125ZM18.3125 19.7812H12.6875C12.2992 19.7812 11.9844 20.0961 11.9844 20.4844V24H19.0156V20.4844C19.0156 20.0961 18.7008 19.7812 18.3125 19.7812ZM18.3125 16.9688H12.6875C12.2989 16.9688 11.9844 17.2832 11.9844 17.6719C11.9844 18.0605 12.2989 18.375 12.6875 18.375H18.3125C18.7011 18.375 19.0156 18.0605 19.0156 17.6719C19.0156 17.2832 18.7011 16.9688 18.3125 16.9688ZM18.3125 14.1562H12.6875C12.2989 14.1562 11.9844 14.4707 11.9844 14.8594C11.9844 15.248 12.2989 15.5625 12.6875 15.5625H18.3125C18.7011 15.5625 19.0156 15.248 19.0156 14.8594C19.0156 14.4707 18.7011 14.1562 18.3125 14.1562Z" fill="url(#paint1_linear_391_29889)"/>
</g>
<ellipse cx="15.5" cy="29" rx="15" ry="1" fill="#EBFFF2"/>
<defs>
<linearGradient id="paint0_linear_391_29889" x1="15.5" y1="24" x2="15.5" y2="1.40625" gradientUnits="userSpaceOnUse">
<stop stop-color="#C3FFE8"/>
<stop offset="1" stop-color="#F0FFF4"/>
</linearGradient>
<linearGradient id="paint1_linear_391_29889" x1="15.5" y1="24" x2="15.5" y2="0" gradientUnits="userSpaceOnUse">
<stop stop-color="#00B59C"/>
<stop offset="1" stop-color="#9CFFAC"/>
</linearGradient>
<clipPath id="clip0_391_29889">
<rect width="24" height="24" fill="white" transform="translate(3.5)"/>
</clipPath>
</defs>
</svg>
