<svg width="30" height="30" viewBox="0 0 30 30" fill="none" xmlns="http://www.w3.org/2000/svg">
<g clip-path="url(#clip0_391_29884)">
<path d="M24.8438 1.5H23.4375C23.0492 1.5 22.7344 1.81472 22.7344 2.20312V6.95086L22.9665 7.125H21.8063C21.3422 7.125 20.8922 6.97031 20.5407 6.70312L15 2.28502L9.45938 6.70312C9.10781 6.97031 8.65781 7.125 8.19375 7.125H4.45312V22.5938L15 23.2969L25.5469 22.5938V2.20312C25.5469 1.81472 25.2321 1.5 24.8438 1.5Z" fill="url(#paint0_linear_391_29884)"/>
<path d="M26.2969 5.71852H22.7319C22.5797 5.71852 22.4317 5.66916 22.31 5.57785L15.422 0.140486C15.1719 -0.0471543 14.8281 -0.0471543 14.578 0.140486L7.69209 5.57775C7.57036 5.66906 7.42223 5.71852 7.27008 5.71852H3.70312C3.31481 5.71852 3 6.03324 3 6.42164V7.82789C3 8.2162 3.31481 8.53102 3.70312 8.53102H8.19867C8.35069 8.53102 8.49867 8.48166 8.62036 8.39049L14.5783 3.6555C14.8282 3.46824 15.1718 3.46824 15.4217 3.6555L21.3796 8.39049C21.5013 8.48166 21.6493 8.53102 21.8013 8.53102H26.2969C26.6852 8.53102 27 8.2162 27 7.82789V6.42164C27 6.03324 26.6852 5.71852 26.2969 5.71852ZM26.2969 22.5935H3.70312C3.30933 22.5935 3 22.9028 3 23.2966C3 23.6903 3.30933 23.9998 3.70312 23.9998H26.2969C26.6907 23.9998 27 23.6903 27 23.2966C27 22.9028 26.6907 22.5935 26.2969 22.5935ZM15 11.3435C14.6114 11.3435 14.2969 11.658 14.2969 12.0466V15.6443C13.4025 14.7287 12.159 14.156 10.7812 14.156H10.0781C9.68948 14.156 9.375 14.4705 9.375 14.8591C9.375 17.5728 11.5832 19.781 14.2969 19.781V20.4841C14.2969 20.8728 14.6114 21.1873 15 21.1873C15.3886 21.1873 15.7031 20.8728 15.7031 20.4841V16.9685C18.4168 16.9685 20.625 14.7603 20.625 12.0466C20.625 11.658 20.3105 11.3435 19.9219 11.3435H19.2188C17.841 11.3435 16.5975 11.9162 15.7031 12.8318V12.0466C15.7031 11.658 15.3886 11.3435 15 11.3435Z" fill="url(#paint1_linear_391_29884)"/>
</g>
<ellipse cx="15" cy="29" rx="15" ry="1" fill="#E0F1FF"/>
<defs>
<linearGradient id="paint0_linear_391_29884" x1="15" y1="23.2969" x2="15" y2="1.5" gradientUnits="userSpaceOnUse">
<stop stop-color="#5558FF"/>
<stop offset="1" stop-color="#00C0FF"/>
</linearGradient>
<linearGradient id="paint1_linear_391_29884" x1="15" y1="23.9998" x2="15" y2="-0.000232697" gradientUnits="userSpaceOnUse">
<stop stop-color="#ADDCFF"/>
<stop offset="1" stop-color="#EAF6FF"/>
</linearGradient>
<clipPath id="clip0_391_29884">
<rect width="24" height="24" fill="white" transform="translate(3)"/>
</clipPath>
</defs>
</svg>
