<svg width="30" height="30" viewBox="0 0 30 30" fill="none" xmlns="http://www.w3.org/2000/svg">
<g clip-path="url(#clip0_4591_25977)">
<path d="M15 30C23.2843 30 30 23.2843 30 15C30 6.71574 23.2843 0 15 0C6.71574 0 0 6.71574 0 15C0 23.2843 6.71574 30 15 30Z" fill="black"/>
<path d="M24.6173 9.03303C23.9098 9.34699 23.1499 9.55922 22.3509 9.65462C23.1663 9.16632 23.791 8.39255 24.086 7.47162C23.3114 7.93169 22.4636 8.25558 21.5796 8.42922C20.8601 7.66237 19.8342 7.18359 18.6992 7.18359C16.5207 7.18359 14.7538 8.94971 14.7538 11.1295C14.7538 11.4384 14.7886 11.7397 14.8555 12.029C11.5759 11.8642 8.66838 10.2933 6.7222 7.90624C6.38237 8.48922 6.18786 9.16704 6.18786 9.89024C6.18786 11.2591 6.88458 12.4668 7.94323 13.1743C7.31653 13.1548 6.70358 12.9857 6.15562 12.6809V12.7308C6.15562 14.6428 7.5156 16.2371 9.32089 16.5997C8.98926 16.6906 8.64123 16.7381 8.28118 16.7381C8.02661 16.7381 7.77964 16.714 7.53836 16.6686C8.04052 18.2358 9.49783 19.3765 11.2241 19.4088C9.87357 20.4674 8.17188 21.0985 6.32365 21.0985C6.00531 21.0985 5.6907 21.0795 5.38184 21.0422C7.1284 22.1622 9.20216 22.8159 11.4307 22.8159C18.6885 22.8159 22.6578 16.8032 22.6578 11.5888C22.6578 11.4176 22.6541 11.2477 22.6458 11.0784C23.4192 10.519 24.0868 9.82644 24.6173 9.03303Z" fill="white"/>
</g>
<defs>
<clipPath id="clip0_4591_25977">
<rect width="30" height="30" fill="white"/>
</clipPath>
</defs>
</svg>
