<svg width="30" height="30" viewBox="0 0 30 30" fill="none" xmlns="http://www.w3.org/2000/svg">
<path fill-rule="evenodd" clip-rule="evenodd" d="M15 1.25C7.25421 1.25 1.25 6.9238 1.25 14.5875C1.25 18.5961 2.89285 22.06 5.56827 24.4526C5.79286 24.6536 5.92844 24.9352 5.93765 25.2366L6.01253 27.6824C6.03646 28.4626 6.84232 28.9703 7.55622 28.6551L10.2854 27.4503C10.5168 27.3483 10.776 27.3293 11.0198 27.3964C12.2739 27.7413 13.6087 27.925 15 27.925C22.7458 27.925 28.75 22.2512 28.75 14.5875C28.75 6.9238 22.7458 1.25 15 1.25Z" fill="black"/>
<path fill-rule="evenodd" clip-rule="evenodd" d="M6.74287 18.4889L10.7819 12.0808C11.4244 11.0614 12.8002 10.8076 13.7643 11.5305L16.9767 13.9399C17.2715 14.161 17.677 14.1598 17.9705 13.9371L22.3091 10.6444C22.8882 10.2049 23.6441 10.8979 23.2566 11.5129L19.2175 17.921C18.575 18.9404 17.1991 19.1942 16.2352 18.4712L13.0226 16.0618C12.7279 15.8408 12.3223 15.8419 12.0289 16.0647L7.69025 19.3574C7.11118 19.7968 6.35526 19.1038 6.74287 18.4889Z" fill="white"/>
</svg>
