<svg width="30" height="30" viewBox="0 0 30 30" fill="none" xmlns="http://www.w3.org/2000/svg">
<rect width="30" height="30" rx="15" fill="black"/>
<path d="M21.4433 8.48592C20.1287 7.17136 17.9691 7.17136 16.6545 8.48592L12.523 12.5235C11.2085 13.932 11.2085 15.9977 12.523 17.4061C12.6169 17.5 12.8047 17.5939 12.8986 17.6878L14.3071 16.2794C14.2132 16.1855 14.0254 16.0916 13.9315 15.9977C13.3681 15.4343 13.3681 14.4953 13.9315 13.932L18.063 9.80048C18.6263 9.2371 19.5653 9.2371 20.1287 9.80048C20.6921 10.3639 20.6921 11.3028 20.1287 11.8662L18.908 13.0869C19.2836 13.8381 19.3775 14.6831 19.2836 15.4343L21.4433 13.2747C22.8517 11.9601 22.8517 9.80048 21.4433 8.48592Z" fill="white"/>
<path d="M17.0306 12.2402L15.6221 13.6487C15.6221 13.6487 15.9038 13.8365 15.9977 13.9304C16.5611 14.4938 16.5611 15.4327 15.9977 15.9961L11.8662 20.1276C11.3028 20.691 10.3639 20.691 9.80048 20.1276C9.2371 19.5642 9.2371 18.6252 9.80048 18.0619L11.0211 16.8412C10.6456 16.09 10.9272 15.6205 10.6456 14.4938L8.48592 16.6534C7.17136 17.968 7.17136 20.1276 8.48592 21.4422C9.80048 22.7567 11.9601 22.7567 13.2747 21.4422L17.4061 17.3107C18.7207 15.9961 18.7207 13.8365 17.4061 12.5219C17.2184 12.428 17.0306 12.2402 17.0306 12.2402Z" fill="white"/>
</svg>
