<svg width="30" height="30" viewBox="0 0 30 30" fill="none" xmlns="http://www.w3.org/2000/svg">
<path d="M22.3972 26.2467C22.0609 26.2458 21.7281 26.1761 21.418 26.0418C21.108 25.9074 20.8268 25.7111 20.5908 25.464L15 19.733L9.40915 25.4678C9.05009 25.8434 8.58961 26.0988 8.08773 26.2006C7.58585 26.3024 7.06586 26.246 6.59555 26.0386C6.12057 25.8417 5.71424 25.5016 5.42961 25.0628C5.14499 24.624 4.99531 24.1069 5.00011 23.579V8.43682C5.00011 7.1938 5.479 6.00169 6.33143 5.12274C7.18386 4.24379 8.34 3.75 9.54551 3.75L20.4545 3.75C21.0514 3.75 21.6425 3.87123 22.1939 4.10676C22.7454 4.3423 23.2465 4.68753 23.6686 5.12274C24.0906 5.55795 24.4254 6.07462 24.6539 6.64325C24.8823 7.21188 24.9999 7.82134 24.9999 8.43682V23.579C25.005 24.1064 24.8558 24.6232 24.5719 25.062C24.2879 25.5007 23.8824 25.8411 23.4081 26.0386C23.0879 26.1767 22.7442 26.2475 22.3972 26.2467ZM9.54551 5.62473C8.8222 5.62473 8.12852 5.921 7.61706 6.44837C7.10561 6.97574 6.81827 7.69101 6.81827 8.43682V23.579C6.81794 23.7352 6.86252 23.888 6.94636 24.0181C7.03021 24.1482 7.14956 24.2497 7.28935 24.3099C7.42914 24.3701 7.58309 24.3862 7.73175 24.3562C7.88042 24.3262 8.01713 24.2515 8.12462 24.1414V24.1414L14.3636 17.7477C14.534 17.5731 14.7644 17.4751 15.0045 17.4751C15.2447 17.4751 15.4751 17.5731 15.6454 17.7477L21.8772 24.1395C21.9847 24.2496 22.1214 24.3244 22.2701 24.3543C22.4187 24.3843 22.5727 24.3682 22.7125 24.308C22.8522 24.2478 22.9716 24.1463 23.0554 24.0162C23.1393 23.8861 23.1839 23.7333 23.1835 23.5771V8.43682C23.1835 7.69101 22.8962 6.97574 22.3847 6.44837C21.8733 5.921 21.1796 5.62473 20.4563 5.62473H9.54551Z" fill="#474747"/>
</svg>
