<svg width="22" height="22" viewBox="0 0 22 22" fill="none" xmlns="http://www.w3.org/2000/svg">
<path d="M9 14.3928V7.60724C9.00003 7.48713 9.03566 7.36973 9.1024 7.26987C9.16914 7.17001 9.26399 7.09219 9.37496 7.04623C9.48592 7.00027 9.60802 6.98824 9.72582 7.01166C9.84363 7.03509 9.95184 7.09291 10.0368 7.17783L13.4295 10.5706C13.5434 10.6845 13.6074 10.8389 13.6074 11C13.6074 11.1611 13.5434 11.3155 13.4295 11.4294L10.0368 14.8222C9.95184 14.9071 9.84363 14.9649 9.72582 14.9883C9.60802 15.0118 9.48592 14.9997 9.37496 14.9538C9.26399 14.9078 9.16914 14.83 9.1024 14.7301C9.03566 14.6303 9.00003 14.5129 9 14.3928Z" fill="white"/>
</svg>
