<svg width="20" height="21" viewBox="0 0 20 21" fill="none" xmlns="http://www.w3.org/2000/svg">
<g clip-path="url(#clip0_977_42187)">
<path d="M20.0004 19.666C20.0004 19.887 19.9126 20.099 19.7563 20.2552C19.6 20.4115 19.388 20.4993 19.167 20.4993H0.8337C0.612686 20.4993 0.400724 20.4115 0.244444 20.2552C0.0881638 20.099 0.000366386 19.887 0.000366386 19.666C0.000366386 19.445 0.0881638 19.233 0.244444 19.0767C0.400724 18.9204 0.612686 18.8326 0.8337 18.8326H19.167C19.388 18.8326 19.6 18.9204 19.7563 19.0767C19.9126 19.233 20.0004 19.445 20.0004 19.666ZM0.242866 7.62598C0.0633016 7.29292 -0.0198881 6.9164 0.00263341 6.53869C0.0251549 6.16097 0.152496 5.79701 0.370366 5.48765C0.726415 4.96524 1.20324 4.53645 1.76037 4.23765L8.0112 0.984314C8.62558 0.664839 9.30788 0.498047 10.0004 0.498047C10.6928 0.498047 11.3751 0.664839 11.9895 0.984314L18.2395 4.24015C18.7967 4.53895 19.2735 4.96774 19.6295 5.49015C19.8474 5.79951 19.9747 6.16348 19.9973 6.54119C20.0198 6.9189 19.9366 7.29542 19.757 7.62848C19.5637 7.99417 19.2738 8.29982 18.9188 8.51214C18.5638 8.72446 18.1573 8.83532 17.7437 8.83265H17.5004V15.4993H18.3337C18.5547 15.4993 18.7667 15.5871 18.923 15.7434C19.0792 15.8997 19.167 16.1116 19.167 16.3326C19.167 16.5537 19.0792 16.7656 18.923 16.9219C18.7667 17.0782 18.5547 17.166 18.3337 17.166H1.66703C1.44602 17.166 1.23406 17.0782 1.07778 16.9219C0.921497 16.7656 0.8337 16.5537 0.8337 16.3326C0.8337 16.1116 0.921497 15.8997 1.07778 15.7434C1.23406 15.5871 1.44602 15.4993 1.66703 15.4993H2.50037V8.83265H2.25703C1.843 8.83523 1.4362 8.72407 1.08102 8.51128C0.725843 8.2985 0.435915 7.99226 0.242866 7.62598ZM4.16703 15.4993H6.66703V8.83265H4.16703V15.4993ZM8.3337 8.83265V15.4993H11.667V8.83265H8.3337ZM15.8337 8.83265H13.3337V15.4993H15.8337V8.83265ZM1.71953 6.85348C1.77182 6.94988 1.84963 7.03003 1.94443 7.08515C2.03924 7.14027 2.14739 7.16823 2.25703 7.16598H17.7437C17.8533 7.16823 17.9615 7.14027 18.0563 7.08515C18.1511 7.03003 18.2289 6.94988 18.2812 6.85348C18.3193 6.78978 18.3377 6.71625 18.3341 6.64213C18.3306 6.568 18.3052 6.49657 18.2612 6.43681C18.0593 6.13674 17.788 5.88976 17.4704 5.71681L11.2204 2.46098C10.8437 2.2655 10.4256 2.16346 10.0012 2.16346C9.57683 2.16346 9.15869 2.2655 8.78203 2.46098L2.53203 5.71681C2.21452 5.89032 1.94331 6.13753 1.7412 6.43765C1.69711 6.49715 1.67153 6.56834 1.66768 6.6423C1.66383 6.71626 1.68186 6.78971 1.71953 6.85348Z" fill="#474747"/>
</g>
<defs>
<clipPath id="clip0_977_42187">
<rect width="20" height="20" fill="white" transform="translate(0 0.5)"/>
</clipPath>
</defs>
</svg>
