<svg width="14" height="14" viewBox="0 0 14 14" fill="none" xmlns="http://www.w3.org/2000/svg">
<path d="M10.243 12.2498C10.1497 12.2502 10.0576 12.2282 9.97462 12.1856L6.99962 10.6281L4.02462 12.1856C3.92801 12.2364 3.8191 12.2591 3.71025 12.2511C3.6014 12.2431 3.49698 12.2047 3.40887 12.1402C3.32076 12.0758 3.25248 11.988 3.21181 11.8867C3.17114 11.7854 3.15969 11.6748 3.17878 11.5673L3.76212 8.28313L1.35878 5.94979C1.2838 5.87497 1.23061 5.78113 1.20492 5.67836C1.17922 5.5756 1.182 5.46777 1.21295 5.36646C1.24676 5.26279 1.30895 5.17067 1.39247 5.10055C1.47599 5.03044 1.57749 4.98514 1.68545 4.96979L5.01045 4.48563L6.47462 1.49313C6.52238 1.3945 6.59696 1.31133 6.68982 1.25313C6.78267 1.19493 6.89003 1.16406 6.99962 1.16406C7.1092 1.16406 7.21657 1.19493 7.30942 1.25313C7.40227 1.31133 7.47685 1.3945 7.52462 1.49313L9.00628 4.47979L12.3313 4.96396C12.4392 4.97931 12.5407 5.0246 12.6243 5.09472C12.7078 5.16483 12.77 5.25695 12.8038 5.36063C12.8347 5.46194 12.8375 5.56976 12.8118 5.67253C12.7861 5.7753 12.7329 5.86913 12.658 5.94396L10.2546 8.27729L10.838 11.5615C10.8588 11.6708 10.8479 11.7839 10.8065 11.8872C10.7652 11.9906 10.6951 12.08 10.6046 12.1448C10.499 12.2188 10.3718 12.2557 10.243 12.2498Z" fill="#CCCCCC"/>
</svg>
