<svg width="24" height="24" viewBox="0 0 24 24" fill="none" xmlns="http://www.w3.org/2000/svg">
<path d="M13.6492 6.44694C14.4909 6.61115 15.2644 7.0228 15.8708 7.62918C16.4772 8.23556 16.8888 9.0091 17.0531 9.85078L13.6492 6.44694ZM13.6492 3C15.3979 3.19427 17.0286 3.97736 18.2735 5.22069C19.5184 6.46403 20.3035 8.09372 20.5 9.84217L13.6492 3ZM19.6383 16.7188V19.304C19.6392 19.544 19.5901 19.7816 19.4939 20.0014C19.3978 20.2213 19.2568 20.4187 19.0799 20.581C18.9031 20.7432 18.6943 20.8667 18.467 20.9436C18.2396 21.0205 17.9987 21.0491 17.7597 21.0275C15.108 20.7393 12.5608 19.8332 10.3229 18.382C8.24082 17.0589 6.47557 15.2936 5.15252 13.2115C3.69617 10.9635 2.78985 8.40393 2.50699 5.74031C2.48546 5.50202 2.51378 5.26185 2.59015 5.03509C2.66652 4.80834 2.78927 4.59997 2.95059 4.42326C3.1119 4.24654 3.30824 4.10535 3.52711 4.00868C3.74598 3.912 3.98258 3.86196 4.22185 3.86173H6.80705C7.22525 3.85762 7.63069 4.00571 7.94778 4.27841C8.26487 4.55111 8.47198 4.92981 8.53051 5.34392C8.63963 6.17124 8.84199 6.98356 9.13373 7.76539C9.24967 8.07382 9.27476 8.40903 9.20603 8.73129C9.13731 9.05355 8.97764 9.34935 8.74595 9.58365L7.65155 10.678C8.87827 12.8354 10.6646 14.6217 12.822 15.8485L13.9164 14.7541C14.1506 14.5224 14.4465 14.3627 14.7687 14.294C15.091 14.2252 15.4262 14.2503 15.7346 14.3663C16.5164 14.658 17.3288 14.8604 18.1561 14.9695C18.5747 15.0285 18.957 15.2394 19.2303 15.5619C19.5035 15.8845 19.6488 16.2962 19.6383 16.7188Z" stroke="#EB5155" stroke-width="2" stroke-linecap="round" stroke-linejoin="round"/>
</svg>
