<svg width="176" height="31" viewBox="0 0 176 31" fill="none" xmlns="http://www.w3.org/2000/svg">
<path d="M0 20.6243L11.9046 0H15.8207L27.7775 20.6243L25.5323 24.4881L13.8888 4.38592L2.19296 24.4881L0 20.6243Z" fill="white"/>
<path d="M4.02043 27.6209L13.8888 10.5993L16.1339 14.5153L9.24177 26.5244H18.6402L15.7684 21.4075L18.0136 17.7003L23.8093 27.6209L22.2429 30.336H5.58683L4.02043 27.6209Z" fill="white"/>
<path d="M40.1246 16.1576H37.2722L37.2569 14.644H39.6518C40.0738 14.644 40.4195 14.5925 40.689 14.4896C40.9585 14.3819 41.1593 14.2276 41.2915 14.0267C41.4288 13.821 41.4974 13.5711 41.4974 13.2772C41.4974 12.9441 41.4313 12.6747 41.2991 12.4689C41.172 12.2632 40.9712 12.1138 40.6966 12.0207C40.4271 11.9276 40.0789 11.8811 39.6518 11.8811H38.0654V20.853H35.7773V10.1543H39.6518C40.2975 10.1543 40.8746 10.2131 41.383 10.3307C41.8966 10.4482 42.3313 10.627 42.6872 10.8671C43.0431 11.1071 43.3152 11.4108 43.5033 11.7782C43.6914 12.1407 43.7855 12.5718 43.7855 13.0715C43.7855 13.5124 43.6812 13.9189 43.4728 14.2912C43.2694 14.6635 42.9465 14.9673 42.5042 15.2024C42.0669 15.4375 41.4949 15.5674 40.7881 15.5919L40.1246 16.1576ZM40.0255 20.853H36.6468L37.5391 19.1336H40.0255C40.4271 19.1336 40.7551 19.0724 41.0093 18.9499C41.2636 18.8225 41.4517 18.6511 41.5737 18.4355C41.6957 18.22 41.7568 17.9726 41.7568 17.6934C41.7568 17.3799 41.7008 17.108 41.589 16.8778C41.4822 16.6475 41.3093 16.4712 41.0703 16.3487C40.8314 16.2213 40.5161 16.1576 40.1246 16.1576H37.9205L37.9357 14.644H40.6814L41.2076 15.2391C41.8839 15.2293 42.4279 15.3445 42.8398 15.5845C43.2567 15.8196 43.5592 16.1258 43.7473 16.503C43.9406 16.8802 44.0372 17.2843 44.0372 17.7154C44.0372 18.4012 43.8821 18.9793 43.5719 19.4496C43.2618 19.9149 42.8067 20.2652 42.2067 20.5003C41.6118 20.7355 40.8848 20.853 40.0255 20.853Z" fill="white"/>
<path d="M50.2683 11.984L47.248 20.853H44.8151L48.9412 10.1543H50.4894L50.2683 11.984ZM52.7775 20.853L49.7496 11.984L49.5056 10.1543H51.0691L55.218 20.853H52.7775ZM52.6402 16.8704V18.5972H46.7752V16.8704H52.6402Z" fill="white"/>
<path d="M60.267 10.1543V20.853H57.9866V10.1543H60.267ZM63.6838 10.1543V11.8811H54.6232V10.1543H63.6838Z" fill="white"/>
<path d="M68.3971 20.853H65.9795L65.9947 19.1336H68.3971C68.9971 19.1336 69.503 19.0038 69.9149 18.7442C70.3267 18.4796 70.6369 18.0951 70.8453 17.5905C71.0589 17.0859 71.1657 16.4761 71.1657 15.7609V15.2391C71.1657 14.6905 71.1047 14.208 70.9826 13.7916C70.8657 13.3752 70.6903 13.0249 70.4564 12.7408C70.2225 12.4567 69.9352 12.2436 69.5946 12.1015C69.2539 11.9546 68.8624 11.8811 68.42 11.8811H65.9337V10.1543H68.42C69.1624 10.1543 69.8412 10.2768 70.4564 10.5217C71.0767 10.7617 71.6131 11.1071 72.0656 11.5578C72.5182 12.0085 72.8665 12.5473 73.1105 13.1743C73.3597 13.7965 73.4842 14.4896 73.4842 15.2538V15.7609C73.4842 16.5202 73.3597 17.2133 73.1105 17.8403C72.8665 18.4674 72.5182 19.0062 72.0656 19.4569C71.6182 19.9027 71.0818 20.2481 70.4564 20.493C69.8361 20.733 69.1497 20.853 68.3971 20.853ZM67.276 10.1543V20.853H64.988V10.1543H67.276Z" fill="white"/>
<path d="M84.2685 15.2538V15.7609C84.2685 16.574 84.1541 17.3039 83.9253 17.9506C83.6965 18.5972 83.3736 19.1483 82.9567 19.6039C82.5398 20.0546 82.0415 20.3999 81.4618 20.6399C80.8873 20.88 80.2492 21 79.5475 21C78.8509 21 78.2128 20.88 77.6332 20.6399C77.0586 20.3999 76.5604 20.0546 76.1383 19.6039C75.7163 19.1483 75.3884 18.5972 75.1545 17.9506C74.9257 17.3039 74.8113 16.574 74.8113 15.7609V15.2538C74.8113 14.4358 74.9257 13.7059 75.1545 13.0641C75.3833 12.4175 75.7062 11.8664 76.1231 11.4108C76.5451 10.9552 77.0434 10.6074 77.6179 10.3674C78.1976 10.1274 78.8357 10.0073 79.5323 10.0073C80.2339 10.0073 80.872 10.1274 81.4466 10.3674C82.0262 10.6074 82.5245 10.9552 82.9414 11.4108C83.3635 11.8664 83.6889 12.4175 83.9177 13.0641C84.1516 13.7059 84.2685 14.4358 84.2685 15.2538ZM81.9576 15.7609V15.2391C81.9576 14.6709 81.9042 14.1712 81.7974 13.7401C81.6907 13.3091 81.533 12.9466 81.3246 12.6526C81.1161 12.3587 80.8619 12.1383 80.5619 11.9913C80.2619 11.8395 79.9187 11.7635 79.5323 11.7635C79.1458 11.7635 78.8026 11.8395 78.5027 11.9913C78.2077 12.1383 77.9561 12.3587 77.7476 12.6526C77.5442 12.9466 77.3891 13.3091 77.2824 13.7401C77.1756 14.1712 77.1222 14.6709 77.1222 15.2391V15.7609C77.1222 16.3242 77.1756 16.8239 77.2824 17.2599C77.3891 17.6909 77.5468 18.0559 77.7552 18.3547C77.9637 18.6486 78.2179 18.8715 78.5179 19.0234C78.8179 19.1752 79.1611 19.2512 79.5475 19.2512C79.9339 19.2512 80.2772 19.1752 80.5771 19.0234C80.8771 18.8715 81.1288 18.6486 81.3322 18.3547C81.5356 18.0559 81.6907 17.6909 81.7974 17.2599C81.9042 16.8239 81.9576 16.3242 81.9576 15.7609Z" fill="white"/>
<path d="M94.9537 10.1543V20.853H92.6656L88.2039 13.6814V20.853H85.9159V10.1543H88.2039L92.6732 17.3333V10.1543H94.9537Z" fill="white"/>
<path d="M105.746 15.2612V19.501C105.573 19.7018 105.306 19.9198 104.945 20.155C104.584 20.3852 104.119 20.5836 103.549 20.7502C102.98 20.9167 102.291 21 101.482 21C100.765 21 100.112 20.8873 99.5221 20.662C98.9323 20.4318 98.4238 20.0962 97.9967 19.6553C97.5747 19.2144 97.2493 18.6756 97.0205 18.0387C96.7917 17.397 96.6773 16.6647 96.6773 15.8417V15.173C96.6773 14.35 96.7866 13.6177 97.0053 12.976C97.229 12.3342 97.5468 11.7929 97.9586 11.352C98.3705 10.9112 98.8611 10.5756 99.4306 10.3454C100 10.1151 100.633 10 101.33 10C102.296 10 103.089 10.1519 103.709 10.4556C104.33 10.7544 104.802 11.1708 105.128 11.7047C105.458 12.2338 105.662 12.8412 105.738 13.5271H103.519C103.463 13.1646 103.356 12.8486 103.198 12.5792C103.041 12.3097 102.814 12.0991 102.519 11.9472C102.23 11.7954 101.853 11.7194 101.391 11.7194C101.009 11.7194 100.669 11.7954 100.369 11.9472C100.074 12.0942 99.8246 12.3122 99.6212 12.6012C99.4179 12.8902 99.2628 13.2478 99.156 13.674C99.0492 14.1002 98.9959 14.595 98.9959 15.1583V15.8417C98.9959 16.4001 99.0518 16.8949 99.1636 17.326C99.2755 17.7522 99.4407 18.1122 99.6594 18.4061C99.8831 18.6952 100.158 18.9132 100.483 19.0601C100.808 19.2071 101.187 19.2806 101.619 19.2806C101.98 19.2806 102.28 19.2512 102.519 19.1924C102.763 19.1336 102.959 19.0626 103.107 18.9793C103.259 18.8911 103.376 18.8078 103.458 18.7295V16.8337H101.368V15.2612H105.746Z" fill="white"/>
<path d="M113.372 18.0534C113.372 17.8624 113.342 17.6909 113.281 17.5391C113.225 17.3823 113.118 17.2403 112.961 17.1129C112.803 16.9806 112.582 16.8508 112.297 16.7234C112.012 16.5961 111.644 16.4638 111.191 16.3267C110.688 16.1699 110.21 15.9935 109.757 15.7976C109.31 15.6016 108.913 15.3739 108.567 15.1142C108.227 14.8497 107.957 14.5435 107.759 14.1957C107.566 13.8479 107.469 13.4438 107.469 12.9833C107.469 12.5375 107.571 12.1334 107.774 11.7709C107.978 11.4035 108.262 11.09 108.628 10.8303C108.995 10.5658 109.427 10.3625 109.925 10.2204C110.428 10.0784 110.98 10.0073 111.58 10.0073C112.399 10.0073 113.113 10.1494 113.723 10.4335C114.333 10.7177 114.806 11.1071 115.142 11.6019C115.482 12.0966 115.653 12.6624 115.653 13.2993H113.38C113.38 12.9857 113.311 12.7114 113.174 12.4763C113.042 12.2363 112.838 12.0477 112.564 11.9105C112.294 11.7733 111.954 11.7047 111.542 11.7047C111.145 11.7047 110.815 11.7635 110.55 11.8811C110.286 11.9938 110.088 12.1481 109.956 12.344C109.823 12.5351 109.757 12.7506 109.757 12.9906C109.757 13.1719 109.803 13.336 109.895 13.483C109.991 13.6299 110.134 13.7671 110.322 13.8945C110.51 14.0218 110.741 14.1418 111.016 14.2545C111.29 14.3672 111.608 14.4774 111.969 14.5852C112.574 14.7615 113.105 14.9599 113.563 15.1804C114.026 15.4008 114.412 15.6482 114.722 15.9225C115.032 16.1968 115.266 16.5079 115.424 16.8557C115.582 17.2035 115.66 17.5979 115.66 18.0387C115.66 18.5041 115.566 18.9205 115.378 19.2879C115.19 19.6553 114.918 19.9664 114.562 20.2211C114.206 20.4758 113.782 20.6693 113.288 20.8016C112.795 20.9339 112.244 21 111.633 21C111.084 21 110.543 20.9314 110.009 20.7943C109.475 20.6522 108.989 20.4391 108.552 20.155C108.12 19.8709 107.774 19.5084 107.515 19.0675C107.256 18.6266 107.126 18.1049 107.126 17.5023H109.422C109.422 17.8354 109.475 18.1171 109.582 18.3474C109.689 18.5776 109.839 18.7637 110.032 18.9058C110.23 19.0479 110.464 19.1507 110.733 19.2144C111.008 19.2781 111.308 19.31 111.633 19.31C112.03 19.31 112.355 19.2561 112.61 19.1483C112.869 19.0405 113.06 18.8911 113.182 18.7001C113.309 18.509 113.372 18.2935 113.372 18.0534Z" fill="white"/>
<path d="M121.731 11.984L118.711 20.853H116.278L120.404 10.1543H121.953L121.731 11.984ZM124.241 20.853L121.213 11.984L120.969 10.1543H122.532L126.681 20.853H124.241ZM124.103 16.8704V18.5972H118.238V16.8704H124.103Z" fill="white"/>
<path d="M136.748 10.1543V20.853H134.46L129.999 13.6814V20.853H127.711V10.1543H129.999L134.468 17.3333V10.1543H136.748Z" fill="white"/>
<path d="M140.76 14.5852H141.935C142.311 14.5852 142.621 14.5239 142.865 14.4015C143.109 14.2741 143.29 14.0978 143.407 13.8724C143.529 13.6422 143.59 13.3752 143.59 13.0715C143.59 12.7971 143.534 12.5547 143.422 12.344C143.315 12.1285 143.15 11.9619 142.926 11.8444C142.702 11.7219 142.42 11.6607 142.08 11.6607C141.81 11.6607 141.561 11.7121 141.332 11.815C141.103 11.9178 140.92 12.0623 140.783 12.2485C140.646 12.4346 140.577 12.66 140.577 12.9245H138.373C138.373 12.3367 138.536 11.8248 138.861 11.3888C139.192 10.9528 139.634 10.6123 140.188 10.3674C140.742 10.1225 141.353 10 142.019 10C142.771 10 143.43 10.1176 143.994 10.3527C144.558 10.5829 144.998 10.9234 145.313 11.3741C145.629 11.8248 145.786 12.3832 145.786 13.0494C145.786 13.3874 145.705 13.7157 145.542 14.0341C145.379 14.3476 145.146 14.6317 144.841 14.8864C144.541 15.1363 144.174 15.3371 143.742 15.489C143.31 15.6359 142.825 15.7094 142.286 15.7094H140.76V14.5852ZM140.76 16.1944V15.0995H142.286C142.891 15.0995 143.422 15.1657 143.88 15.2979C144.337 15.4302 144.721 15.6212 145.031 15.8711C145.341 16.116 145.575 16.4075 145.733 16.7455C145.89 17.0786 145.969 17.4485 145.969 17.855C145.969 18.3547 145.87 18.8005 145.672 19.1924C145.474 19.5794 145.194 19.9076 144.833 20.177C144.477 20.4464 144.06 20.6522 143.582 20.7943C143.104 20.9314 142.583 21 142.019 21C141.551 21 141.091 20.9388 140.638 20.8163C140.191 20.6889 139.784 20.5003 139.418 20.2505C139.057 19.9958 138.767 19.6774 138.548 19.2953C138.335 18.9083 138.228 18.4502 138.228 17.9212H140.432C140.432 18.1955 140.503 18.4404 140.646 18.656C140.788 18.8715 140.984 19.0405 141.233 19.163C141.487 19.2855 141.769 19.3467 142.08 19.3467C142.43 19.3467 142.73 19.2855 142.98 19.163C143.234 19.0356 143.427 18.8593 143.559 18.6339C143.697 18.4037 143.765 18.1367 143.765 17.833C143.765 17.4411 143.691 17.1276 143.544 16.8925C143.397 16.6524 143.186 16.4761 142.911 16.3634C142.636 16.2507 142.311 16.1944 141.935 16.1944H140.76Z" fill="white"/>
<path d="M153.489 18.0534C153.489 17.8624 153.459 17.6909 153.398 17.5391C153.342 17.3823 153.235 17.2403 153.077 17.1129C152.92 16.9806 152.699 16.8508 152.414 16.7234C152.129 16.5961 151.761 16.4638 151.308 16.3267C150.805 16.1699 150.327 15.9935 149.874 15.7976C149.427 15.6016 149.03 15.3739 148.684 15.1142C148.344 14.8497 148.074 14.5435 147.876 14.1957C147.683 13.8479 147.586 13.4438 147.586 12.9833C147.586 12.5375 147.688 12.1334 147.891 11.7709C148.095 11.4035 148.379 11.09 148.745 10.8303C149.112 10.5658 149.544 10.3625 150.042 10.2204C150.545 10.0784 151.097 10.0073 151.697 10.0073C152.516 10.0073 153.23 10.1494 153.84 10.4335C154.45 10.7177 154.923 11.1071 155.259 11.6019C155.599 12.0966 155.77 12.6624 155.77 13.2993H153.497C153.497 12.9857 153.428 12.7114 153.291 12.4763C153.159 12.2363 152.955 12.0477 152.681 11.9105C152.411 11.7733 152.071 11.7047 151.659 11.7047C151.262 11.7047 150.932 11.7635 150.667 11.8811C150.403 11.9938 150.205 12.1481 150.073 12.344C149.94 12.5351 149.874 12.7506 149.874 12.9906C149.874 13.1719 149.92 13.336 150.011 13.483C150.108 13.6299 150.25 13.7671 150.439 13.8945C150.627 14.0218 150.858 14.1418 151.133 14.2545C151.407 14.3672 151.725 14.4774 152.086 14.5852C152.691 14.7615 153.222 14.9599 153.68 15.1804C154.143 15.4008 154.529 15.6482 154.839 15.9225C155.149 16.1968 155.383 16.5079 155.541 16.8557C155.699 17.2035 155.777 17.5979 155.777 18.0387C155.777 18.5041 155.683 18.9205 155.495 19.2879C155.307 19.6553 155.035 19.9664 154.679 20.2211C154.323 20.4758 153.899 20.6693 153.405 20.8016C152.912 20.9339 152.361 21 151.75 21C151.201 21 150.66 20.9314 150.126 20.7943C149.592 20.6522 149.106 20.4391 148.669 20.155C148.237 19.8709 147.891 19.5084 147.632 19.0675C147.373 18.6266 147.243 18.1049 147.243 17.5023H149.539C149.539 17.8354 149.592 18.1171 149.699 18.3474C149.806 18.5776 149.956 18.7637 150.149 18.9058C150.347 19.0479 150.581 19.1507 150.85 19.2144C151.125 19.2781 151.425 19.31 151.75 19.31C152.147 19.31 152.472 19.2561 152.727 19.1483C152.986 19.0405 153.177 18.8911 153.299 18.7001C153.426 18.509 153.489 18.2935 153.489 18.0534Z" fill="white"/>
</svg>
