<svg width="21" height="20" viewBox="0 0 21 20" fill="none" xmlns="http://www.w3.org/2000/svg">
<path d="M4.91001 13.1603C5.06628 13.3165 5.2782 13.4043 5.49917 13.4043C5.72014 13.4043 5.93207 13.3165 6.08834 13.1603L9.91001 9.33864C10.0684 9.18657 10.2796 9.10165 10.4992 9.10165C10.7188 9.10165 10.9299 9.18657 11.0883 9.33864L14.91 13.1603C15.0672 13.3121 15.2777 13.3961 15.4962 13.3942C15.7147 13.3923 15.9237 13.3047 16.0782 13.1502C16.2327 12.9957 16.3203 12.7866 16.3222 12.5681C16.3241 12.3496 16.2401 12.1391 16.0883 11.982L12.2675 8.16031C12.0354 7.92812 11.7597 7.74393 11.4564 7.61827C11.1531 7.4926 10.8279 7.42793 10.4996 7.42793C10.1712 7.42793 9.84612 7.4926 9.54278 7.61827C9.23944 7.74393 8.96382 7.92812 8.73167 8.16031L4.91001 11.982C4.75378 12.1382 4.66602 12.3502 4.66602 12.5711C4.66602 12.7921 4.75378 13.004 4.91001 13.1603Z" fill="#3691D9"/>
</svg>
