<svg width="20" height="21" viewBox="0 0 20 21" fill="none" xmlns="http://www.w3.org/2000/svg">
<path d="M19.8958 6.78566C19.6633 5.96923 19.1191 5.27694 18.3808 4.85816L12.2358 1.93066C11.5714 1.53384 10.8134 1.3212 10.0396 1.31461C9.26581 1.30802 8.50425 1.50772 7.83326 1.89316L1.61909 4.85816C1.59576 4.86982 1.57159 4.88232 1.54909 4.89566C1.07259 5.16811 0.677674 5.56311 0.405326 6.03968C0.132977 6.51624 -0.0068818 7.057 0.000260471 7.60585C0.00740274 8.1547 0.161286 8.69164 0.445944 9.16096C0.730601 9.63027 1.13566 10.0149 1.61909 10.2748L3.33326 11.0915V15.1748C3.33375 16.0644 3.61856 16.9306 4.14612 17.6469C4.67367 18.3632 5.41635 18.8921 6.26576 19.1565C7.47899 19.5075 8.73701 19.6793 9.99993 19.6665C11.2626 19.6806 12.5206 19.5102 13.7341 19.1607C14.5835 18.8963 15.3262 18.3673 15.8537 17.651C16.3813 16.9348 16.6661 16.0686 16.6666 15.179V11.0898L18.3333 10.2932V17.1665C18.3333 17.3875 18.4211 17.5995 18.5773 17.7557C18.7336 17.912 18.9456 17.9998 19.1666 17.9998C19.3876 17.9998 19.5996 17.912 19.7558 17.7557C19.9121 17.5995 19.9999 17.3875 19.9999 17.1665V7.16649C19.9972 7.03289 19.9614 6.90204 19.8958 6.78566ZM14.9999 15.179C15.0001 15.7112 14.8305 16.2295 14.5158 16.6586C14.201 17.0877 13.7576 17.4052 13.2499 17.5648C12.1934 17.8667 11.0986 18.0132 9.99993 17.9998C8.90123 18.0132 7.80643 17.8667 6.74993 17.5648C6.24228 17.4052 5.79882 17.0877 5.48407 16.6586C5.16932 16.2295 4.99972 15.7112 4.99993 15.179V11.8857L7.76409 13.2023C8.44611 13.6073 9.22505 13.8201 10.0183 13.8182C10.7733 13.8235 11.5155 13.6236 12.1658 13.2398L14.9999 11.8857V15.179ZM17.6666 8.77066L11.3816 11.7707C10.9515 12.0211 10.4615 12.1499 9.9639 12.1433C9.4663 12.1367 8.97985 11.9949 8.55659 11.7332L2.40743 8.80816C2.18609 8.68881 2.0007 8.51243 1.87047 8.29732C1.74024 8.0822 1.66991 7.83617 1.66676 7.58473C1.66362 7.33328 1.72777 7.08557 1.85258 6.86727C1.97739 6.64896 2.15831 6.46801 2.37659 6.34316L8.62243 3.35982C9.05266 3.10994 9.54262 2.98145 10.0401 2.98806C10.5376 2.99466 11.024 3.13611 11.4474 3.39732L17.5924 6.32482C17.8144 6.44809 17.9999 6.62788 18.13 6.84594C18.2601 7.064 18.3302 7.31258 18.3333 7.56649C18.3337 7.80732 18.2726 8.04428 18.156 8.25498C18.0393 8.46568 17.8709 8.64316 17.6666 8.77066Z" fill="#3691D9"/>
</svg>
