<svg width="40" height="40" viewBox="0 0 40 40" fill="none" xmlns="http://www.w3.org/2000/svg">
<path d="M27.4792 20.1261C27.2897 20.1261 27.108 20.0509 26.9741 19.9169C26.8401 19.783 26.7649 19.6013 26.7649 19.4118V17.3547C26.7917 16.9499 26.658 16.5509 26.3928 16.2439C26.1275 15.937 25.7521 15.7469 25.3477 15.7147H12.9877C12.7983 15.7147 12.6166 15.6394 12.4826 15.5055C12.3487 15.3715 12.2734 15.1899 12.2734 15.0004C12.2734 14.811 12.3487 14.6293 12.4826 14.4953C12.6166 14.3614 12.7983 14.2861 12.9877 14.2861H25.3477C26.1324 14.3144 26.8738 14.6528 27.4094 15.2269C27.945 15.8011 28.2311 16.5642 28.2049 17.349V19.4061C28.2056 19.5014 28.1874 19.5958 28.1511 19.6839C28.1148 19.772 28.0613 19.8519 27.9937 19.919C27.9261 19.9861 27.8457 20.039 27.7573 20.0746C27.669 20.1101 27.5744 20.1277 27.4792 20.1261Z" fill="white"/>
<path d="M25.3477 29.2457H12.9877C12.203 29.2174 11.4616 28.8791 10.926 28.3049C10.3904 27.7308 10.1043 26.9676 10.1306 26.1829V13.2914C10.1306 13.102 10.2058 12.9203 10.3398 12.7864C10.4737 12.6524 10.6554 12.5771 10.8448 12.5771C11.0343 12.5771 11.216 12.6524 11.3499 12.7864C11.4839 12.9203 11.5591 13.102 11.5591 13.2914V26.1829C11.5324 26.587 11.6662 26.9854 11.9316 27.2915C12.197 27.5975 12.5724 27.7864 12.9763 27.8171H25.3477C25.7516 27.7864 26.127 27.5975 26.3924 27.2915C26.6578 26.9854 26.7916 26.587 26.7648 26.1829V24.7314C26.7648 24.542 26.8401 24.3603 26.9741 24.2264C27.108 24.0924 27.2897 24.0171 27.4791 24.0171C27.6686 24.0171 27.8503 24.0924 27.9842 24.2264C28.1182 24.3603 28.1934 24.542 28.1934 24.7314V26.1829C28.2197 26.9657 27.9352 27.7272 27.4021 28.301C26.8689 28.8749 26.1304 29.2145 25.3477 29.2457Z" fill="white"/>
<path d="M25.0588 15.7145C24.8713 15.7145 24.6914 15.6409 24.5577 15.5094C24.4241 15.3779 24.3475 15.1991 24.3445 15.0117V13.4288C24.3311 13.0898 24.1843 12.7698 23.9359 12.5386C23.6876 12.3074 23.3579 12.1837 23.0188 12.1945H12.7331C12.4415 12.1837 12.1575 12.2889 11.9433 12.487C11.7291 12.6851 11.6021 12.9601 11.5902 13.2517C11.6021 13.5432 11.7291 13.8182 11.9433 14.0163C12.1575 14.2145 12.4415 14.3196 12.7331 14.3088H19.0188C19.2083 14.3088 19.3899 14.3841 19.5239 14.518C19.6578 14.652 19.7331 14.8336 19.7331 15.0231C19.7331 15.2125 19.6578 15.3942 19.5239 15.5282C19.3899 15.6621 19.2083 15.7374 19.0188 15.7374H12.716C12.383 15.7427 12.0524 15.6822 11.7428 15.5595C11.4333 15.4368 11.151 15.2543 10.9122 15.0223C10.6733 14.7903 10.4825 14.5135 10.3508 14.2077C10.2191 13.9019 10.149 13.5732 10.1445 13.2402C10.1566 12.5698 10.4341 11.9316 10.9162 11.4656C11.3982 10.9995 12.0455 10.7438 12.716 10.7545H23.0017C23.3596 10.7469 23.7154 10.8102 24.0487 10.9407C24.382 11.0713 24.6863 11.2664 24.9439 11.515C25.2014 11.7635 25.4073 12.0606 25.5496 12.3891C25.692 12.7175 25.7679 13.0709 25.7731 13.4288V15.0117C25.7701 15.1991 25.6935 15.3779 25.5599 15.5094C25.4263 15.6409 25.2463 15.7145 25.0588 15.7145ZM27.9445 25.4288H23.9845C23.211 25.4441 22.4631 25.1518 21.9049 24.6161C21.3467 24.0805 21.0239 23.3451 21.0074 22.5717V21.5374C21.0239 20.7639 21.3467 20.0286 21.9049 19.4929C22.4631 18.9572 23.211 18.6649 23.9845 18.6802H27.9845C28.2344 18.681 28.4817 18.7309 28.7123 18.8273C28.9429 18.9236 29.1522 19.0644 29.3284 19.2416C29.5045 19.4188 29.6441 19.629 29.739 19.8602C29.834 20.0913 29.8824 20.3389 29.8817 20.5888V23.5545C29.8727 24.0597 29.6637 24.5407 29.3005 24.8921C28.9374 25.2434 28.4498 25.4364 27.9445 25.4288ZM23.9845 20.1145C23.5908 20.099 23.2069 20.24 22.9168 20.5066C22.6266 20.7732 22.4538 21.1437 22.436 21.5374V22.6002C22.4538 22.9939 22.6266 23.3644 22.9168 23.631C23.2069 23.8976 23.5908 24.0386 23.9845 24.0231H27.9445C28.0693 24.0231 28.1891 23.9739 28.2779 23.8862C28.3667 23.7985 28.4173 23.6793 28.4188 23.5545V20.5888C28.4154 20.4747 28.3684 20.3664 28.2874 20.2859C28.2445 20.2411 28.1931 20.2054 28.1362 20.1809C28.0792 20.1563 28.018 20.1435 27.956 20.1431L23.9845 20.1145Z" fill="white"/>
<path d="M24.3783 22.7831C24.7728 22.7831 25.0926 22.4633 25.0926 22.0688C25.0926 21.6743 24.7728 21.3545 24.3783 21.3545C23.9839 21.3545 23.6641 21.6743 23.6641 22.0688C23.6641 22.4633 23.9839 22.7831 24.3783 22.7831Z" fill="white"/>
</svg>
