<svg width="20" height="20" viewBox="0 0 20 20" fill="none" xmlns="http://www.w3.org/2000/svg">
<path d="M17.4792 10.1261C17.2897 10.1261 17.108 10.0509 16.9741 9.91692C16.8401 9.78297 16.7649 9.60129 16.7649 9.41185V7.3547C16.7917 6.94993 16.658 6.55088 16.3928 6.24394C16.1275 5.937 15.7521 5.74687 15.3477 5.7147H2.98772C2.79828 5.7147 2.6166 5.63945 2.48265 5.50549C2.34869 5.37154 2.27344 5.18986 2.27344 5.00042C2.27344 4.81098 2.34869 4.6293 2.48265 4.49534C2.6166 4.36139 2.79828 4.28613 2.98772 4.28613H15.3477C16.1324 4.31444 16.8738 4.65277 17.4094 5.22694C17.945 5.8011 18.2311 6.56423 18.2049 7.34899V9.40613C18.2056 9.50138 18.1874 9.59583 18.1511 9.68391C18.1148 9.77198 18.0613 9.85192 17.9937 9.91901C17.9261 9.98609 17.8457 10.039 17.7573 10.0746C17.669 10.1101 17.5744 10.1277 17.4792 10.1261Z" fill="white"/>
<path d="M15.3477 19.2457H2.98771C2.20302 19.2174 1.46158 18.8791 0.925983 18.3049C0.390382 17.7308 0.104334 16.9676 0.130563 16.1829V3.29143C0.130563 3.10199 0.205818 2.92031 0.339773 2.78636C0.473727 2.6524 0.655409 2.57715 0.844849 2.57715C1.03429 2.57715 1.21597 2.6524 1.34993 2.78636C1.48388 2.92031 1.55913 3.10199 1.55913 3.29143V16.1829C1.53237 16.587 1.66622 16.9854 1.93158 17.2915C2.19695 17.5975 2.57239 17.7864 2.97628 17.8171H15.3477C15.7516 17.7864 16.127 17.5975 16.3924 17.2915C16.6578 16.9854 16.7916 16.587 16.7648 16.1829V14.7314C16.7648 14.542 16.8401 14.3603 16.9741 14.2264C17.108 14.0924 17.2897 14.0171 17.4791 14.0171C17.6686 14.0171 17.8503 14.0924 17.9842 14.2264C18.1182 14.3603 18.1934 14.542 18.1934 14.7314V16.1829C18.2197 16.9657 17.9352 17.7272 17.4021 18.301C16.8689 18.8749 16.1304 19.2145 15.3477 19.2457Z" fill="white"/>
<path d="M15.0588 5.71451C14.8713 5.71454 14.6914 5.64085 14.5577 5.50936C14.4241 5.37787 14.3475 5.19911 14.3445 5.01166V3.4288C14.3311 3.08977 14.1843 2.76977 13.9359 2.53857C13.6876 2.30736 13.3579 2.18369 13.0188 2.19451H2.7331C2.44151 2.18369 2.15751 2.28886 1.9433 2.48701C1.72909 2.68515 1.60214 2.9601 1.59025 3.25166C1.60214 3.54321 1.72909 3.81817 1.9433 4.01631C2.15751 4.21445 2.44151 4.31963 2.7331 4.3088H9.01882C9.20826 4.3088 9.38994 4.38405 9.52389 4.51801C9.65785 4.65196 9.7331 4.83364 9.7331 5.02309C9.7331 5.21253 9.65785 5.39421 9.52389 5.52816C9.38994 5.66212 9.20826 5.73737 9.01882 5.73737H2.71596C2.38304 5.74266 2.05235 5.68223 1.74283 5.55952C1.4333 5.43682 1.15103 5.25425 0.912165 5.02229C0.673303 4.79033 0.482548 4.51352 0.350825 4.20773C0.219102 3.90193 0.148999 3.57316 0.144531 3.24023C0.156554 2.56982 0.434063 1.93157 0.916154 1.46555C1.39825 0.999531 2.04553 0.743811 2.71596 0.754514H13.0017C13.3596 0.74694 13.7154 0.810231 14.0487 0.940744C14.382 1.07126 14.6863 1.26641 14.9439 1.51498C15.2014 1.76354 15.4073 2.0606 15.5496 2.38906C15.692 2.71751 15.7679 3.07087 15.7731 3.4288V5.01166C15.7701 5.19911 15.6935 5.37787 15.5599 5.50936C15.4263 5.64085 15.2463 5.71454 15.0588 5.71451ZM17.9445 15.4288H13.9845C13.211 15.4441 12.4631 15.1518 11.9049 14.6161C11.3467 14.0805 11.0239 13.3451 11.0074 12.5717V11.5374C11.0239 10.7639 11.3467 10.0286 11.9049 9.49288C12.4631 8.95719 13.211 8.66491 13.9845 8.68023H17.9845C18.2344 8.68098 18.4817 8.73094 18.7123 8.82726C18.9429 8.92358 19.1522 9.06437 19.3284 9.2416C19.5045 9.41883 19.6441 9.62902 19.739 9.86017C19.834 10.0913 19.8824 10.3389 19.8817 10.5888V13.5545C19.8727 14.0597 19.6637 14.5407 19.3005 14.8921C18.9374 15.2434 18.4498 15.4364 17.9445 15.4288ZM13.9845 10.1145C13.5908 10.099 13.2069 10.24 12.9168 10.5066C12.6266 10.7732 12.4538 11.1437 12.436 11.5374V12.6002C12.4538 12.9939 12.6266 13.3644 12.9168 13.631C13.2069 13.8976 13.5908 14.0386 13.9845 14.0231H17.9445C18.0693 14.0231 18.1891 13.9739 18.2779 13.8862C18.3667 13.7985 18.4173 13.6793 18.4188 13.5545V10.5888C18.4154 10.4747 18.3684 10.3664 18.2874 10.2859C18.2445 10.2411 18.1931 10.2054 18.1362 10.1809C18.0792 10.1563 18.018 10.1435 17.956 10.1431L13.9845 10.1145Z" fill="white"/>
<path d="M14.3783 12.7831C14.7728 12.7831 15.0926 12.4633 15.0926 12.0688C15.0926 11.6743 14.7728 11.3545 14.3783 11.3545C13.9839 11.3545 13.6641 11.6743 13.6641 12.0688C13.6641 12.4633 13.9839 12.7831 14.3783 12.7831Z" fill="white"/>
</svg>
