<svg width="40" height="40" viewBox="0 0 40 40" fill="none" xmlns="http://www.w3.org/2000/svg">
<path d="M17.5013 28.3337C17.9615 28.3337 18.3346 27.9606 18.3346 27.5003C18.3346 27.0401 17.9615 26.667 17.5013 26.667C17.0411 26.667 16.668 27.0401 16.668 27.5003C16.668 27.9606 17.0411 28.3337 17.5013 28.3337Z" stroke="white" stroke-width="1.5" stroke-linecap="round" stroke-linejoin="round"/>
<path d="M26.6654 28.3337C27.1256 28.3337 27.4987 27.9606 27.4987 27.5003C27.4987 27.0401 27.1256 26.667 26.6654 26.667C26.2051 26.667 25.832 27.0401 25.832 27.5003C25.832 27.9606 26.2051 28.3337 26.6654 28.3337Z" stroke="white" stroke-width="1.5" stroke-linecap="round" stroke-linejoin="round"/>
<path d="M10.832 10.833H14.1654L16.3987 21.9913C16.4749 22.375 16.6836 22.7196 16.9883 22.9649C17.293 23.2102 17.6743 23.3405 18.0654 23.333H26.1654C26.5564 23.3405 26.9377 23.2102 27.2424 22.9649C27.5471 22.7196 27.7558 22.375 27.832 21.9913L29.1654 14.9997H14.9987" stroke="white" stroke-width="1.5" stroke-linecap="round" stroke-linejoin="round"/>
</svg>
