<svg width="20" height="20" viewBox="0 0 20 20" fill="none" xmlns="http://www.w3.org/2000/svg">
<path d="M7.5013 18.3337C7.96154 18.3337 8.33463 17.9606 8.33463 17.5003C8.33463 17.0401 7.96154 16.667 7.5013 16.667C7.04106 16.667 6.66797 17.0401 6.66797 17.5003C6.66797 17.9606 7.04106 18.3337 7.5013 18.3337Z" stroke="white" stroke-width="1.5" stroke-linecap="round" stroke-linejoin="round"/>
<path d="M16.6654 18.3337C17.1256 18.3337 17.4987 17.9606 17.4987 17.5003C17.4987 17.0401 17.1256 16.667 16.6654 16.667C16.2051 16.667 15.832 17.0401 15.832 17.5003C15.832 17.9606 16.2051 18.3337 16.6654 18.3337Z" stroke="white" stroke-width="1.5" stroke-linecap="round" stroke-linejoin="round"/>
<path d="M0.832031 0.833008H4.16536L6.3987 11.9913C6.4749 12.375 6.68362 12.7196 6.98832 12.9649C7.29302 13.2102 7.67428 13.3405 8.06536 13.333H16.1654C16.5564 13.3405 16.9377 13.2102 17.2424 12.9649C17.5471 12.7196 17.7558 12.375 17.832 11.9913L19.1654 4.99967H4.9987" stroke="white" stroke-width="1.5" stroke-linecap="round" stroke-linejoin="round"/>
</svg>
