<svg width="21" height="20" viewBox="0 0 21 20" fill="none" xmlns="http://www.w3.org/2000/svg">
<path d="M19.1184 5.68265L17.3001 3.86348L18.0893 3.07432C18.1688 2.99744 18.2323 2.90549 18.276 2.80382C18.3197 2.70215 18.3427 2.5928 18.3436 2.48215C18.3446 2.3715 18.3235 2.26177 18.2816 2.15935C18.2397 2.05694 18.1778 1.9639 18.0996 1.88565C18.0213 1.80741 17.9283 1.74553 17.8259 1.70363C17.7235 1.66173 17.6137 1.64065 17.5031 1.64161C17.3924 1.64257 17.2831 1.66556 17.1814 1.70923C17.0797 1.75291 16.9878 1.81639 16.9109 1.89598L16.1218 2.68515L14.3026 0.866816C13.7292 0.320418 12.9675 0.015625 12.1755 0.015625C11.3835 0.015625 10.6218 0.320418 10.0484 0.866816C9.76888 1.14612 9.54713 1.47777 9.39584 1.84282C9.24454 2.20787 9.16667 2.59916 9.16667 2.99432C9.16667 3.38947 9.24454 3.78076 9.39584 4.14581C9.54713 4.51086 9.76888 4.84251 10.0484 5.12182L11.8668 6.94015L6.95509 11.8518L5.13592 10.0335C4.56253 9.48708 3.80087 9.18229 3.00884 9.18229C2.2168 9.18229 1.45514 9.48708 0.881753 10.0335C0.602218 10.3128 0.380466 10.6444 0.22917 11.0095C0.0778735 11.3745 0 11.7658 0 12.161C0 12.5561 0.0778735 12.9474 0.22917 13.3125C0.380466 13.6775 0.602218 14.0092 0.881753 14.2885L2.70009 16.1068L1.91092 16.896C1.83133 16.9729 1.76784 17.0648 1.72417 17.1665C1.68049 17.2681 1.65751 17.3775 1.65654 17.4881C1.65558 17.5988 1.67667 17.7085 1.71857 17.8109C1.76047 17.9134 1.82235 18.0064 1.90059 18.0846C1.97883 18.1629 2.07188 18.2248 2.17429 18.2667C2.27671 18.3086 2.38644 18.3297 2.49709 18.3287C2.60774 18.3277 2.71709 18.3047 2.81876 18.2611C2.92043 18.2174 3.01238 18.1539 3.08925 18.0743L3.87842 17.2851L5.69759 19.1035C5.97688 19.3829 6.30848 19.6045 6.67345 19.7558C7.03842 19.907 7.42961 19.9848 7.82467 19.9848C8.21973 19.9848 8.61092 19.907 8.97589 19.7558C9.34086 19.6045 9.67246 19.3829 9.95175 19.1035C10.2313 18.8242 10.453 18.4927 10.6043 18.1277C10.7556 17.7627 10.8334 17.3715 10.8334 16.9764C10.8334 16.5813 10.7556 16.1901 10.6043 15.8251C10.453 15.4601 10.2313 15.1285 9.95175 14.8493L8.13342 13.031L13.0501 8.11848L14.8684 9.93682C15.1477 10.2162 15.4793 10.4379 15.8443 10.5891C16.2093 10.7403 16.6004 10.8182 16.9955 10.8182C17.3906 10.8182 17.7818 10.7403 18.1467 10.5891C18.5117 10.4379 18.8433 10.2162 19.1226 9.93682C19.4021 9.65758 19.6238 9.326 19.7751 8.96102C19.9264 8.59604 20.0043 8.20482 20.0043 7.80973C20.0043 7.41464 19.9264 7.02342 19.7751 6.65845C19.6238 6.29347 19.4021 5.96188 19.1226 5.68265H19.1184ZM9.16675 16.9768C9.16711 17.153 9.13254 17.3276 9.06502 17.4904C8.99751 17.6531 8.8984 17.8009 8.77342 17.9251C8.51799 18.1695 8.17815 18.3059 7.82467 18.3059C7.47119 18.3059 7.13135 18.1695 6.87592 17.9251L2.06009 13.1093C1.80846 12.8577 1.6671 12.5164 1.6671 12.1606C1.6671 11.8047 1.80846 11.4634 2.06009 11.2118C2.31171 10.9602 2.65299 10.8188 3.00884 10.8188C3.36469 10.8188 3.70596 10.9602 3.95759 11.2118L8.77342 16.0276C8.8985 16.152 8.99767 16.2999 9.06518 16.4628C9.1327 16.6258 9.16722 16.8005 9.16675 16.9768ZM17.9401 8.75848C17.6847 9.00282 17.3448 9.1392 16.9913 9.1392C16.6379 9.1392 16.298 9.00282 16.0426 8.75848L11.2268 3.94265C11.1022 3.81806 11.0033 3.67015 10.9359 3.50736C10.8685 3.34457 10.8338 3.1701 10.8338 2.9939C10.8338 2.8177 10.8685 2.64323 10.9359 2.48044C11.0033 2.31765 11.1022 2.16974 11.2268 2.04515C11.3513 1.92056 11.4993 1.82173 11.662 1.7543C11.8248 1.68687 11.9993 1.65216 12.1755 1.65216C12.3517 1.65216 12.5262 1.68687 12.689 1.7543C12.8518 1.82173 12.9997 1.92056 13.1243 2.04515L17.9401 6.86098C18.0648 6.98551 18.1637 7.13341 18.2312 7.2962C18.2987 7.459 18.3334 7.6335 18.3334 7.80973C18.3334 7.98596 18.2987 8.16047 18.2312 8.32326C18.1637 8.48606 18.0648 8.63395 17.9401 8.75848Z" fill="white"/>
</svg>
