<svg width="40" height="40" viewBox="0 0 40 40" fill="none" xmlns="http://www.w3.org/2000/svg">
<g clip-path="url(#clip0_2106_15694)">
<path d="M29.1184 15.6973L27.3001 13.8781L28.0893 13.089C28.1688 13.0121 28.2323 12.9201 28.276 12.8185C28.3197 12.7168 28.3427 12.6074 28.3436 12.4968C28.3446 12.3861 28.3235 12.2764 28.2816 12.174C28.2397 12.0716 28.1778 11.9785 28.0996 11.9003C28.0213 11.8221 27.9283 11.7602 27.8259 11.7183C27.7235 11.6764 27.6137 11.6553 27.5031 11.6563C27.3924 11.6572 27.2831 11.6802 27.1814 11.7239C27.0797 11.7676 26.9878 11.831 26.9109 11.9106L26.1218 12.6998L24.3026 10.8815C23.7292 10.3351 22.9675 10.0303 22.1755 10.0303C21.3835 10.0303 20.6218 10.3351 20.0484 10.8815C19.7689 11.1608 19.5471 11.4924 19.3958 11.8575C19.2445 12.2225 19.1667 12.6138 19.1667 13.009C19.1667 13.4041 19.2445 13.7954 19.3958 14.1605C19.5471 14.5255 19.7689 14.8572 20.0484 15.1365L21.8668 16.9548L16.9551 21.8665L15.1359 20.0481C14.5625 19.5017 13.8009 19.1969 13.0088 19.1969C12.2168 19.1969 11.4551 19.5017 10.8818 20.0481C10.6022 20.3274 10.3805 20.6591 10.2292 21.0241C10.0779 21.3892 10 21.7805 10 22.1756C10 22.5708 10.0779 22.9621 10.2292 23.3271C10.3805 23.6922 10.6022 24.0238 10.8818 24.3031L12.7001 26.1215L11.9109 26.9106C11.8313 26.9875 11.7678 27.0795 11.7242 27.1811C11.6805 27.2828 11.6575 27.3921 11.6565 27.5028C11.6556 27.6134 11.6767 27.7232 11.7186 27.8256C11.7605 27.928 11.8223 28.021 11.9006 28.0993C11.9788 28.1775 12.0719 28.2394 12.1743 28.2813C12.2767 28.3232 12.3864 28.3443 12.4971 28.3433C12.6077 28.3424 12.7171 28.3194 12.8188 28.2757C12.9204 28.232 13.0124 28.1686 13.0893 28.089L13.8784 27.2998L15.6976 29.1181C15.9769 29.3975 16.3085 29.6192 16.6734 29.7704C17.0384 29.9216 17.4296 29.9995 17.8247 29.9995C18.2197 29.9995 18.6109 29.9216 18.9759 29.7704C19.3409 29.6192 19.6725 29.3975 19.9518 29.1181C20.2313 28.8389 20.453 28.5073 20.6043 28.1423C20.7556 27.7774 20.8334 27.3861 20.8334 26.991C20.8334 26.596 20.7556 26.2047 20.6043 25.8398C20.453 25.4748 20.2313 25.1432 19.9518 24.864L18.1334 23.0456L23.0501 18.1331L24.8684 19.9515C25.1477 20.2309 25.4793 20.4525 25.8443 20.6037C26.2093 20.755 26.6004 20.8328 26.9955 20.8328C27.3906 20.8328 27.7818 20.755 28.1467 20.6037C28.5117 20.4525 28.8433 20.2309 29.1226 19.9515C29.4021 19.6722 29.6238 19.3406 29.7751 18.9757C29.9264 18.6107 30.0043 18.2195 30.0043 17.8244C30.0043 17.4293 29.9264 17.0381 29.7751 16.6731C29.6238 16.3081 29.4021 15.9765 29.1226 15.6973H29.1184ZM19.1668 26.9915C19.1671 27.1677 19.1325 27.3422 19.065 27.505C18.9975 27.6678 18.8984 27.8156 18.7734 27.9398C18.518 28.1841 18.1781 28.3205 17.8247 28.3205C17.4712 28.3205 17.1313 28.1841 16.8759 27.9398L12.0601 23.124C11.8085 22.8723 11.6671 22.5311 11.6671 22.1752C11.6671 21.8194 11.8085 21.4781 12.0601 21.2265C12.3117 20.9748 12.653 20.8335 13.0088 20.8335C13.3647 20.8335 13.706 20.9748 13.9576 21.2265L18.7734 26.0423C18.8985 26.1666 18.9977 26.3145 19.0652 26.4775C19.1327 26.6404 19.1672 26.8151 19.1668 26.9915ZM27.9401 18.7731C27.6847 19.0175 27.3448 19.1538 26.9913 19.1538C26.6379 19.1538 26.298 19.0175 26.0426 18.7731L21.2268 13.9573C21.1022 13.8327 21.0033 13.6848 20.9359 13.522C20.8685 13.3592 20.8338 13.1847 20.8338 13.0085C20.8338 12.8323 20.8685 12.6579 20.9359 12.4951C21.0033 12.3323 21.1022 12.1844 21.2268 12.0598C21.3513 11.9352 21.4993 11.8364 21.662 11.7689C21.8248 11.7015 21.9993 11.6668 22.1755 11.6668C22.3517 11.6668 22.5262 11.7015 22.689 11.7689C22.8518 11.8364 22.9997 11.9352 23.1243 12.0598L27.9401 16.8756C28.0648 17.0002 28.1637 17.1481 28.2312 17.3108C28.2987 17.4736 28.3334 17.6481 28.3334 17.8244C28.3334 18.0006 28.2987 18.1751 28.2312 18.3379C28.1637 18.5007 28.0648 18.6486 27.9401 18.7731Z" fill="white"/>
</g>
<defs>
<clipPath id="clip0_2106_15694">
<rect width="20" height="20" fill="white" transform="translate(10 10)"/>
</clipPath>
</defs>
</svg>
