<svg width="40" height="40" viewBox="0 0 40 40" fill="none" xmlns="http://www.w3.org/2000/svg">
<path d="M20 22.5C21.3807 22.5 22.5 21.3807 22.5 20C22.5 18.6193 21.3807 17.5 20 17.5C18.6193 17.5 17.5 18.6193 17.5 20C17.5 21.3807 18.6193 22.5 20 22.5Z" stroke="white" stroke-width="1.5" stroke-linecap="round" stroke-linejoin="round"/>
<path d="M26.1654 22.4997C26.0544 22.751 26.0213 23.0298 26.0704 23.3002C26.1194 23.5705 26.2482 23.8199 26.4404 24.0163L26.4904 24.0663C26.6453 24.2211 26.7683 24.4049 26.8521 24.6073C26.936 24.8096 26.9792 25.0265 26.9792 25.2455C26.9792 25.4645 26.936 25.6814 26.8521 25.8837C26.7683 26.0861 26.6453 26.2699 26.4904 26.4247C26.3356 26.5796 26.1518 26.7026 25.9494 26.7864C25.7471 26.8703 25.5302 26.9135 25.3112 26.9135C25.0922 26.9135 24.8753 26.8703 24.673 26.7864C24.4706 26.7026 24.2868 26.5796 24.132 26.4247L24.082 26.3747C23.8856 26.1826 23.6362 26.0537 23.3659 26.0047C23.0955 25.9557 22.8167 25.9887 22.5654 26.0997C22.3189 26.2053 22.1087 26.3807 21.9606 26.6043C21.8126 26.8279 21.7331 27.0899 21.732 27.358V27.4997C21.732 27.9417 21.5564 28.3656 21.2439 28.6782C20.9313 28.9907 20.5074 29.1663 20.0654 29.1663C19.6233 29.1663 19.1994 28.9907 18.8869 28.6782C18.5743 28.3656 18.3987 27.9417 18.3987 27.4997V27.4247C18.3922 27.1488 18.303 26.8813 18.1425 26.6569C17.9819 26.4325 17.7576 26.2616 17.4987 26.1663C17.2474 26.0554 16.9685 26.0223 16.6982 26.0713C16.4279 26.1204 16.1784 26.2492 15.982 26.4413L15.932 26.4913C15.7772 26.6463 15.5934 26.7692 15.3911 26.8531C15.1888 26.937 14.9719 26.9802 14.7529 26.9802C14.5338 26.9802 14.317 26.937 14.1146 26.8531C13.9123 26.7692 13.7285 26.6463 13.5737 26.4913C13.4187 26.3366 13.2958 26.1527 13.2119 25.9504C13.1281 25.7481 13.0849 25.5312 13.0849 25.3122C13.0849 25.0931 13.1281 24.8763 13.2119 24.6739C13.2958 24.4716 13.4187 24.2878 13.5737 24.133L13.6237 24.083C13.8158 23.8866 13.9447 23.6372 13.9937 23.3668C14.0427 23.0965 14.0096 22.8177 13.8987 22.5663C13.7931 22.3199 13.6177 22.1097 13.3941 21.9616C13.1705 21.8135 12.9085 21.7341 12.6404 21.733H12.4987C12.0567 21.733 11.6327 21.5574 11.3202 21.2449C11.0076 20.9323 10.832 20.5084 10.832 20.0663C10.832 19.6243 11.0076 19.2004 11.3202 18.8878C11.6327 18.5753 12.0567 18.3997 12.4987 18.3997H12.5737C12.8495 18.3932 13.117 18.3039 13.3414 18.1434C13.5659 17.9829 13.7368 17.7586 13.832 17.4997C13.943 17.2483 13.9761 16.9695 13.927 16.6992C13.878 16.4289 13.7491 16.1794 13.557 15.983L13.507 15.933C13.3521 15.7782 13.2291 15.5944 13.1453 15.3921C13.0614 15.1897 13.0182 14.9729 13.0182 14.7538C13.0182 14.5348 13.0614 14.3179 13.1453 14.1156C13.2291 13.9133 13.3521 13.7295 13.507 13.5747C13.6618 13.4197 13.8456 13.2968 14.048 13.2129C14.2503 13.129 14.4672 13.0859 14.6862 13.0859C14.9052 13.0859 15.1221 13.129 15.3244 13.2129C15.5268 13.2968 15.7106 13.4197 15.8654 13.5747L15.9154 13.6247C16.1118 13.8168 16.3612 13.9457 16.6315 13.9947C16.9019 14.0437 17.1807 14.0106 17.432 13.8997H17.4987C17.7452 13.794 17.9554 13.6186 18.1034 13.3951C18.2515 13.1715 18.331 12.9095 18.332 12.6413V12.4997C18.332 12.0576 18.5076 11.6337 18.8202 11.3212C19.1327 11.0086 19.5567 10.833 19.9987 10.833C20.4407 10.833 20.8646 11.0086 21.1772 11.3212C21.4898 11.6337 21.6654 12.0576 21.6654 12.4997V12.5747C21.6664 12.8428 21.7459 13.1048 21.894 13.3284C22.042 13.552 22.2522 13.7274 22.4987 13.833C22.75 13.9439 23.0289 13.977 23.2992 13.928C23.5695 13.879 23.819 13.7501 24.0154 13.558L24.0654 13.508C24.2202 13.353 24.404 13.2301 24.6063 13.1462C24.8086 13.0624 25.0255 13.0192 25.2445 13.0192C25.4636 13.0192 25.6804 13.0624 25.8828 13.1462C26.0851 13.2301 26.2689 13.353 26.4237 13.508C26.5787 13.6628 26.7016 13.8466 26.7855 14.0489C26.8693 14.2513 26.9125 14.4681 26.9125 14.6872C26.9125 14.9062 26.8693 15.1231 26.7855 15.3254C26.7016 15.5277 26.5787 15.7116 26.4237 15.8663L26.3737 15.9163C26.1816 16.1127 26.0527 16.3622 26.0037 16.6325C25.9547 16.9028 25.9878 17.1817 26.0987 17.433V17.4997C26.2043 17.7461 26.3797 17.9564 26.6033 18.1044C26.8269 18.2525 27.0889 18.3319 27.357 18.333H27.4987C27.9407 18.333 28.3646 18.5086 28.6772 18.8212C28.9898 19.1337 29.1654 19.5576 29.1654 19.9997C29.1654 20.4417 28.9898 20.8656 28.6772 21.1782C28.3646 21.4907 27.9407 21.6663 27.4987 21.6663H27.4237C27.1555 21.6674 26.8936 21.7469 26.67 21.8949C26.4464 22.043 26.271 22.2532 26.1654 22.4997V22.4997Z" stroke="white" stroke-width="1.5" stroke-linecap="round" stroke-linejoin="round"/>
</svg>
