<svg width="20" height="20" viewBox="0 0 20 20" fill="none" xmlns="http://www.w3.org/2000/svg">
<path d="M5.83333 0.000976563H3.33333C2.44928 0.000976563 1.60143 0.352166 0.976311 0.977287C0.35119 1.60241 0 2.45025 0 3.33431L0 5.83431C0 6.71837 0.35119 7.56621 0.976311 8.19133C1.60143 8.81645 2.44928 9.16764 3.33333 9.16764H5.83333C6.71739 9.16764 7.56524 8.81645 8.19036 8.19133C8.81548 7.56621 9.16667 6.71837 9.16667 5.83431V3.33431C9.16667 2.45025 8.81548 1.60241 8.19036 0.977287C7.56524 0.352166 6.71739 0.000976563 5.83333 0.000976563ZM7.5 5.83431C7.5 6.27634 7.32441 6.70026 7.01184 7.01282C6.69928 7.32538 6.27536 7.50098 5.83333 7.50098H3.33333C2.89131 7.50098 2.46738 7.32538 2.15482 7.01282C1.84226 6.70026 1.66667 6.27634 1.66667 5.83431V3.33431C1.66667 2.89228 1.84226 2.46836 2.15482 2.1558C2.46738 1.84324 2.89131 1.66764 3.33333 1.66764H5.83333C6.27536 1.66764 6.69928 1.84324 7.01184 2.1558C7.32441 2.46836 7.5 2.89228 7.5 3.33431V5.83431Z" fill="white"/>
<path d="M16.6654 0.000976563H14.1654C13.2813 0.000976563 12.4335 0.352166 11.8083 0.977287C11.1832 1.60241 10.832 2.45025 10.832 3.33431V5.83431C10.832 6.71837 11.1832 7.56621 11.8083 8.19133C12.4335 8.81645 13.2813 9.16764 14.1654 9.16764H16.6654C17.5494 9.16764 18.3973 8.81645 19.0224 8.19133C19.6475 7.56621 19.9987 6.71837 19.9987 5.83431V3.33431C19.9987 2.45025 19.6475 1.60241 19.0224 0.977287C18.3973 0.352166 17.5494 0.000976563 16.6654 0.000976562V0.000976563ZM18.332 5.83431C18.332 6.27634 18.1564 6.70026 17.8439 7.01282C17.5313 7.32538 17.1074 7.50098 16.6654 7.50098H14.1654C13.7233 7.50098 13.2994 7.32538 12.9869 7.01282C12.6743 6.70026 12.4987 6.27634 12.4987 5.83431V3.33431C12.4987 2.89228 12.6743 2.46836 12.9869 2.1558C13.2994 1.84324 13.7233 1.66764 14.1654 1.66764H16.6654C17.1074 1.66764 17.5313 1.84324 17.8439 2.1558C18.1564 2.46836 18.332 2.89228 18.332 3.33431V5.83431Z" fill="white"/>
<path d="M5.83333 10.833H3.33333C2.44928 10.833 1.60143 11.1842 0.976311 11.8093C0.35119 12.4344 0 13.2823 0 14.1663L0 16.6663C0 17.5504 0.35119 18.3982 0.976311 19.0234C1.60143 19.6485 2.44928 19.9997 3.33333 19.9997H5.83333C6.71739 19.9997 7.56524 19.6485 8.19036 19.0234C8.81548 18.3982 9.16667 17.5504 9.16667 16.6663V14.1663C9.16667 13.2823 8.81548 12.4344 8.19036 11.8093C7.56524 11.1842 6.71739 10.833 5.83333 10.833ZM7.5 16.6663C7.5 17.1084 7.32441 17.5323 7.01184 17.8449C6.69928 18.1574 6.27536 18.333 5.83333 18.333H3.33333C2.89131 18.333 2.46738 18.1574 2.15482 17.8449C1.84226 17.5323 1.66667 17.1084 1.66667 16.6663V14.1663C1.66667 13.7243 1.84226 13.3004 2.15482 12.9878C2.46738 12.6753 2.89131 12.4997 3.33333 12.4997H5.83333C6.27536 12.4997 6.69928 12.6753 7.01184 12.9878C7.32441 13.3004 7.5 13.7243 7.5 14.1663V16.6663Z" fill="white"/>
<path d="M16.6654 10.833H14.1654C13.2813 10.833 12.4335 11.1842 11.8083 11.8093C11.1832 12.4344 10.832 13.2823 10.832 14.1663V16.6663C10.832 17.5504 11.1832 18.3982 11.8083 19.0234C12.4335 19.6485 13.2813 19.9997 14.1654 19.9997H16.6654C17.5494 19.9997 18.3973 19.6485 19.0224 19.0234C19.6475 18.3982 19.9987 17.5504 19.9987 16.6663V14.1663C19.9987 13.2823 19.6475 12.4344 19.0224 11.8093C18.3973 11.1842 17.5494 10.833 16.6654 10.833ZM18.332 16.6663C18.332 17.1084 18.1564 17.5323 17.8439 17.8449C17.5313 18.1574 17.1074 18.333 16.6654 18.333H14.1654C13.7233 18.333 13.2994 18.1574 12.9869 17.8449C12.6743 17.5323 12.4987 17.1084 12.4987 16.6663V14.1663C12.4987 13.7243 12.6743 13.3004 12.9869 12.9878C13.2994 12.6753 13.7233 12.4997 14.1654 12.4997H16.6654C17.1074 12.4997 17.5313 12.6753 17.8439 12.9878C18.1564 13.3004 18.332 13.7243 18.332 14.1663V16.6663Z" fill="white"/>
</svg>
