<svg width="40" height="40" viewBox="0 0 40 40" fill="none" xmlns="http://www.w3.org/2000/svg">
<path d="M15.8333 10.001H13.3333C12.4493 10.001 11.6014 10.3522 10.9763 10.9773C10.3512 11.6024 10 12.4503 10 13.3343V15.8343C10 16.7184 10.3512 17.5662 10.9763 18.1913C11.6014 18.8165 12.4493 19.1676 13.3333 19.1676H15.8333C16.7174 19.1676 17.5652 18.8165 18.1904 18.1913C18.8155 17.5662 19.1667 16.7184 19.1667 15.8343V13.3343C19.1667 12.4503 18.8155 11.6024 18.1904 10.9773C17.5652 10.3522 16.7174 10.001 15.8333 10.001ZM17.5 15.8343C17.5 16.2763 17.3244 16.7003 17.0118 17.0128C16.6993 17.3254 16.2754 17.501 15.8333 17.501H13.3333C12.8913 17.501 12.4674 17.3254 12.1548 17.0128C11.8423 16.7003 11.6667 16.2763 11.6667 15.8343V13.3343C11.6667 12.8923 11.8423 12.4684 12.1548 12.1558C12.4674 11.8432 12.8913 11.6676 13.3333 11.6676H15.8333C16.2754 11.6676 16.6993 11.8432 17.0118 12.1558C17.3244 12.4684 17.5 12.8923 17.5 13.3343V15.8343Z" fill="white"/>
<path d="M26.6654 10.001H24.1654C23.2813 10.001 22.4335 10.3522 21.8083 10.9773C21.1832 11.6024 20.832 12.4503 20.832 13.3343V15.8343C20.832 16.7184 21.1832 17.5662 21.8083 18.1913C22.4335 18.8165 23.2813 19.1676 24.1654 19.1676H26.6654C27.5494 19.1676 28.3973 18.8165 29.0224 18.1913C29.6475 17.5662 29.9987 16.7184 29.9987 15.8343V13.3343C29.9987 12.4503 29.6475 11.6024 29.0224 10.9773C28.3973 10.3522 27.5494 10.001 26.6654 10.001V10.001ZM28.332 15.8343C28.332 16.2763 28.1564 16.7003 27.8439 17.0128C27.5313 17.3254 27.1074 17.501 26.6654 17.501H24.1654C23.7233 17.501 23.2994 17.3254 22.9869 17.0128C22.6743 16.7003 22.4987 16.2763 22.4987 15.8343V13.3343C22.4987 12.8923 22.6743 12.4684 22.9869 12.1558C23.2994 11.8432 23.7233 11.6676 24.1654 11.6676H26.6654C27.1074 11.6676 27.5313 11.8432 27.8439 12.1558C28.1564 12.4684 28.332 12.8923 28.332 13.3343V15.8343Z" fill="white"/>
<path d="M15.8333 20.833H13.3333C12.4493 20.833 11.6014 21.1842 10.9763 21.8093C10.3512 22.4344 10 23.2823 10 24.1663V26.6663C10 27.5504 10.3512 28.3982 10.9763 29.0234C11.6014 29.6485 12.4493 29.9997 13.3333 29.9997H15.8333C16.7174 29.9997 17.5652 29.6485 18.1904 29.0234C18.8155 28.3982 19.1667 27.5504 19.1667 26.6663V24.1663C19.1667 23.2823 18.8155 22.4344 18.1904 21.8093C17.5652 21.1842 16.7174 20.833 15.8333 20.833ZM17.5 26.6663C17.5 27.1084 17.3244 27.5323 17.0118 27.8449C16.6993 28.1574 16.2754 28.333 15.8333 28.333H13.3333C12.8913 28.333 12.4674 28.1574 12.1548 27.8449C11.8423 27.5323 11.6667 27.1084 11.6667 26.6663V24.1663C11.6667 23.7243 11.8423 23.3004 12.1548 22.9878C12.4674 22.6753 12.8913 22.4997 13.3333 22.4997H15.8333C16.2754 22.4997 16.6993 22.6753 17.0118 22.9878C17.3244 23.3004 17.5 23.7243 17.5 24.1663V26.6663Z" fill="white"/>
<path d="M26.6654 20.833H24.1654C23.2813 20.833 22.4335 21.1842 21.8083 21.8093C21.1832 22.4344 20.832 23.2823 20.832 24.1663V26.6663C20.832 27.5504 21.1832 28.3982 21.8083 29.0234C22.4335 29.6485 23.2813 29.9997 24.1654 29.9997H26.6654C27.5494 29.9997 28.3973 29.6485 29.0224 29.0234C29.6475 28.3982 29.9987 27.5504 29.9987 26.6663V24.1663C29.9987 23.2823 29.6475 22.4344 29.0224 21.8093C28.3973 21.1842 27.5494 20.833 26.6654 20.833ZM28.332 26.6663C28.332 27.1084 28.1564 27.5323 27.8439 27.8449C27.5313 28.1574 27.1074 28.333 26.6654 28.333H24.1654C23.7233 28.333 23.2994 28.1574 22.9869 27.8449C22.6743 27.5323 22.4987 27.1084 22.4987 26.6663V24.1663C22.4987 23.7243 22.6743 23.3004 22.9869 22.9878C23.2994 22.6753 23.7233 22.4997 24.1654 22.4997H26.6654C27.1074 22.4997 27.5313 22.6753 27.8439 22.9878C28.1564 23.3004 28.332 23.7243 28.332 24.1663V26.6663Z" fill="white"/>
</svg>
