<svg width="40" height="40" viewBox="0 0 40 40" fill="none" xmlns="http://www.w3.org/2000/svg">
<path d="M23.332 13.333H24.9987C25.4407 13.333 25.8646 13.5086 26.1772 13.8212C26.4898 14.1337 26.6654 14.5576 26.6654 14.9997V26.6663C26.6654 27.1084 26.4898 27.5323 26.1772 27.8449C25.8646 28.1574 25.4407 28.333 24.9987 28.333H14.9987C14.5567 28.333 14.1327 28.1574 13.8202 27.8449C13.5076 27.5323 13.332 27.1084 13.332 26.6663V14.9997C13.332 14.5576 13.5076 14.1337 13.8202 13.8212C14.1327 13.5086 14.5567 13.333 14.9987 13.333H16.6654" stroke="white" stroke-width="1.5" stroke-linecap="round" stroke-linejoin="round"/>
<path d="M22.5013 11.667H17.5013C17.0411 11.667 16.668 12.0401 16.668 12.5003V14.167C16.668 14.6272 17.0411 15.0003 17.5013 15.0003H22.5013C22.9615 15.0003 23.3346 14.6272 23.3346 14.167V12.5003C23.3346 12.0401 22.9615 11.667 22.5013 11.667Z" stroke="white" stroke-width="1.5" stroke-linecap="round" stroke-linejoin="round"/>
</svg>
