<svg width="40" height="40" viewBox="0 0 40 40" fill="none" xmlns="http://www.w3.org/2000/svg">
<path d="M28.3351 24.1004V26.6004C28.3361 26.8325 28.2886 27.0622 28.1956 27.2749C28.1026 27.4875 27.9662 27.6784 27.7952 27.8353C27.6242 27.9922 27.4223 28.1116 27.2024 28.186C26.9826 28.2603 26.7496 28.288 26.5185 28.2671C23.9542 27.9884 21.491 27.1122 19.3268 25.7087C17.3133 24.4293 15.6063 22.7222 14.3268 20.7087C12.9185 18.5347 12.042 16.0596 11.7685 13.4837C11.7477 13.2533 11.775 13.021 11.8489 12.8018C11.9228 12.5825 12.0415 12.381 12.1975 12.2101C12.3535 12.0392 12.5433 11.9027 12.755 11.8092C12.9666 11.7157 13.1954 11.6673 13.4268 11.6671H15.9268C16.3312 11.6631 16.7233 11.8063 17.03 12.07C17.3366 12.3337 17.5369 12.6999 17.5935 13.1004C17.699 13.9005 17.8947 14.686 18.1768 15.4421C18.2889 15.7403 18.3132 16.0645 18.2467 16.3761C18.1803 16.6878 18.0259 16.9738 17.8018 17.2004L16.7435 18.2587C17.9298 20.345 19.6572 22.0724 21.7435 23.2587L22.8018 22.2004C23.0284 21.9764 23.3144 21.8219 23.6261 21.7555C23.9377 21.689 24.2619 21.7133 24.5601 21.8254C25.3162 22.1075 26.1018 22.3032 26.9018 22.4087C27.3066 22.4658 27.6763 22.6697 27.9406 22.9817C28.2049 23.2936 28.3453 23.6917 28.3351 24.1004Z" stroke="white" stroke-width="1.5" stroke-linecap="round" stroke-linejoin="round"/>
</svg>
