<svg width="40" height="40" viewBox="0 0 40 40" fill="none" xmlns="http://www.w3.org/2000/svg">
<path d="M21.6654 11.667H14.9987C14.5567 11.667 14.1327 11.8426 13.8202 12.1551C13.5076 12.4677 13.332 12.8916 13.332 13.3337V26.667C13.332 27.109 13.5076 27.5329 13.8202 27.8455C14.1327 28.1581 14.5567 28.3337 14.9987 28.3337H24.9987C25.4407 28.3337 25.8646 28.1581 26.1772 27.8455C26.4898 27.5329 26.6654 27.109 26.6654 26.667V16.667L21.6654 11.667Z" stroke="white" stroke-width="1.5" stroke-linecap="round" stroke-linejoin="round"/>
<path d="M21.668 11.667V16.667H26.668" stroke="white" stroke-width="1.5" stroke-linecap="round" stroke-linejoin="round"/>
<path d="M23.3346 20.833H16.668" stroke="white" stroke-width="1.5" stroke-linecap="round" stroke-linejoin="round"/>
<path d="M23.3346 24.167H16.668" stroke="white" stroke-width="1.5" stroke-linecap="round" stroke-linejoin="round"/>
<path d="M18.3346 17.5H17.5013H16.668" stroke="white" stroke-width="1.5" stroke-linecap="round" stroke-linejoin="round"/>
</svg>
