<svg width="40" height="40" viewBox="0 0 40 40" fill="none" xmlns="http://www.w3.org/2000/svg">
<g clip-path="url(#clip0_2106_15669)">
<path d="M16.25 20.8333C15.5083 20.8333 14.7833 20.6134 14.1666 20.2013C13.5499 19.7893 13.0693 19.2036 12.7855 18.5184C12.5016 17.8332 12.4274 17.0792 12.5721 16.3517C12.7167 15.6243 13.0739 14.9561 13.5983 14.4317C14.1228 13.9072 14.791 13.5501 15.5184 13.4054C16.2458 13.2607 16.9998 13.335 17.6851 13.6188C18.3703 13.9026 18.956 14.3833 19.368 14.9999C19.7801 15.6166 20 16.3417 20 17.0833C19.9989 18.0776 19.6035 19.0307 18.9004 19.7338C18.1974 20.4368 17.2442 20.8322 16.25 20.8333ZM16.25 15C15.838 15 15.4352 15.1222 15.0926 15.3511C14.75 15.58 14.4829 15.9054 14.3253 16.2861C14.1676 16.6668 14.1263 17.0856 14.2067 17.4898C14.2871 17.8939 14.4855 18.2651 14.7769 18.5565C15.0682 18.8478 15.4394 19.0463 15.8436 19.1266C16.2477 19.207 16.6666 19.1658 17.0473 19.0081C17.4279 18.8504 17.7533 18.5834 17.9822 18.2408C18.2111 17.8982 18.3333 17.4954 18.3333 17.0833C18.3333 16.5308 18.1138 16.0009 17.7231 15.6102C17.3324 15.2195 16.8025 15 16.25 15ZM22.5 29.1667V28.75C22.5 27.0924 21.8415 25.5027 20.6694 24.3306C19.4973 23.1585 17.9076 22.5 16.25 22.5C14.5924 22.5 13.0027 23.1585 11.8306 24.3306C10.6585 25.5027 10 27.0924 10 28.75L10 29.1667C10 29.3877 10.0878 29.5996 10.2441 29.7559C10.4004 29.9122 10.6123 30 10.8333 30C11.0543 30 11.2663 29.9122 11.4226 29.7559C11.5789 29.5996 11.6667 29.3877 11.6667 29.1667V28.75C11.6667 27.5344 12.1496 26.3686 13.0091 25.5091C13.8686 24.6496 15.0344 24.1667 16.25 24.1667C17.4656 24.1667 18.6314 24.6496 19.4909 25.5091C20.3504 26.3686 20.8333 27.5344 20.8333 28.75V29.1667C20.8333 29.3877 20.9211 29.5996 21.0774 29.7559C21.2337 29.9122 21.4457 30 21.6667 30C21.8877 30 22.0996 29.9122 22.2559 29.7559C22.4122 29.5996 22.5 29.3877 22.5 29.1667ZM30 25C30 23.8739 29.674 22.7719 29.0614 21.827C28.4489 20.8821 27.5759 20.1347 26.5479 19.675C25.5199 19.2153 24.3808 19.063 23.2681 19.2364C22.1555 19.4099 21.1168 19.9017 20.2775 20.6525C20.1948 20.7252 20.1273 20.8135 20.079 20.9124C20.0306 21.0113 20.0023 21.1188 19.9957 21.2287C19.9892 21.3386 20.0044 21.4487 20.0406 21.5526C20.0768 21.6566 20.1333 21.7523 20.2067 21.8343C20.2801 21.9164 20.3691 21.983 20.4684 22.0305C20.5678 22.0779 20.6755 22.1052 20.7855 22.1108C20.8954 22.1163 21.0054 22.1 21.109 22.0629C21.2126 22.0257 21.3078 21.9684 21.3892 21.8942C21.9887 21.358 22.7306 21.0069 23.5253 20.8831C24.3201 20.7593 25.1336 20.8681 25.8678 21.1965C26.6021 21.5249 27.2255 22.0588 27.663 22.7337C28.1005 23.4086 28.3333 24.1957 28.3333 25C28.3333 25.221 28.4211 25.433 28.5774 25.5893C28.7337 25.7455 28.9457 25.8333 29.1667 25.8333C29.3877 25.8333 29.5996 25.7455 29.7559 25.5893C29.9122 25.433 30 25.221 30 25ZM24.5833 17.5C23.8417 17.5 23.1166 17.2801 22.4999 16.868C21.8833 16.456 21.4026 15.8703 21.1188 15.1851C20.835 14.4998 20.7607 13.7458 20.9054 13.0184C21.0501 12.291 21.4072 11.6228 21.9317 11.0984C22.4561 10.5739 23.1243 10.2168 23.8517 10.0721C24.5792 9.92736 25.3332 10.0016 26.0184 10.2855C26.7036 10.5693 27.2893 11.0499 27.7013 11.6666C28.1134 12.2833 28.3333 13.0083 28.3333 13.75C28.3322 14.7442 27.9368 15.6974 27.2338 16.4004C26.5307 17.1035 25.5776 17.4989 24.5833 17.5ZM24.5833 11.6667C24.1713 11.6667 23.7685 11.7889 23.4259 12.0178C23.0833 12.2467 22.8163 12.5721 22.6586 12.9527C22.5009 13.3334 22.4596 13.7523 22.54 14.1564C22.6204 14.5606 22.8188 14.9318 23.1102 15.2231C23.4016 15.5145 23.7728 15.7129 24.1769 15.7933C24.581 15.8737 24.9999 15.8324 25.3806 15.6748C25.7613 15.5171 26.0866 15.25 26.3156 14.9074C26.5445 14.5648 26.6667 14.162 26.6667 13.75C26.6667 13.1975 26.4472 12.6676 26.0565 12.2769C25.6658 11.8862 25.1359 11.6667 24.5833 11.6667Z" fill="white"/>
</g>
<defs>
<clipPath id="clip0_2106_15669">
<rect width="20" height="20" fill="white" transform="translate(10 10)"/>
</clipPath>
</defs>
</svg>
