<svg width="24" height="24" viewBox="0 0 24 24" fill="none" xmlns="http://www.w3.org/2000/svg">
<path d="M11.9992 23.7326C10.1272 23.7326 8.4129 22.5257 7.4049 20.496C7.34557 20.3027 7.35652 20.0946 7.43582 19.9085C7.51511 19.7224 7.65765 19.5704 7.83822 19.4793C8.0188 19.3882 8.22577 19.3639 8.42254 19.4106C8.61931 19.4574 8.79321 19.5723 8.91348 19.7349C9.59919 21.168 10.7649 22.0183 11.9718 22.0183C13.1786 22.0183 14.3169 21.168 15.0232 19.7349C15.1241 19.5303 15.3022 19.3742 15.5182 19.3009C15.7343 19.2276 15.9706 19.2431 16.1752 19.344C16.3798 19.445 16.5359 19.623 16.6092 19.8391C16.6825 20.0551 16.667 20.2914 16.566 20.496C15.5855 22.5257 13.8712 23.7326 11.9992 23.7326Z" fill="#474747"/>
<path d="M18.7144 20.496H5.2813C4.52231 20.4942 3.79502 20.1914 3.25896 19.6541C2.72291 19.1167 2.42187 18.3887 2.42188 17.6297C2.42188 16.8823 2.92245 16.1897 3.90987 15.5726C4.20056 15.3922 4.44058 15.1409 4.60732 14.8422C4.77407 14.5435 4.86206 14.2072 4.86302 13.8652V10.4846C4.89012 8.61614 5.65656 6.83459 6.99449 5.53008C8.33241 4.22557 10.1328 3.50443 12.0013 3.52458C13.8868 3.51914 15.6981 4.25847 17.0413 5.58172C17.7071 6.21688 18.2365 6.98099 18.5972 7.82746C18.958 8.67393 19.1425 9.58502 19.1396 10.5052V13.8789C19.144 14.2175 19.2336 14.5495 19.4002 14.8443C19.5668 15.1391 19.805 15.3872 20.0927 15.5657C21.0802 16.1897 21.5807 16.8823 21.5807 17.6229C21.5816 17.9998 21.5082 18.3733 21.3645 18.7219C21.2209 19.0704 21.0099 19.3872 20.7436 19.6541C20.4774 19.921 20.1611 20.1327 19.8129 20.2772C19.4647 20.4216 19.0914 20.496 18.7144 20.496ZM12.0013 5.23887C10.5869 5.21685 9.22148 5.75678 8.20464 6.74019C7.1878 7.72361 6.60255 9.07021 6.5773 10.4846V13.8583C6.57649 14.4931 6.41278 15.1172 6.10183 15.6706C5.79087 16.2241 5.34308 16.6885 4.8013 17.0194C4.18416 17.4034 4.11559 17.6434 4.11559 17.6434C4.11738 17.7947 4.14895 17.9442 4.20851 18.0833C4.26806 18.2223 4.35443 18.3483 4.46268 18.454C4.57092 18.5597 4.69893 18.6431 4.8394 18.6993C4.97986 18.7555 5.13002 18.7835 5.2813 18.7817H18.7144C18.8675 18.7845 19.0195 18.7567 19.1616 18.7C19.3038 18.6433 19.4332 18.5589 19.5424 18.4517C19.6515 18.3444 19.7382 18.2165 19.7974 18.0754C19.8566 17.9343 19.887 17.7828 19.887 17.6297C19.887 17.6297 19.8047 17.3966 19.2013 17.0194C18.6638 16.6855 18.2204 16.2199 17.9132 15.6667C17.606 15.1135 17.4452 14.4911 17.4459 13.8583V10.4846C17.4476 9.79475 17.3086 9.11182 17.0374 8.47751C16.7662 7.84321 16.3686 7.27086 15.8687 6.79544C15.3584 6.29403 14.754 5.8984 14.0903 5.63128C13.4266 5.36415 12.7167 5.23079 12.0013 5.23887Z" fill="#474747"/>
<path d="M14.6057 4.88917C14.4932 4.88917 14.3817 4.867 14.2777 4.82392C14.1737 4.78085 14.0792 4.71771 13.9996 4.63812C13.92 4.55853 13.8569 4.46404 13.8138 4.36004C13.7708 4.25605 13.7486 4.14459 13.7486 4.03203V3.73717C13.7486 3.2716 13.5636 2.8251 13.2344 2.49589C12.9052 2.16669 12.4587 1.98174 11.9932 1.98174C11.5276 1.98174 11.0811 2.16669 10.7519 2.49589C10.4227 2.8251 10.2377 3.2716 10.2377 3.73717V4.03203C10.2377 4.25936 10.1474 4.47737 9.98667 4.63812C9.82593 4.79886 9.60791 4.88917 9.38058 4.88917C9.15325 4.88917 8.93523 4.79886 8.77449 4.63812C8.61374 4.47737 8.52344 4.25936 8.52344 4.03203V3.92231C8.52344 3.8606 8.52344 3.79888 8.52344 3.73717C8.52344 3.28152 8.61318 2.83033 8.78755 2.40937C8.96192 1.9884 9.2175 1.6059 9.53969 1.28371C9.86189 0.961519 10.2444 0.705942 10.6653 0.531572C11.0863 0.357203 11.5375 0.267456 11.9932 0.267456C12.4488 0.267456 12.9 0.357203 13.321 0.531572C13.7419 0.705942 14.1244 0.961519 14.4466 1.28371C14.7688 1.6059 15.0244 1.9884 15.1987 2.40937C15.3731 2.83033 15.4629 3.28152 15.4629 3.73717C15.4663 3.79884 15.4663 3.86065 15.4629 3.92231V4.03203C15.4629 4.25936 15.3726 4.47737 15.2118 4.63812C15.0511 4.79886 14.833 4.88917 14.6057 4.88917Z" fill="#474747"/>
</svg>
