<svg width="24" height="24" viewBox="0 0 24 24" fill="none" xmlns="http://www.w3.org/2000/svg">
<path d="M12.0002 23.7322C10.1282 23.7322 8.41388 22.5254 7.40588 20.4957C7.34654 20.3023 7.35749 20.0942 7.43679 19.9081C7.51609 19.7221 7.65863 19.57 7.8392 19.4789C8.01977 19.3878 8.22675 19.3635 8.42352 19.4103C8.62029 19.457 8.79419 19.5719 8.91445 19.7345C9.60017 21.1677 10.7659 22.0179 11.9727 22.0179C13.1796 22.0179 14.3179 21.1677 15.0242 19.7345C15.1251 19.5299 15.3032 19.3738 15.5192 19.3005C15.7353 19.2272 15.9716 19.2427 16.1762 19.3437C16.3808 19.4446 16.5369 19.6227 16.6102 19.8387C16.6835 20.0547 16.668 20.2911 16.567 20.4957C15.5865 22.5254 13.8722 23.7322 12.0002 23.7322Z" fill="#666666"/>
<path d="M18.713 20.4963H5.27984C4.52084 20.4944 3.79355 20.1917 3.2575 19.6543C2.72145 19.117 2.42041 18.389 2.42041 17.63C2.42041 16.8825 2.92098 16.19 3.90841 15.5728C4.1991 15.3925 4.43911 15.1411 4.60586 14.8424C4.7726 14.5437 4.8606 14.2075 4.86155 13.8654V10.4848C4.88866 8.61639 5.6551 6.83484 6.99302 5.53033C8.33095 4.22582 10.1313 3.50467 11.9998 3.52483C13.8853 3.51938 15.6967 4.25871 17.0398 5.58197C17.7056 6.21712 18.235 6.98123 18.5958 7.8277C18.9565 8.67418 19.141 9.58526 19.1381 10.5054V13.8791C19.1425 14.2177 19.2322 14.5497 19.3988 14.8445C19.5653 15.1394 19.8035 15.3875 20.0913 15.566C21.0787 16.19 21.5793 16.8825 21.5793 17.6231C21.5802 18.0001 21.5067 18.3736 21.3631 18.7221C21.2194 19.0706 21.0084 19.3874 20.7422 19.6543C20.4759 19.9212 20.1596 20.1329 19.8114 20.2774C19.4632 20.4219 19.09 20.4963 18.713 20.4963ZM11.9998 5.23911C10.5854 5.21709 9.22001 5.75702 8.20317 6.74044C7.18633 7.72386 6.60109 9.07046 6.57584 10.4848V13.8585C6.57503 14.4934 6.41132 15.1174 6.10036 15.6709C5.78941 16.2243 5.34162 16.6888 4.79984 17.0197C4.1827 17.4037 4.11412 17.6437 4.11412 17.6437C4.11591 17.795 4.14749 17.9444 4.20704 18.0835C4.2666 18.2226 4.35296 18.3486 4.46121 18.4543C4.56946 18.56 4.69747 18.6433 4.83793 18.6995C4.97839 18.7558 5.12855 18.7838 5.27984 18.782H18.713C18.866 18.7847 19.018 18.7569 19.1602 18.7003C19.3023 18.6436 19.4317 18.5592 19.5409 18.4519C19.6501 18.3447 19.7368 18.2167 19.7959 18.0756C19.8551 17.9345 19.8856 17.783 19.8856 17.63C19.8856 17.63 19.8033 17.3968 19.1998 17.0197C18.6623 16.6858 18.219 16.2202 17.9118 15.667C17.6046 15.1138 17.4437 14.4913 17.4444 13.8585V10.4848C17.4461 9.79499 17.3071 9.11206 17.0359 8.47776C16.7648 7.84346 16.3671 7.27111 15.8673 6.79568C15.3569 6.29428 14.7526 5.89865 14.0889 5.63152C13.4252 5.3644 12.7152 5.23104 11.9998 5.23911Z" fill="#666666"/>
<path d="M14.6057 4.88929C14.4932 4.88929 14.3817 4.86712 14.2777 4.82405C14.1737 4.78097 14.0792 4.71783 13.9996 4.63824C13.92 4.55865 13.8569 4.46416 13.8138 4.36016C13.7708 4.25617 13.7486 4.14471 13.7486 4.03215V3.73729C13.7486 3.27172 13.5636 2.82522 13.2344 2.49602C12.9052 2.16681 12.4587 1.98186 11.9932 1.98186C11.5276 1.98186 11.0811 2.16681 10.7519 2.49602C10.4227 2.82522 10.2377 3.27172 10.2377 3.73729V4.03215C10.2377 4.25948 10.1474 4.4775 9.98667 4.63824C9.82593 4.79899 9.60791 4.88929 9.38058 4.88929C9.15325 4.88929 8.93523 4.79899 8.77449 4.63824C8.61374 4.4775 8.52344 4.25948 8.52344 4.03215V3.92244C8.52344 3.86072 8.52344 3.79901 8.52344 3.73729C8.52344 3.28164 8.61318 2.83046 8.78755 2.40949C8.96192 1.98853 9.2175 1.60603 9.53969 1.28383C9.86189 0.961641 10.2444 0.706064 10.6653 0.531694C11.0863 0.357325 11.5375 0.267578 11.9932 0.267578C12.4488 0.267578 12.9 0.357325 13.321 0.531694C13.7419 0.706064 14.1244 0.961641 14.4466 1.28383C14.7688 1.60603 15.0244 1.98853 15.1987 2.40949C15.3731 2.83046 15.4629 3.28164 15.4629 3.73729C15.4663 3.79896 15.4663 3.86077 15.4629 3.92244V4.03215C15.4629 4.25948 15.3726 4.4775 15.2118 4.63824C15.0511 4.79899 14.833 4.88929 14.6057 4.88929Z" fill="#666666"/>
</svg>
