<svg width="24" height="24" viewBox="0 0 24 24" fill="none" xmlns="http://www.w3.org/2000/svg">
<path d="M6.54545 19.5H17.4545C17.997 19.5 18.5173 19.2845 18.9009 18.9009C19.2845 18.5173 19.5 17.997 19.5 17.4545V7.90909C19.5 7.3666 19.2845 6.84633 18.9009 6.46274C18.5173 6.07914 17.997 5.86364 17.4545 5.86364H16.7727V5.18182C16.7727 5.00099 16.7009 4.82757 16.573 4.6997C16.4452 4.57183 16.2717 4.5 16.0909 4.5C15.9101 4.5 15.7367 4.57183 15.6088 4.6997C15.4809 4.82757 15.4091 5.00099 15.4091 5.18182V5.86364H8.59091V5.18182C8.59091 5.00099 8.51907 4.82757 8.39121 4.6997C8.26334 4.57183 8.08992 4.5 7.90909 4.5C7.72826 4.5 7.55484 4.57183 7.42697 4.6997C7.29911 4.82757 7.22727 5.00099 7.22727 5.18182V5.86364H6.54545C6.00297 5.86364 5.4827 6.07914 5.0991 6.46274C4.7155 6.84633 4.5 7.3666 4.5 7.90909V17.4545C4.5 17.997 4.7155 18.5173 5.0991 18.9009C5.4827 19.2845 6.00297 19.5 6.54545 19.5ZM17.4545 18.1364H6.54545C6.36463 18.1364 6.1912 18.0645 6.06334 17.9367C5.93547 17.8088 5.86364 17.6354 5.86364 17.4545V11.3182H18.1364V17.4545C18.1364 17.6354 18.0645 17.8088 17.9367 17.9367C17.8088 18.0645 17.6354 18.1364 17.4545 18.1364ZM6.54545 7.22727H7.22727V7.90909C7.22727 8.08992 7.29911 8.26334 7.42697 8.39121C7.55484 8.51907 7.72826 8.59091 7.90909 8.59091C8.08992 8.59091 8.26334 8.51907 8.39121 8.39121C8.51907 8.26334 8.59091 8.08992 8.59091 7.90909V7.22727H15.4091V7.90909C15.4091 8.08992 15.4809 8.26334 15.6088 8.39121C15.7367 8.51907 15.9101 8.59091 16.0909 8.59091C16.2717 8.59091 16.4452 8.51907 16.573 8.39121C16.7009 8.26334 16.7727 8.08992 16.7727 7.90909V7.22727H17.4545C17.6354 7.22727 17.8088 7.29911 17.9367 7.42697C18.0645 7.55484 18.1364 7.72826 18.1364 7.90909V9.95455H5.86364V7.90909C5.86364 7.72826 5.93547 7.55484 6.06334 7.42697C6.1912 7.29911 6.36463 7.22727 6.54545 7.22727Z" fill="#666666"/>
<path d="M15.8312 12.7359C15.7485 12.7705 15.6724 12.8189 15.6062 12.8791C15.4816 13.0098 15.4109 13.1827 15.4084 13.3632C15.405 13.4086 15.405 13.4542 15.4084 13.4996C15.4158 13.5423 15.4296 13.5837 15.4493 13.6223C15.4643 13.6657 15.4849 13.707 15.5107 13.745L15.5925 13.8473C15.6589 13.9074 15.735 13.9558 15.8175 13.9905C15.9026 14.0308 15.9962 14.0495 16.0902 14.045C16.2708 14.0425 16.4437 13.9719 16.5743 13.8473C16.6375 13.7836 16.6875 13.708 16.7215 13.625C16.7554 13.5419 16.7726 13.4529 16.7721 13.3632C16.7696 13.1827 16.6989 13.0098 16.5743 12.8791C16.4785 12.7845 16.3567 12.7204 16.2244 12.6949C16.0922 12.6694 15.9553 12.6837 15.8312 12.7359ZM13.8471 12.8791C13.7807 12.819 13.7046 12.7706 13.6221 12.7359C13.4979 12.6837 13.361 12.6694 13.2288 12.6949C13.0965 12.7204 12.9748 12.7845 12.8789 12.8791C12.7827 12.9745 12.7171 13.0963 12.6905 13.2291C12.6639 13.3619 12.6774 13.4996 12.7293 13.6247C12.7812 13.7497 12.8692 13.8565 12.9821 13.9314C13.095 14.0062 13.2275 14.0458 13.363 14.045C13.4521 14.0439 13.5401 14.0254 13.6221 13.9905C13.7046 13.9558 13.7807 13.9074 13.8471 13.8473C13.9717 13.7166 14.0423 13.5437 14.0448 13.3632C14.0437 13.2741 14.0252 13.1861 13.9902 13.1041C13.9578 13.0204 13.9091 12.944 13.8471 12.8791ZM10.8948 12.7359C10.7706 12.6837 10.6338 12.6694 10.5015 12.6949C10.3692 12.7204 10.2475 12.7845 10.1516 12.8791C10.027 13.0098 9.95639 13.1827 9.95388 13.3632C9.95043 13.4086 9.95043 13.4542 9.95388 13.4996C9.96125 13.5423 9.97504 13.5837 9.99479 13.6223C10.0097 13.6657 10.0304 13.707 10.0562 13.745C10.0814 13.7807 10.1087 13.8149 10.138 13.8473C10.2721 13.9751 10.4505 14.046 10.6357 14.045C10.7248 14.0439 10.8128 14.0254 10.8948 13.9905C10.9774 13.9558 11.0534 13.9074 11.1198 13.8473C11.1837 13.7839 11.2344 13.7085 11.269 13.6254C11.3037 13.5423 11.3215 13.4532 11.3215 13.3632C11.3215 13.2732 11.3037 13.1841 11.269 13.101C11.2344 13.0179 11.1837 12.9425 11.1198 12.8791C11.0534 12.819 10.9774 12.7706 10.8948 12.7359ZM13.6221 15.4632C13.4979 15.411 13.361 15.3967 13.2288 15.4222C13.0965 15.4477 12.9748 15.5118 12.8789 15.6064C12.8157 15.6701 12.7657 15.7456 12.7318 15.8287C12.6978 15.9118 12.6806 16.0007 12.6812 16.0905C12.6822 16.1796 12.7008 16.2676 12.7357 16.3496C12.7703 16.4321 12.8188 16.5082 12.8789 16.5746C12.9426 16.6378 13.0181 16.6878 13.1012 16.7217C13.1843 16.7556 13.2732 16.7728 13.363 16.7723C13.4521 16.7712 13.5401 16.7527 13.6221 16.7177C13.7067 16.6871 13.7835 16.6383 13.8471 16.5746C13.9108 16.511 13.9596 16.4342 13.9902 16.3496C14.0252 16.2676 14.0437 16.1796 14.0448 16.0905C14.0453 16.0007 14.0281 15.9118 13.9942 15.8287C13.9603 15.7456 13.9103 15.6701 13.8471 15.6064C13.7807 15.5463 13.7046 15.4978 13.6221 15.4632ZM10.8948 15.4632C10.7706 15.411 10.6338 15.3967 10.5015 15.4222C10.3692 15.4477 10.2475 15.5118 10.1516 15.6064C10.027 15.737 9.95639 15.91 9.95388 16.0905C9.95496 16.1796 9.97349 16.2676 10.0084 16.3496C10.0431 16.4321 10.0915 16.5082 10.1516 16.5746C10.2823 16.6992 10.4552 16.7698 10.6357 16.7723C10.7251 16.7746 10.8139 16.7559 10.8948 16.7177C10.9794 16.6871 11.0562 16.6383 11.1199 16.5746C11.1835 16.511 11.2324 16.4342 11.263 16.3496C11.2979 16.2676 11.3164 16.1796 11.3175 16.0905C11.315 15.91 11.2444 15.737 11.1198 15.6064C11.0534 15.5463 10.9774 15.4978 10.8948 15.4632ZM8.16752 15.4632C8.00152 15.395 7.81533 15.395 7.64934 15.4632C7.56671 15.4977 7.49061 15.5462 7.42434 15.6064C7.36043 15.6698 7.30971 15.7452 7.27509 15.8283C7.24048 15.9113 7.22266 16.0005 7.22266 16.0905C7.22266 16.1805 7.24048 16.2696 7.27509 16.3527C7.30971 16.4358 7.36043 16.5112 7.42434 16.5746C7.49069 16.6347 7.56677 16.6831 7.64934 16.7177C7.73025 16.7559 7.81899 16.7746 7.90843 16.7723C8.04385 16.7731 8.17645 16.7335 8.2893 16.6587C8.40215 16.5838 8.49016 16.477 8.54209 16.3519C8.59402 16.2269 8.60753 16.0892 8.58089 15.9564C8.55425 15.8236 8.48867 15.7017 8.39252 15.6064C8.32768 15.5443 8.25121 15.4957 8.16752 15.4632Z" fill="#666666"/>
</svg>
