<svg width="24" height="24" viewBox="0 0 24 24" fill="none" xmlns="http://www.w3.org/2000/svg">
<path d="M10.6995 1.58395C8.97417 1.81615 7.34251 2.50606 5.97396 3.58201C4.60541 4.65796 3.54989 6.0807 2.91705 7.70246C2.28421 9.32422 2.09712 11.0858 2.37521 12.8043C2.65331 14.5228 3.38644 16.1355 4.49847 17.4749V20.2207C4.49802 20.3817 4.53878 20.5401 4.61688 20.6809C4.69497 20.8217 4.80779 20.9402 4.94461 21.0251C5.08143 21.11 5.2377 21.1584 5.39853 21.1658C5.55937 21.1732 5.71943 21.1394 5.86347 21.0674L7.86072 20.0684C9.55328 20.8703 11.4422 21.1637 13.2982 20.9129C15.8614 20.5683 18.1827 19.2196 19.7515 17.1635C21.3202 15.1074 22.008 12.5123 21.6633 9.94907C21.3187 7.38589 19.97 5.06458 17.9139 3.49581C15.8578 1.92705 13.2627 1.23933 10.6995 1.58395V1.58395Z" stroke="#474747" stroke-width="2" stroke-linecap="round" stroke-linejoin="round"/>
<path d="M6.78724 13.6223L10.2305 8.72251C10.2639 8.66306 10.3096 8.6114 10.3645 8.57098C10.4195 8.53057 10.4824 8.50232 10.5491 8.48813C10.6158 8.47394 10.6847 8.47412 10.7514 8.48867C10.818 8.50322 10.8808 8.5318 10.9355 8.57251L13.2417 10.3028C13.3182 10.3599 13.41 10.393 13.5054 10.3979C13.6007 10.4027 13.6954 10.379 13.7772 10.3298L16.586 8.34526C16.6751 8.29236 16.7789 8.26969 16.8819 8.28065C16.9849 8.29161 17.0816 8.33561 17.1576 8.40607C17.2335 8.47654 17.2846 8.56969 17.3033 8.6716C17.3219 8.77352 17.3071 8.87873 17.261 8.97151L14.4807 13.782C14.4512 13.841 14.4098 13.8933 14.3591 13.9356C14.3084 13.9778 14.2496 14.0092 14.1862 14.0277C14.1229 14.0462 14.0564 14.0515 13.9909 14.0432C13.9255 14.0348 13.8624 14.0131 13.8057 13.9793L10.7255 12.1358C10.6564 12.0941 10.5778 12.0706 10.4972 12.0675C10.4165 12.0643 10.3364 12.0816 10.2642 12.1178L7.41874 14.2928C7.32627 14.3391 7.22132 14.3544 7.11948 14.3363C7.01765 14.3182 6.92435 14.2678 6.85344 14.1925C6.78253 14.1173 6.73779 14.0211 6.72586 13.9184C6.71394 13.8156 6.73546 13.7118 6.78724 13.6223Z" fill="#474747"/>
</svg>
