<svg width="30" height="30" viewBox="0 0 30 30" fill="none" xmlns="http://www.w3.org/2000/svg">
<rect width="30" height="30" rx="15" fill="#EAF3FB"/>
<path d="M10.8333 22.5C9.94928 22.5 9.10143 22.1488 8.47631 21.5237C7.85119 20.8986 7.5 20.0507 7.5 19.1667V9.16667C7.5 8.72464 7.67559 8.30072 7.98816 7.98816C8.30072 7.67559 8.72464 7.5 9.16667 7.5H12.5C12.942 7.5 13.366 7.67559 13.6785 7.98816C13.9911 8.30072 14.1667 8.72464 14.1667 9.16667V19.1667C14.1667 20.0507 13.8155 20.8986 13.1904 21.5237M10.8333 22.5C11.7174 22.5 12.5652 22.1488 13.1904 21.5237M10.8333 22.5H20.8333C21.2754 22.5 21.6993 22.3244 22.0118 22.0118C22.3244 21.6993 22.5 21.2754 22.5 20.8333V17.5C22.5 17.058 22.3244 16.634 22.0118 16.3215C21.6993 16.0089 21.2754 15.8333 20.8333 15.8333H18.8808M13.1904 21.5237L20.2617 14.4525C20.5741 14.14 20.7496 13.7161 20.7496 13.2742C20.7496 12.8322 20.5741 12.4084 20.2617 12.0958L17.9042 9.73833C17.5916 9.42588 17.1678 9.25036 16.7258 9.25036C16.2839 9.25036 15.86 9.42588 15.5475 9.73833L14.1667 11.1192M10.8333 19.1667H10.8417" stroke="#3691D9" stroke-width="1.5" stroke-linecap="round" stroke-linejoin="round"/>
</svg>
