<svg width="30" height="30" viewBox="0 0 30 30" fill="none" xmlns="http://www.w3.org/2000/svg">
<rect width="30" height="30" rx="15" fill="#FFF5E6"/>
<path d="M12.5013 9.16667H10.8346C10.3926 9.16667 9.96868 9.34226 9.65612 9.65482C9.34356 9.96738 9.16797 10.3913 9.16797 10.8333V20.8333C9.16797 21.2754 9.34356 21.6993 9.65612 22.0118C9.96868 22.3244 10.3926 22.5 10.8346 22.5H19.168C19.61 22.5 20.0339 22.3244 20.3465 22.0118C20.659 21.6993 20.8346 21.2754 20.8346 20.8333V10.8333C20.8346 10.3913 20.659 9.96738 20.3465 9.65482C20.0339 9.34226 19.61 9.16667 19.168 9.16667H17.5013M12.5013 9.16667C12.5013 9.60869 12.6769 10.0326 12.9895 10.3452C13.302 10.6577 13.7259 10.8333 14.168 10.8333H15.8346C16.2767 10.8333 16.7006 10.6577 17.0131 10.3452C17.3257 10.0326 17.5013 9.60869 17.5013 9.16667M12.5013 9.16667C12.5013 8.72464 12.6769 8.30072 12.9895 7.98816C13.302 7.67559 13.7259 7.5 14.168 7.5H15.8346C16.2767 7.5 16.7006 7.67559 17.0131 7.98816C17.3257 8.30072 17.5013 8.72464 17.5013 9.16667M15.0013 15H17.5013M15.0013 18.3333H17.5013M12.5013 15H12.5096M12.5013 18.3333H12.5096" stroke="#FFA317" stroke-width="1.5" stroke-linecap="round" stroke-linejoin="round"/>
</svg>
