<svg width="20" height="20" viewBox="0 0 20 20" fill="none" xmlns="http://www.w3.org/2000/svg">
<path d="M13.332 3.33337V13.3334L9.9987 11.6667L6.66536 13.3334V3.33337H13.332ZM4.9987 16.6667H14.9987C15.4407 16.6667 15.8646 16.4911 16.1772 16.1786C16.4898 15.866 16.6654 15.4421 16.6654 15V5.00004C16.6654 4.55801 16.4898 4.13409 16.1772 3.82153C15.8646 3.50897 15.4407 3.33337 14.9987 3.33337H4.9987C4.55667 3.33337 4.13275 3.50897 3.82019 3.82153C3.50763 4.13409 3.33203 4.55801 3.33203 5.00004V15C3.33203 15.4421 3.50763 15.866 3.82019 16.1786C4.13275 16.4911 4.55667 16.6667 4.9987 16.6667Z" stroke="#EB5155" stroke-width="1.5" stroke-linecap="round" stroke-linejoin="round"/>
</svg>
