<svg width="30" height="30" viewBox="0 0 30 30" fill="none" xmlns="http://www.w3.org/2000/svg">
<rect width="30" height="30" rx="15" fill="#FCE8E9"/>
<path d="M18.332 8.33337V18.3334L14.9987 16.6667L11.6654 18.3334V8.33337H18.332ZM9.9987 21.6667H19.9987C20.4407 21.6667 20.8646 21.4911 21.1772 21.1786C21.4898 20.866 21.6654 20.4421 21.6654 20V10C21.6654 9.55801 21.4898 9.13409 21.1772 8.82153C20.8646 8.50897 20.4407 8.33337 19.9987 8.33337H9.9987C9.55667 8.33337 9.13275 8.50897 8.82019 8.82153C8.50763 9.13409 8.33203 9.55801 8.33203 10V20C8.33203 20.4421 8.50763 20.866 8.82019 21.1786C9.13275 21.4911 9.55667 21.6667 9.9987 21.6667Z" stroke="#EB5155" stroke-width="1.5" stroke-linecap="round" stroke-linejoin="round"/>
</svg>
